<?xml version="1.0" encoding="UTF-8"?>
<svg version="1.1" xmlns="http://www.w3.org/2000/svg" width="1024" height="1024">
<path d="M0 0 C337.92 0 675.84 0 1024 0 C1024 337.92 1024 675.84 1024 1024 C686.08 1024 348.16 1024 0 1024 C0 686.08 0 348.16 0 0 Z " fill="#ADDAD0" transform="translate(0,0)"/>
<path d="M0 0 C3.3536837 0.016127 6.70616594 0.00000491 10.05981445 -0.01904297 C38.66468283 -0.04631553 65.60797008 4.75684361 92.78833008 13.39111328 C93.88661133 13.73013672 94.98489258 14.06916016 96.11645508 14.41845703 C111.81099656 19.41412392 126.4147427 26.41212187 140.78833008 34.39111328 C141.54210937 34.80796387 142.29588867 35.22481445 143.07250977 35.65429688 C152.97054928 41.17311219 161.99412396 47.25463853 170.78833008 54.39111328 C171.67004883 55.08076172 172.55176758 55.77041016 173.46020508 56.48095703 C179.4761978 61.19846686 185.14386006 66.23899579 190.78833008 71.39111328 C192.49638039 72.91226447 194.20471196 74.43309991 195.91333008 75.95361328 C203.01971261 82.35936655 209.61871017 89.07945735 215.78833008 96.39111328 C216.47668945 97.20193359 217.16504883 98.01275391 217.87426758 98.84814453 C236.68944117 121.39334376 251.7875527 147.20252492 261.53051758 174.91455078 C262.5614374 177.76398756 263.66689246 180.54123259 264.85083008 183.32861328 C268.49195679 192.28341679 270.82753212 201.78313375 271.78833008 211.39111328 C272.11833008 211.72111328 272.44833008 212.05111328 272.78833008 212.39111328 C273.14075636 214.73963466 273.44471427 217.09549309 273.72583008 219.45361328 C274.48052646 225.60439758 274.48052646 225.60439758 275.85083008 231.64111328 C278.40047753 241.83970307 277.97462742 252.5563121 277.97363281 263.00463867 C277.97581091 265.55616158 277.99400342 268.107245 278.01293945 270.65869141 C278.04972926 281.08080878 277.39638332 291.08756103 275.78833008 301.39111328 C275.51484741 303.15418823 275.51484741 303.15418823 275.23583984 304.95288086 C269.37187679 341.10930605 269.37187679 341.10930605 262.80493164 356.04858398 C261.82076109 358.31638332 260.91682866 360.60216623 260.02270508 362.90673828 C248.92109022 390.73884766 233.6277614 415.97045489 213.78833008 438.39111328 C213.02907227 439.26123047 212.26981445 440.13134766 211.48754883 441.02783203 C203.45016771 450.12163624 195.02994478 458.6551965 185.52270508 466.21533203 C183.72002863 467.64974744 181.93789355 469.11041963 180.17895508 470.59814453 C172.77839932 476.84920569 164.96597939 482.22490941 156.78833008 487.39111328 C156.15217773 487.79442871 155.51602539 488.19774414 154.8605957 488.61328125 C138.33772361 498.97557793 120.29710152 508.19478568 101.78833008 514.39111328 C100.46696045 514.83898193 100.46696045 514.83898193 99.11889648 515.29589844 C85.83964096 519.77082564 72.61671752 524.02432177 58.78833008 526.39111328 C57.76255859 526.57158203 56.73678711 526.75205078 55.67993164 526.93798828 C38.99777128 529.7620772 22.68711172 530.75207872 5.78833008 530.70361328 C4.90113281 530.70115601 4.01393555 530.69869873 3.09985352 530.69616699 C-12.76986535 530.61740726 -28.28581167 529.82511757 -43.96166992 527.14111328 C-45.26064209 526.92148926 -46.55961426 526.70186523 -47.89794922 526.47558594 C-64.7559871 523.53638594 -80.92217099 519.22620416 -96.64916992 512.45361328 C-103.88040568 509.36075454 -103.88040568 509.36075454 -111.21166992 506.51611328 C-136.35281276 496.52973599 -159.86213733 479.97180999 -179.62573242 461.75830078 C-181.78849099 459.7784946 -183.98144269 457.85613365 -186.21166992 455.95361328 C-211.47124599 433.96170311 -228.9533091 406.47661525 -243.94921875 376.87329102 C-244.72242197 375.35305177 -245.50625335 373.8380888 -246.30810547 372.33276367 C-249.21950479 366.78788096 -251.20527946 361.02283573 -253.14916992 355.07861328 C-253.49689453 354.01900391 -253.84461914 352.95939453 -254.20288086 351.86767578 C-261.87420087 328.1912898 -267.19075006 303.84142498 -267.48510742 278.86376953 C-267.4976355 277.88519989 -267.51016357 276.90663025 -267.52307129 275.89840698 C-267.74092511 254.81270278 -267.54223899 234.91710754 -262.21166992 214.39111328 C-261.72412532 212.37203206 -261.23845961 210.35249626 -260.75463867 208.33251953 C-257.06992219 193.32111901 -253.18379581 177.85459343 -246.41088867 163.90283203 C-245.13514532 161.23083537 -244.05031276 158.51930218 -242.96166992 155.76611328 C-232.75127416 131.15969368 -217.58869215 108.14427688 -199.40698242 88.73486328 C-197.44780229 86.6432119 -195.57135252 84.50833427 -193.71166992 82.32861328 C-187.12761931 74.768574 -179.89964458 67.81632882 -172.21166992 61.39111328 C-171.6733252 60.93365723 -171.13498047 60.47620117 -170.58032227 60.00488281 C-161.27929948 52.12177471 -151.71944143 45.06808025 -141.32641602 38.69091797 C-139.26297774 37.42264905 -137.2160835 36.13039926 -135.16870117 34.83642578 C-120.30656778 25.61146849 -103.98747729 18.35237962 -87.21166992 13.39111328 C-85.71379246 12.91867929 -84.21644522 12.44456255 -82.71948242 11.96923828 C-55.61418551 3.46160045 -28.41215388 -0.16168002 0 0 Z " fill="#FBC348" transform="translate(507.211669921875,240.60888671875)"/>
<path d="M0 0 C1.38445312 0.27263672 1.38445312 0.27263672 2.796875 0.55078125 C10.52964621 2.0508241 18.27826838 3.41900292 26.0625 4.625 C27.20960449 4.80929565 27.20960449 4.80929565 28.37988281 4.99731445 C42.48230221 7.12972489 56.76619119 7.27012062 71 7.3125 C72.36398422 7.31742462 72.36398422 7.31742462 73.75552368 7.32244873 C92.84330623 7.34457514 112.61618394 6.57991165 131 1 C134.4375 0.875 134.4375 0.875 137 1 C137 1.66 137 2.32 137 3 C137.7825415 2.99057373 138.56508301 2.98114746 139.37133789 2.97143555 C147.43104379 2.9169902 155.39997028 3.23902093 163.4375 3.8125 C164.7059375 3.90015625 165.974375 3.9878125 167.28125 4.078125 C183.51991038 5.21150299 199.74737381 6.50316187 215.97088623 7.83398438 C217.81006768 7.98446034 219.64940986 8.13296852 221.48876953 8.28125 C239.71997771 9.76219218 257.74650841 12.23996873 275.72802734 15.58642578 C278.24903832 16.04533322 280.77443784 16.47380408 283.30078125 16.90234375 C307.81282217 21.16370122 307.81282217 21.16370122 316 29 C316 30.32 316 31.64 316 33 C303.95959835 44.09714438 279.81449966 46.49500274 264.04003906 47.74731445 C261.93658338 47.89259345 261.93658338 47.89259345 260 49 C257.24525403 49.35528255 254.50132505 49.6636006 251.73828125 49.9375 C250.91426315 50.02249756 250.09024506 50.10749512 249.24125671 50.19506836 C246.59869979 50.46706207 243.95564505 50.73378741 241.3125 51 C238.6873052 51.26707518 236.06223282 51.53527778 233.43730164 51.80493164 C231.80353322 51.97248236 230.16959849 52.13842191 228.53547668 52.30249023 C225.21245851 52.64096079 221.9196854 53.01219206 218.61621094 53.51367188 C213.82534915 54.15797357 209.03892931 54.43790162 204.21484375 54.71875 C203.17482208 54.7812796 202.13480042 54.8438092 201.06326294 54.90823364 C197.6882281 55.10944784 194.31292333 55.30541695 190.9375 55.5 C189.19906326 55.60087921 189.19906326 55.60087921 187.42550659 55.70379639 C169.61952881 56.73204386 151.83296393 57.61614777 134 58 C133.05648682 58.02084656 132.11297363 58.04169312 131.14086914 58.06317139 C123.19825194 58.23837163 115.25545803 58.40353394 107.3125 58.5625 C106.19843781 58.5849176 105.08437561 58.60733521 103.93655396 58.63043213 C80.05076732 59.10279791 56.19967316 58.98640159 32.3125 58.625 C31.61110901 58.61439293 30.90971802 58.60378586 30.18707275 58.59285736 C10.79588396 58.29536979 -8.51360279 57.81096877 -27.85498047 56.29589844 C-32.79629548 55.92739977 -37.74354136 55.67654293 -42.69140625 55.4140625 C-74.13448116 53.70501623 -105.19683691 50.22303198 -136.3203125 45.45703125 C-137.44581512 45.28886902 -137.44581512 45.28886902 -138.59405518 45.11730957 C-149.95291691 43.33561496 -160.91590734 40.3429749 -170 33 C-169.42815249 28.43284457 -169.42815249 28.43284457 -167.57421875 26.55859375 C-158.07131001 20.91193783 -147.5257533 18.43774921 -136.75 16.4375 C-135.76515625 16.24220703 -134.7803125 16.04691406 -133.765625 15.84570312 C-114.53957888 12.19323025 -94.94633849 10.4975562 -75.47924805 8.69238281 C-72.03970776 8.37288282 -68.60090246 8.0461845 -65.16210938 7.71875 C-54.24327417 6.68999171 -43.34460069 5.74740167 -32.38842773 5.23291016 C-29.19846603 5.01364195 -26.14804723 4.54078579 -23 4 C-20.38635652 3.95666498 -17.79865155 3.95275059 -15.1875 4 C-9.37335556 4.05878271 -3.75913579 3.82273368 2 3 C1.01 1.515 1.01 1.515 0 0 Z " fill="#A7CBB0" transform="translate(442,763)"/>
<path d="M0 0 C0.33 0 0.66 0 1 0 C1.05945801 0.7213916 1.11891602 1.4427832 1.18017578 2.18603516 C5.33688896 50.83412398 17.59225738 98.42063851 44 140 C44.65355469 141.03769531 45.30710937 142.07539062 45.98046875 143.14453125 C61.19316434 166.57521909 79.25022002 188.40744226 101 206 C101.65387695 206.53947266 102.30775391 207.07894531 102.98144531 207.63476562 C139.49966467 237.68820291 184.36814581 258.67195948 231 267 C231.87027832 267.16081055 232.74055664 267.32162109 233.63720703 267.48730469 C260.6947201 272.27057199 289.81024562 271.29730824 317 268 C318.44263675 267.84179381 319.88534209 267.68421142 321.328125 267.52734375 C327.81027251 266.75904141 333.95135318 265.63464256 340.20703125 263.77734375 C343.36532016 262.89832348 346.53445295 262.26234807 349.75 261.625 C356.21340302 260.2784577 362.31825215 258.34958011 368.5390625 256.18359375 C371.38876345 255.20903462 374.22215536 254.35631998 377.125 253.5625 C382.67043578 251.9160574 387.77694217 249.4696234 392.97851562 246.96142578 C395.24039469 245.88566736 397.51746877 244.84668154 399.796875 243.80859375 C423.86684617 232.75223745 445.55615104 218.62847705 465.43359375 201.109375 C467.59814158 199.33029459 469.44034935 198.08921304 472 197 C472 196.34 472 195.68 472 195 C473.48413086 193.55029297 473.48413086 193.55029297 475.52734375 191.8671875 C479.83596503 188.20063899 483.71810931 184.27013895 487.5625 180.125 C488.22088867 179.41738525 488.87927734 178.70977051 489.55761719 177.98071289 C493.99582821 173.17301914 498.13970804 168.28481883 502 163 C502.80308594 161.98808594 503.60617187 160.97617187 504.43359375 159.93359375 C513.82695163 147.91599512 521.48465158 134.23223511 527 120 C527.33 120 527.66 120 528 120 C527.0965021 131.97134722 521.55389904 142.52590692 516.375 153.1875 C515.91196472 154.14452316 515.91196472 154.14452316 515.4395752 155.12088013 C510.56326412 165.16643946 505.35479087 174.80538732 499 184 C498.39792725 184.88848633 498.39792725 184.88848633 497.78369141 185.79492188 C491.74414551 194.68321992 485.08855106 202.93160026 478 211 C477.23816406 211.87398437 476.47632813 212.74796875 475.69140625 213.6484375 C467.65150065 222.73453402 459.23865779 231.26643456 449.734375 238.82421875 C447.93169855 240.25863415 446.14956347 241.71930634 444.390625 243.20703125 C436.99006924 249.4580924 429.17764931 254.83379613 421 260 C420.36384766 260.40331543 419.72769531 260.80663086 419.07226562 261.22216797 C402.54939353 271.58446465 384.50877144 280.8036724 366 287 C364.67863037 287.44786865 364.67863037 287.44786865 363.33056641 287.90478516 C350.05131088 292.37971236 336.82838744 296.63320849 323 299 C321.46134277 299.27070312 321.46134277 299.27070312 319.89160156 299.546875 C303.2094412 302.37096392 286.89878164 303.36096544 270 303.3125 C269.11280273 303.31004272 268.22560547 303.30758545 267.31152344 303.30505371 C251.44180458 303.22629397 235.92585825 302.43400429 220.25 299.75 C218.95102783 299.53037598 217.65205566 299.31075195 216.3137207 299.08447266 C199.45568283 296.14527265 183.28949893 291.83509087 167.5625 285.0625 C160.33126424 281.96964125 160.33126424 281.96964125 153 279.125 C127.85885716 269.1386227 104.3495326 252.58069671 84.5859375 234.3671875 C82.42317894 232.38738132 80.23022723 230.46502037 78 228.5625 C52.74042394 206.57058983 35.25836082 179.08550197 20.26245117 149.48217773 C19.48924795 147.96193849 18.70541657 146.44697552 17.90356445 144.94165039 C14.99216513 139.39676768 13.00639046 133.63172245 11.0625 127.6875 C10.71477539 126.62789062 10.36705078 125.56828125 10.00878906 124.4765625 C2.29180708 100.65924763 -3.09120695 76.14944817 -3.203125 51.015625 C-3.20882507 49.99756775 -3.21452515 48.9795105 -3.22039795 47.93060303 C-3.22978452 45.7893577 -3.23635645 43.64809833 -3.24023438 41.50683594 C-3.24993246 38.27252405 -3.28101438 35.03885067 -3.3125 31.8046875 C-3.36712907 20.80391783 -3.11639167 10.63709555 0 0 Z " fill="#F69B29" transform="translate(243,468)"/>
<path d="M0 0 C20.86296969 16.15197653 31.84886165 40.48957568 36.03515625 65.96875 C36.20716553 66.90477051 36.3791748 67.84079102 36.55639648 68.80517578 C37.35691629 74.09489308 37.26109833 79.37789151 37.28515625 84.71875 C37.30578125 85.84796875 37.32640625 86.9771875 37.34765625 88.140625 C37.3949932 98.36540711 36.19139231 106.78421881 28.92578125 114.33984375 C24.08899465 118.50707518 19.40851698 119.35895576 13.03515625 118.96875 C12.88820313 118.15792969 12.74125 117.34710937 12.58984375 116.51171875 C9.63713461 101.93483859 3.2183843 90.91215612 -9.1796875 82.609375 C-22.72269438 74.63172719 -39.42687296 72.35394565 -54.80859375 75.83984375 C-68.07213856 80.65577371 -79.08899674 89.28464637 -85.609375 101.8359375 C-88.00618026 107.37552777 -89.51248331 113.11659177 -90.96484375 118.96875 C-97.15942397 119.40345738 -101.03021427 118.85371501 -105.96484375 114.96875 C-114.39536353 106.53823022 -115.18650477 96.56184262 -115.21484375 85.21875 C-115.18823257 58.60566831 -107.28556803 30.9647156 -88.96484375 10.96875 C-88.30226563 10.21464844 -87.6396875 9.46054687 -86.95703125 8.68359375 C-78.55539952 -0.35358576 -67.72206035 -7.26477884 -55.96484375 -11.03125 C-54.13953125 -11.65 -54.13953125 -11.65 -52.27734375 -12.28125 C-34.06316033 -16.29640065 -15.01061594 -10.28395295 0 0 Z " fill="#74240D" transform="translate(550.96484375,545.03125)"/>
<path d="M0 0 C3.3536837 0.016127 6.70616594 0.00000491 10.05981445 -0.01904297 C38.66468283 -0.04631553 65.60797008 4.75684361 92.78833008 13.39111328 C93.88661133 13.73013672 94.98489258 14.06916016 96.11645508 14.41845703 C111.81099656 19.41412392 126.4147427 26.41212187 140.78833008 34.39111328 C141.54210937 34.80796387 142.29588867 35.22481445 143.07250977 35.65429688 C152.97054928 41.17311219 161.99412396 47.25463853 170.78833008 54.39111328 C171.67004883 55.08076172 172.55176758 55.77041016 173.46020508 56.48095703 C179.4761978 61.19846686 185.14386006 66.23899579 190.78833008 71.39111328 C192.49638039 72.91226447 194.20471196 74.43309991 195.91333008 75.95361328 C203.01971261 82.35936655 209.61871017 89.07945735 215.78833008 96.39111328 C216.47668945 97.20193359 217.16504883 98.01275391 217.87426758 98.84814453 C236.68944117 121.39334376 251.7875527 147.20252492 261.53051758 174.91455078 C262.5614374 177.76398756 263.66689246 180.54123259 264.85083008 183.32861328 C268.49195679 192.28341679 270.82753212 201.78313375 271.78833008 211.39111328 C272.11833008 211.72111328 272.44833008 212.05111328 272.78833008 212.39111328 C273.14075636 214.73963466 273.44471427 217.09549309 273.72583008 219.45361328 C274.48052646 225.60439758 274.48052646 225.60439758 275.85083008 231.64111328 C278.68564844 242.98038674 277.90654404 254.97434162 277.85083008 266.57861328 C277.84580464 268.4073881 277.84124358 270.23616425 277.8371582 272.06494141 C277.82623627 276.50703223 277.80902931 280.94905769 277.78833008 285.39111328 C277.45833008 285.39111328 277.12833008 285.39111328 276.78833008 285.39111328 C276.75094727 284.54033203 276.71356445 283.68955078 276.67504883 282.81298828 C275.89456689 268.42763495 273.91779132 254.20133409 270.47192383 240.20361328 C269.83100308 237.56668221 269.29236592 234.93208801 268.78833008 232.26611328 C267.04880823 223.49779178 264.51981087 215.42228635 260.96801758 207.21533203 C259.97867523 204.84680714 259.15854436 202.53046026 258.41333008 200.07861328 C248.44906009 169.24473338 227.88819976 140.46571869 206.78833008 116.39111328 C205.85633789 115.29283203 205.85633789 115.29283203 204.90551758 114.17236328 C197.86520853 105.92046617 190.09163237 98.36216931 181.78833008 91.39111328 C181.01489258 90.72853516 180.24145508 90.06595703 179.44458008 89.38330078 C162.04881392 74.76456958 142.72255519 63.17303215 122.78833008 52.39111328 C122.17876465 52.05692383 121.56919922 51.72273438 120.94116211 51.37841797 C110.65251807 45.77176744 99.90879206 41.98533052 88.78833008 38.39111328 C87.96526367 38.12411621 87.14219727 37.85711914 86.29418945 37.58203125 C38.40609298 22.22474852 -20.22931975 14.64429522 -69.07495117 30.39501953 C-72.7268639 31.55471785 -76.42446636 32.44230666 -80.14916992 33.32861328 C-94.1132569 36.73308775 -107.06198518 41.74502888 -119.87182617 48.23876953 C-121.80685651 49.19174775 -123.78623213 50.05408684 -125.77416992 50.89111328 C-139.99910693 57.09835852 -154.8487006 65.8349195 -166.53198242 76.06298828 C-168.21166992 77.39111328 -168.21166992 77.39111328 -170.21166992 77.39111328 C-170.21166992 78.05111328 -170.21166992 78.71111328 -170.21166992 79.39111328 C-172.13916767 80.96211458 -174.07614064 82.43334708 -176.08666992 83.89111328 C-181.53266585 87.94451897 -186.33519158 92.3032364 -191.05541992 97.19970703 C-192.85302321 99.02661906 -194.65293876 100.66619272 -196.64916992 102.26611328 C-198.95242025 104.17612575 -200.44931889 106.01193938 -202.21166992 108.39111328 C-202.87166992 108.39111328 -203.53166992 108.39111328 -204.21166992 108.39111328 C-204.48479004 108.98335693 -204.75791016 109.57560059 -205.03930664 110.18579102 C-206.17608894 112.32418222 -207.35633118 113.88211616 -208.96948242 115.67626953 C-209.50863281 116.28349854 -210.0477832 116.89072754 -210.60327148 117.51635742 C-211.46130371 118.47529907 -211.46130371 118.47529907 -212.33666992 119.45361328 C-217.67725699 125.52878741 -222.66758878 131.68765474 -227.21166992 138.39111328 C-227.93870117 139.45587891 -228.66573242 140.52064453 -229.41479492 141.61767578 C-234.73962332 149.57255378 -239.14116475 157.83137762 -243.27661133 166.45654297 C-244.88586068 169.78596644 -246.5520653 173.08655838 -248.21166992 176.39111328 C-248.87166992 176.39111328 -249.53166992 176.39111328 -250.21166992 176.39111328 C-250.3328418 177.00599609 -250.45401367 177.62087891 -250.57885742 178.25439453 C-250.74643555 179.06263672 -250.91401367 179.87087891 -251.08666992 180.70361328 C-251.33030273 181.904375 -251.33030273 181.904375 -251.57885742 183.12939453 C-252.21166992 185.39111328 -252.21166992 185.39111328 -254.21166992 188.39111328 C-253.10090472 178.80923768 -249.67960166 169.77109729 -245.15698242 161.27783203 C-244.12158955 159.21132477 -243.32971089 157.11986534 -242.52416992 154.95361328 C-232.93874402 130.61852038 -217.2091022 107.73905546 -199.40698242 88.73486328 C-197.44780229 86.6432119 -195.57135252 84.50833427 -193.71166992 82.32861328 C-187.12761931 74.768574 -179.89964458 67.81632882 -172.21166992 61.39111328 C-171.6733252 60.93365723 -171.13498047 60.47620117 -170.58032227 60.00488281 C-161.27929948 52.12177471 -151.71944143 45.06808025 -141.32641602 38.69091797 C-139.26297774 37.42264905 -137.2160835 36.13039926 -135.16870117 34.83642578 C-120.30656778 25.61146849 -103.98747729 18.35237962 -87.21166992 13.39111328 C-85.71379246 12.91867929 -84.21644522 12.44456255 -82.71948242 11.96923828 C-55.61418551 3.46160045 -28.41215388 -0.16168002 0 0 Z " fill="#FBE299" transform="translate(507.211669921875,240.60888671875)"/>
<path d="M0 0 C3.72198691 1.37305807 7.21558781 3.14283815 10.75 4.9375 C12.81221236 5.95631159 14.87471659 6.9745326 16.9375 7.9921875 C17.96101563 8.50233398 18.98453125 9.01248047 20.0390625 9.53808594 C23.38531649 11.19024367 26.75656791 12.77976834 30.14453125 14.34423828 C36.99878714 17.54914241 43.75089181 20.88241478 50.421875 24.453125 C58.16941609 28.56426896 65.9863897 32.5211897 73.84375 36.41796875 C74.95582825 36.97005508 76.06790649 37.52214142 77.21368408 38.09095764 C81.8061037 40.36906971 86.39973475 42.64466458 90.99707031 44.9128418 C94.40705769 46.59654101 97.81312816 48.28796051 101.21875 49.98046875 C102.75033752 50.73229683 102.75033752 50.73229683 104.31286621 51.49931335 C110.40307043 54.53367033 116.03713206 57.87694831 121.61730957 61.7780304 C123.88838106 63.20735868 123.88838106 63.20735868 126.23913574 62.81632996 C128.18655626 62.11509716 128.18655626 62.11509716 129.1875 60 C130.26218993 56.0319141 130.66145304 52.08929088 131 48 C133.82470962 48.29221134 134.82365251 48.79794354 136.71484375 50.96484375 C138.50759539 55.1987891 138.57397611 59.00308466 138.5625 63.5625 C138.5622583 64.4505835 138.5620166 65.33866699 138.56176758 66.25366211 C138.33820777 74.87679536 135.88539289 80.88646568 130.640625 87.7890625 C128.27295899 89.53662551 126.47069528 89.36379788 123.5625 89.3125 C122.61503906 89.30863281 121.66757812 89.30476563 120.69140625 89.30078125 C117.99410823 88.99934156 116.31514072 88.37375963 114 87 C114.04640625 88.01578125 114.0928125 89.0315625 114.140625 90.078125 C114.56260969 103.28366884 112.1005725 113.28776751 104 124 C103.38125 124.886875 102.7625 125.77375 102.125 126.6875 C94.0719045 135.45116275 82.26517967 141.53835731 70.36328125 142.203125 C55.34652719 142.49514311 43.0791227 138.95369049 31.75 128.5 C22.46237405 118.72433001 17.44036005 105.92633723 17.6875 92.47265625 C18.98467048 78.05784928 26.1153892 66.24626973 37 57 C39.29404938 55.44122286 41.50196672 54.22244182 44 53 C40.77656852 50.42594913 37.38849801 48.49814645 33.75 46.5625 C32.58855469 45.94246094 31.42710937 45.32242188 30.23046875 44.68359375 C27.85666454 43.44646 25.48283237 42.26428877 23.0625 41.125 C17.30274989 38.29393639 12.00201614 34.60013563 6.64941406 31.07666016 C5.20175376 30.1316954 3.73873157 29.210352 2.2734375 28.29296875 C-3.39430229 24.70087279 -7.45865138 21.37628746 -10.3125 15.125 C-11.37940061 10.27545179 -12.2013092 5.92209471 -9.4375 1.5 C-6.20088922 -0.49176048 -3.66034294 -0.61082312 0 0 Z " fill="#7C290D" transform="translate(357,376)"/>
<path d="M0 0 C1.71875 1.171875 1.71875 1.171875 3 3 C3.92544474 9.28758043 3.86432197 15.764467 0 21 C-5.94309838 26.72023219 -12.71744245 30.41575481 -19.9375 34.3125 C-21.1468531 34.97256467 -22.35575371 35.63345903 -23.56420898 36.29516602 C-25.36441826 37.2806303 -27.1649617 38.26541892 -28.96736145 39.24687195 C-34.52463294 42.27407225 -40.02821858 45.39259914 -45.50561523 48.56176758 C-49.78192735 51 -49.78192735 51 -52 51 C-52 51.66 -52 52.32 -52 53 C-51.41863281 53.11214844 -50.83726562 53.22429687 -50.23828125 53.33984375 C-43.21127762 55.4123806 -37.05528425 62.13499778 -33 68 C-26.45403095 80.3105499 -23.43511608 92.92480305 -27.1875 106.76171875 C-32.00479306 120.03243472 -39.24988004 129.70174797 -52 136 C-63.94529557 141.35478767 -76.65715743 143.32644689 -89.4375 139.4375 C-103.23843644 134.06836856 -112.59022573 124.00899589 -119.00390625 110.95703125 C-122.0178671 103.42940921 -121.73373404 94.99716038 -122 87 C-122.72316406 87.31839844 -123.44632813 87.63679688 -124.19140625 87.96484375 C-128.52786125 89.56311993 -132.45623001 89.93205538 -137 89 C-141.46112276 86.02591816 -144.0651874 80.99032446 -145.52734375 75.9296875 C-146.17963564 71.88655592 -146.36253823 67.90368266 -146.4375 63.8125 C-146.45989746 63.03994873 -146.48229492 62.26739746 -146.50537109 61.47143555 C-146.48318461 56.0561829 -145.40100882 53.22263868 -142 49 C-140.68 49.33 -139.36 49.66 -138 50 C-137.34 53.96 -136.68 57.92 -136 62 C-132.01227845 63.46216626 -132.01227845 63.46216626 -128.69482422 61.31445312 C-127.35068556 60.47925107 -126.01274383 59.63402901 -124.6796875 58.78125 C-117.91871436 54.63344993 -111.0481861 50.87388894 -103.9453125 47.34375 C-102.983974 46.86566895 -102.0226355 46.38758789 -101.03216553 45.89501953 C-98.0653886 44.42534938 -95.09549019 42.9621483 -92.125 41.5 C-88.18848333 39.55534654 -84.2538212 37.60698012 -80.3203125 35.65625 C-79.36164276 35.18121033 -78.40297302 34.70617065 -77.41525269 34.21673584 C-70.42320152 30.73959078 -63.49996828 27.14537953 -56.60119629 23.48724365 C-49.65810796 19.80663072 -42.65859016 16.25462624 -35.625 12.75 C-34.48417969 12.17765625 -33.34335937 11.6053125 -32.16796875 11.015625 C-26.4593619 8.16456142 -20.7304992 5.35544557 -14.96875 2.61328125 C-13.94458984 2.12384033 -12.92042969 1.63439941 -11.86523438 1.13012695 C-7.56081321 -0.56765471 -4.56965975 -0.66333771 0 0 Z " fill="#7D2A0D" transform="translate(675,376)"/>
<path d="M0 0 C13.39713255 6.62522431 22.30821255 20.16233511 27.1730957 33.88500977 C28.63705825 39.3998306 28.5363853 44.8284494 28.4375 50.5 C28.44458984 51.64597656 28.45167969 52.79195313 28.45898438 53.97265625 C28.34208294 69.78132742 23.21919913 83.34317724 12.21875 94.8203125 C-1.76155354 108.55448394 -17.75258701 114.76311534 -37.3125 115.375 C-53.69306037 115.09084742 -69.92312491 108.89146869 -81.75390625 97.44921875 C-95.38713812 82.58306852 -100.81342312 67.09456378 -100 47 C-97.03 45.68 -94.06 44.36 -91 43 C-90.98582031 44.14855469 -90.97164062 45.29710937 -90.95703125 46.48046875 C-90.56583884 61.95597366 -87.12598233 73.60784318 -76.125 84.9296875 C-65.91558971 94.52159314 -54.02578551 97.62901159 -40.30078125 97.31640625 C-29.19854546 96.73182058 -16.68051776 91.17076357 -9 83 C1.15499894 70.52894867 4.15727951 57.94111773 3 42 C0.35634243 30.12620086 -6.29865106 20.21116311 -16 13 C-17.98728644 11.7929978 -19.84373721 10.88462063 -22 10 C-22 9.34 -22 8.68 -22 8 C-19.28348686 6.45570235 -16.55013724 4.94398394 -13.8125 3.4375 C-13.04357422 2.99986328 -12.27464844 2.56222656 -11.48242188 2.11132812 C-4.29856544 -1.80433611 -4.29856544 -1.80433611 0 0 Z " fill="#F6F5F3" transform="translate(645,419)"/>
<path d="M0 0 C1.38950696 0.64811104 2.75908676 1.34011485 4.109375 2.06640625 C4.86347656 2.46923828 5.61757813 2.87207031 6.39453125 3.28710938 C7.56048828 3.91842773 7.56048828 3.91842773 8.75 4.5625 C9.54277344 4.98724609 10.33554687 5.41199219 11.15234375 5.84960938 C13.10371067 6.89582417 15.05279814 7.94605953 17 9 C14.88901094 11.15585638 12.7924 12.90466369 10.3125 14.625 C1.8876852 20.92812431 -3.36335892 28.15015026 -7 38 C-7.24621094 38.66644531 -7.49242187 39.33289063 -7.74609375 40.01953125 C-11.285874 51.61536309 -8.88793069 63.07460282 -3.6796875 73.69140625 C2.88735195 85.44389489 12.89661416 93.34221912 25.8125 97.4375 C42.28024293 100.58420247 56.13137694 96.24574871 69.8125 87.125 C79.69083118 77.52890685 85.02486543 65.22806429 85.625 51.5625 C85.66367187 50.83095703 85.70234375 50.09941406 85.7421875 49.34570312 C85.83533984 47.56416468 85.91870286 45.78211878 86 44 C88.97 44.66 91.94 45.32 95 46 C95.42841857 58.99536316 94.06423138 70.95401274 89 83 C88.34 83 87.68 83 87 83 C86.62875 84.07121094 86.62875 84.07121094 86.25 85.1640625 C80.87552504 97.35740256 69.55333157 104.85168159 57.7421875 109.9375 C43.32610952 115.52321683 27.04113912 117.47868686 12 113 C11.15824219 112.76667969 10.31648438 112.53335938 9.44921875 112.29296875 C-6.62038287 107.19999805 -18.8844784 96.61198652 -27 82 C-28.59338067 78.73178788 -29.86643114 75.4531866 -31 72 C-31.44859375 70.66582031 -31.44859375 70.66582031 -31.90625 69.3046875 C-36.36452775 54.15479921 -34.9404799 38.44038689 -27.875 24.375 C-23.46882578 16.62716845 -10.3751678 -3.36610746 0 0 Z " fill="#F6F5F4" transform="translate(385,419)"/>
<path d="M0 0 C8.10445888 4.52933651 15.35913662 10.68020178 18.484375 19.6953125 C20.38903631 30.62806842 19.41496319 40.28969676 13.125 49.5 C12.7125 49.974375 12.3 50.44875 11.875 50.9375 C11.215 47.9675 10.555 44.9975 9.875 41.9375 C5.8649066 41.75885369 5.8649066 41.75885369 1.875 41.9375 C-0.405721 43.81174716 -0.405721 43.81174716 -0.5 46.8125 C-0.04217023 50.6277481 0.9255426 51.57793408 3.875 53.9375 C4.865 54.5975 5.855 55.2575 6.875 55.9375 C5.48633677 56.9268091 4.08870149 57.90353078 2.6875 58.875 C1.91019531 59.42027344 1.13289062 59.96554687 0.33203125 60.52734375 C-7.23058477 64.86773228 -19.34170252 63.98258629 -27.5625 61.8125 C-37.16330034 58.37340734 -42.71578657 51.80738668 -47.16015625 42.8515625 C-49.88879545 36.02361883 -51.00010215 26.38458134 -48.10546875 19.51953125 C-47.78191406 18.99746094 -47.45835937 18.47539062 -47.125 17.9375 C-45.125 18.9375 -45.125 18.9375 -43.8125 21.75 C-41.90585389 25.35144265 -40.67233501 26.93248456 -37.125 28.9375 C-31.48804206 29.86483689 -26.93575202 29.14466801 -22.125 25.9375 C-18.52115168 22.0232724 -18.58085276 18.76986222 -18.68359375 13.6328125 C-19.35442898 9.536562 -21.27568949 7.85986975 -24.125 4.9375 C-23.00323088 1.57219263 -22.67011927 1.31632521 -19.6875 -0.25 C-12.89696995 -3.37291756 -6.74665712 -3.12498535 0 0 Z " fill="#1E1A18" transform="translate(617.125,439.0625)"/>
<path d="M0 0 C4.79419413 2.00795793 9.32022777 4.37977474 13.87744141 6.87109375 C15.97977072 7.98924083 18.10686154 9.01860114 20.26171875 10.03125 C31.51843553 15.41077851 31.51843553 15.41077851 33.4375 19.5 C33.84375 21.47265625 33.84375 21.47265625 34 24 C34.0928125 25.23621094 34.185625 26.47242188 34.28125 27.74609375 C34.65289762 35.40510909 34.39655958 42.42120646 30 49 C29.34 49.66 28.68 50.32 28 51 C27.360625 50.030625 26.72125 49.06125 26.0625 48.0625 C24.3034741 45.23963731 24.3034741 45.23963731 23 44 C20.66055264 44.28730055 18.3260857 44.61936779 16 45 C14.83842991 49.56561032 14.83842991 49.56561032 16.0625 53.875 C18.64639628 55.37532687 21.05380252 55.67264472 24 56 C24 56.66 24 57.32 24 58 C13.84301558 64.0372356 4.44801821 67.77616772 -7.47265625 65.53515625 C-16.10607569 63.28005905 -24.14100077 58.68360778 -29 51 C-29.46535156 50.27683594 -29.93070312 49.55367188 -30.41015625 48.80859375 C-33.74865202 42.71746637 -34.46413741 37.26086447 -34.5 30.4375 C-34.50620361 29.63924805 -34.51240723 28.84099609 -34.51879883 28.01855469 C-34.46875 25.74609375 -34.46875 25.74609375 -34 22 C-33.01 21.34 -32.02 20.68 -31 20 C-30.52820313 20.93972656 -30.52820313 20.93972656 -30.046875 21.8984375 C-29.61890625 22.71570313 -29.1909375 23.53296875 -28.75 24.375 C-28.33234375 25.18710937 -27.9146875 25.99921875 -27.484375 26.8359375 C-25.8082422 29.27956269 -24.77483802 30.03551169 -22 31 C-16.44758558 31.77733802 -11.65121971 31.3222998 -7 28 C-3.66810784 23.33535098 -3.09491027 18.56424482 -4 13 C-6.63573184 8.15025342 -10.02714274 6.81700554 -15 5 C-15 4.34 -15 3.68 -15 3 C-10.04945182 -0.04649119 -5.68547338 -1.23079382 0 0 Z " fill="#1E1A17" transform="translate(424,438)"/>
<path d="M0 0 C0.83789062 -0.00322266 1.67578125 -0.00644531 2.5390625 -0.00976562 C17.7539789 0.11977314 31.15143134 5.54948787 42 16.3125 C49.40851166 25.08428797 53.52063643 33.83174248 54 45.3125 C48.67748765 43.66068582 43.73743862 41.73562219 38.6875 39.375 C14.84537007 29.07252791 -11.15576186 30.19547744 -35.04492188 39.51904297 C-38.75738657 41.02572507 -42.39255407 42.68018274 -45.99609375 44.4296875 C-48 45.3125 -48 45.3125 -50 45.3125 C-49.03080408 32.22835513 -42.73039215 21.23348751 -33.33203125 12.23046875 C-23.39329865 4.05640224 -12.78963511 -0.24595452 0 0 Z " fill="#EB5A32" transform="translate(510,618.6875)"/>
<path d="M0 0 C0.79164551 0.00563965 1.58329102 0.0112793 2.39892578 0.01708984 C16.05993886 0.29758635 29.25332116 4.62601589 39.10546875 14.40625 C40.72081346 16.95734456 40.96642783 19.34378454 41.3125 22.3125 C39.39592203 22.34032129 37.4792152 22.35925234 35.5625 22.375 C34.49515625 22.38660156 33.4278125 22.39820313 32.328125 22.41015625 C29.1398666 22.38347975 26.00572746 22.11598819 22.83203125 21.81640625 C16.14013989 21.22907767 9.48168847 21.16090782 2.7668457 21.18212891 C0.74878465 21.18750324 -1.26905487 21.18213887 -3.28710938 21.17578125 C-10.04927131 21.1824402 -16.69405402 21.38875064 -23.42016602 22.08984375 C-26.07986743 22.35103118 -28.70353176 22.41371693 -31.375 22.375 C-32.20386719 22.36597656 -33.03273438 22.35695313 -33.88671875 22.34765625 C-34.77810547 22.33025391 -34.77810547 22.33025391 -35.6875 22.3125 C-35.6875 17.81077244 -34.29822021 15.48101941 -31.3125 12.3125 C-22.44698855 4.00406737 -12.06714753 -0.09038095 0 0 Z " fill="#F7F5F4" transform="translate(509.6875,538.6875)"/>
<path d="M0 0 C0.66 0 1.32 0 2 0 C2.20753906 0.556875 2.41507813 1.11375 2.62890625 1.6875 C6.59325775 11.50714889 12.3279394 17.63257729 22 22 C22.99 22.33 23.98 22.66 25 23 C25 23.99 25 24.98 25 26 C24.33613281 26.24234375 23.67226563 26.4846875 22.98828125 26.734375 C13.74102039 30.24428423 8.91730856 34.39842401 4 43 C2.63206325 46.33726377 2.63206325 46.33726377 2 49 C0.515 48.505 0.515 48.505 -1 48 C-1.88671875 45.99609375 -1.88671875 45.99609375 -2.6875 43.4375 C-5.25653318 36.66106909 -9.21721278 31.90755937 -15.7421875 28.6171875 C-18.14146997 27.64524021 -20.52920404 26.76959219 -23 26 C-23 25.01 -23 24.02 -23 23 C-22.443125 22.79246094 -21.88625 22.58492187 -21.3125 22.37109375 C-9.88825847 17.75894219 -4.85434544 11.19809232 0 0 Z " fill="#DCEED9" transform="translate(967,943)"/>
<path d="M0 0 C3.15513357 2.07951985 4.88159747 3.50686475 6.75 6.8125 C7.67733689 12.44945794 6.95716801 17.00174798 3.75 21.8125 C-0.44151516 25.61106062 -4.48690644 26.17500965 -9.96484375 26.0859375 C-13.63150107 25.64719218 -15.5724647 24.29878278 -18.25 21.8125 C-20.91453154 17.10516094 -22.11430023 13.19036812 -21.25 7.8125 C-16.1565933 -0.3138738 -9.23680165 -3.37498522 0 0 Z " fill="#F5F4F5" transform="translate(414.25,444.1875)"/>
<path d="M0 0 C3.21011484 1.57259558 5.19302205 3.7060744 6.73828125 6.8515625 C7.61190681 11.95144506 7.59903715 16.26247469 5.11328125 20.8515625 C0.37524134 24.84149084 -3.836082 26.54457388 -10.01171875 26.3359375 C-14.08962491 25.45805492 -16.64453582 22.98920794 -19.26171875 19.8515625 C-21.11279906 16.55181065 -21.95511696 13.61572419 -21.26171875 9.8515625 C-19.17578125 8.4375 -19.17578125 8.4375 -16.26171875 6.8515625 C-14.57369141 5.93117188 -14.57369141 5.93117188 -12.8515625 4.9921875 C-11.63526354 4.35976453 -10.4177943 3.72958765 -9.19921875 3.1015625 C-8.58755859 2.77285156 -7.97589844 2.44414062 -7.34570312 2.10546875 C-2.86942471 -0.18832148 -2.86942471 -0.18832148 0 0 Z " fill="#F4F3F2" transform="translate(592.26171875,443.1484375)"/>
<path d="M0 0 C1.32 0.33 2.64 0.66 4 1 C4.10957031 1.83144531 4.21914063 2.66289062 4.33203125 3.51953125 C4.49058594 4.60621094 4.64914062 5.69289063 4.8125 6.8125 C4.96332031 7.89144531 5.11414063 8.97039062 5.26953125 10.08203125 C6.01612403 13.06440991 6.62075684 14.14223479 9 16 C8.21625 16.886875 7.4325 17.77375 6.625 18.6875 C2.87834179 23.82456112 2.6213712 29.832659 2 36 C-3.73179407 29.69502652 -4.36139513 23.09361858 -4.375 14.9375 C-4.39949219 14.16083984 -4.42398438 13.38417969 -4.44921875 12.58398438 C-4.47705151 7.10557 -3.45309995 4.26519263 0 0 Z " fill="#D06F21" transform="translate(533,425)"/>
<path d="M0 0 C2.81768907 0.29148508 3.82551794 0.80217453 5.72265625 2.953125 C7.5266176 7.25615208 7.47509425 11.12932446 7.4375 15.75 C7.45748047 16.6059375 7.47746094 17.461875 7.49804688 18.34375 C7.49322822 24.7043741 5.98876191 29.40784906 3 35 C2.67 35 2.34 35 2 35 C1.91363281 34.443125 1.82726562 33.88625 1.73828125 33.3125 C0.62404082 27.26084557 -1.5372459 23.03124899 -5 18 C-5.33 17.34 -5.66 16.68 -6 16 C-5.04867188 15.20335937 -5.04867188 15.20335937 -4.078125 14.390625 C-1.53954807 11.47030718 -1.24589772 9.55188248 -0.75 5.75 C-0.60046875 4.67234375 -0.4509375 3.5946875 -0.296875 2.484375 C-0.19890625 1.66453125 -0.1009375 0.8446875 0 0 Z " fill="#CC6A21" transform="translate(488,424)"/>
<path d="M0 0 C0.99 0 1.98 0 3 0 C3.71484375 1.61328125 3.71484375 1.61328125 4 4 C-0.3812624 13.32422511 -7.54869211 24.38739998 -17 29 C-17.99 28.67 -18.98 28.34 -20 28 C-19.34 26.68 -18.68 25.36 -18 24 C-17.34 24 -16.68 24 -16 24 C-16 23.34 -16 22.68 -16 22 C-15.01 21.67 -14.02 21.34 -13 21 C-12.34 20.34 -11.68 19.68 -11 19 C-9.96875 18.21625 -8.9375 17.4325 -7.875 16.625 C-6.92625 15.75875 -5.9775 14.8925 -5 14 C-5 12.68 -5 11.36 -5 10 C-3.90625 7.421875 -3.90625 7.421875 -2.5 4.75 C-2.0359375 3.85796875 -1.571875 2.9659375 -1.09375 2.046875 C-0.7328125 1.37140625 -0.371875 0.6959375 0 0 Z M-23 27 C-21 28 -21 28 -20 30 C-27.42857143 33.28571429 -27.42857143 33.28571429 -31 34 C-28.47211993 31.20127563 -26.79588866 29.54226981 -23 29 C-23 28.34 -23 27.68 -23 27 Z " fill="#FBBB3C" transform="translate(674,498)"/>
<path d="M0 0 C2.7912125 1.98322993 3.82597224 3.12986121 4.5 6.5 C3.82597224 9.87013879 2.7912125 11.01677007 0 13 C-3.0625 13.5 -3.0625 13.5 -6 13 C-8.59814888 10.74827097 -8.95716454 9.34982295 -9.375 5.9375 C-9 3 -9 3 -7.875 1.125 C-5.07553259 -0.55468045 -3.20195936 -0.45742277 0 0 Z " fill="#EBEAEA" transform="translate(625,480)"/>
<path d="M0 0 C2.375 1.5625 2.375 1.5625 4 4 C3.9375 7.625 3.9375 7.625 3 11 C0 13 0 13 -3.5625 12.8125 C-7 12 -7 12 -9 9 C-8.8125 5.4375 -8.8125 5.4375 -8 2 C-4.75173326 -0.16551116 -3.76905843 -0.55156953 0 0 Z " fill="#ECEBEB" transform="translate(447,481)"/>
<path d="M0 0 C-1.30130952 4.1765839 -2.88242482 7.98276765 -4.875 11.875 C-5.4009375 12.90882813 -5.926875 13.94265625 -6.46875 15.0078125 C-7.22671875 16.48894531 -7.22671875 16.48894531 -8 18 C-8.79360169 19.58236434 -9.58558959 21.16554054 -10.375 22.75 C-10.91125 23.8225 -11.4475 24.895 -12 26 C-12.66 26 -13.32 26 -14 26 C-14.12117188 26.61488281 -14.24234375 27.22976563 -14.3671875 27.86328125 C-14.53476562 28.67152344 -14.70234375 29.47976563 -14.875 30.3125 C-15.03742188 31.11300781 -15.19984375 31.91351563 -15.3671875 32.73828125 C-16 35 -16 35 -18 38 C-16.88697999 28.39867357 -13.4600387 19.31803597 -8.90625 10.81640625 C-7.88878443 8.77708948 -7.13281704 6.71091132 -6.375 4.5625 C-4.70510896 0.23596413 -4.50241629 0 0 0 Z " fill="#F4E189" transform="translate(271,391)"/>
<path d="M0 0 C2.82152715 3.52468376 4.98269186 7.32679708 7.1875 11.25 C7.55552734 11.8996875 7.92355469 12.549375 8.30273438 13.21875 C9.20428903 14.81110627 10.10248417 16.4053638 11 18 C10.34 18 9.68 18 9 18 C9.33 19.32 9.66 20.64 10 22 C3.63825841 17.81942696 -0.41642131 10.39003389 -2 3 C-1.34 2.01 -0.68 1.02 0 0 Z " fill="#FCBE3C" transform="translate(349,497)"/>
<path d="M0 0 C0.33 0.99 0.66 1.98 1 3 C-0.32 4.32 -1.64 5.64 -3 7 C-1.35 7 0.3 7 2 7 C1.47731534 9.76276177 0.89130413 12.3260876 0 15 C-1.32 15 -2.64 15 -4 15 C-4.103125 14.38125 -4.20625 13.7625 -4.3125 13.125 C-4.87525373 10.63473516 -4.87525373 10.63473516 -8 9 C-7.54625 8.566875 -7.0925 8.13375 -6.625 7.6875 C-4.79975666 5.89201658 -4.79975666 5.89201658 -3 3 C-2.01904252 1.98131338 -1.02297922 0.97648017 0 0 Z " fill="#5F3124" transform="translate(455,484)"/>
<path d="M0 0 C1.57587891 0.30744141 1.57587891 0.30744141 3.18359375 0.62109375 C10.4432316 2.02030252 17.62790642 3.34177736 25 4 C25 4.33 25 4.66 25 5 C19.51580522 5.10919857 14.04056489 5.03691448 8.5625 4.75 C7.57378906 4.70359375 6.58507812 4.6571875 5.56640625 4.609375 C3 4 3 4 1.15234375 1.953125 C0.77207031 1.30859375 0.39179688 0.6640625 0 0 Z " fill="#B2CEA7" transform="translate(442,763)"/>
<path d="M0 0 C0.33 0 0.66 0 1 0 C0.47606294 5.86809507 -0.76108858 10.54873741 -3 16 C-3.99 15.67 -4.98 15.34 -6 15 C-4.40109514 9.80355921 -2.25861997 4.93387858 0 0 Z " fill="#F5A234" transform="translate(770,588)"/>
<path d="M0 0 C0.33 0.99 0.66 1.98 1 3 C0.01 3 -0.98 3 -2 3 C-2.34055197 6.24565858 -2.34055197 6.24565858 0.5 8.6875 C1.325 9.450625 2.15 10.21375 3 11 C-1 9 -5 7 -9 5 C-2.40909091 0 -2.40909091 0 0 0 Z " fill="#D07938" transform="translate(650,413)"/>
<path d="M0 0 C0.66 0.33 1.32 0.66 2 1 C-4.29781636 8.3315005 -4.29781636 8.3315005 -8.9375 8.9375 C-9.948125 8.958125 -10.95875 8.97875 -12 9 C-8.46884205 6.09198757 -4.81808688 3.51646635 -1 1 C-0.67 0.67 -0.34 0.34 0 0 Z " fill="#FCDB6D" transform="translate(459,518)"/>
<path d="M0 0 C1.109375 1.68359375 1.109375 1.68359375 2 4 C1.390625 6.47265625 1.390625 6.47265625 0.25 9.0625 C-0.29914062 10.34833984 -0.29914062 10.34833984 -0.859375 11.66015625 C-2 14 -2 14 -4 17 C-3.21450457 11.18733381 -1.59317541 5.63122376 0 0 Z " fill="#DA8041" transform="translate(673,481)"/>
<path d="M0 0 C-1.28519565 2.86697492 -2.57129254 4.97607712 -5 7 C-5.66 7 -6.32 7 -7 7 C-6.22006468 2.47637516 -4.81844319 0 0 0 Z " fill="#E2CBBD" transform="translate(395,438)"/>
<path d="M0 0 C0.99 0 1.98 0 3 0 C1.84414715 3.91211733 0.64465038 6.8745041 -2 10 C-1.85950482 8.52031676 -1.71245174 7.04125484 -1.5625 5.5625 C-1.48128906 4.73878906 -1.40007812 3.91507812 -1.31640625 3.06640625 C-1 1 -1 1 0 0 Z " fill="#FDDF7A" transform="translate(268,391)"/>
<path d="M0 0 C0.625 1.8125 0.625 1.8125 1 4 C0.01 5.485 0.01 5.485 -1 7 C-2.32 7 -3.64 7 -5 7 C-3.75023244 3.34683329 -3.32901247 2.21934164 0 0 Z " fill="#E8DBD2" transform="translate(633,491)"/>
<path d="M0 0 C2.86724686 0.57344937 3.8614515 0.8614515 6 3 C5.34 3 4.68 3 4 3 C4 3.99 4 4.98 4 6 C2.68 5.34 1.36 4.68 0 4 C0 2.68 0 1.36 0 0 Z " fill="#9C6554" transform="translate(626,431)"/>
<path d="M0 0 C0.66 0.66 1.32 1.32 2 2 C-0.64 4.97 -3.28 7.94 -6 11 C-6 7.39426104 -5.18292538 6.58663434 -3 3.8125 C-2.443125 3.09707031 -1.88625 2.38164062 -1.3125 1.64453125 C-0.879375 1.10183594 -0.44625 0.55914062 0 0 Z " fill="#FCDB74" transform="translate(471,504)"/>
<path d="M0 0 C0.66 0 1.32 0 2 0 C1.75 2.375 1.75 2.375 1 5 C-1.0625 6.3125 -1.0625 6.3125 -3 7 C-2.25 2.25 -2.25 2.25 0 0 Z " fill="#EADACF" transform="translate(455,491)"/>
<path d="M0 0 C0.66 0 1.32 0 2 0 C2.66 2.97 3.32 5.94 4 9 C3.34 9 2.68 9 2 9 C0.4375 6.1875 0.4375 6.1875 -1 3 C-0.67 2.01 -0.34 1.02 0 0 Z " fill="#FDCF45" transform="translate(345,490)"/>
<path d="M0 0 C0.33 1.32 0.66 2.64 1 4 C-1.97 6.475 -1.97 6.475 -5 9 C-3.7508258 5.54074837 -2.32472205 2.85306797 0 0 Z " fill="#C4D6AE" transform="translate(741,652)"/>
<path d="M0 0 C0.99 0.33 1.98 0.66 3 1 C2.34 2.65 1.68 4.3 1 6 C1.99 5.67 2.98 5.34 4 5 C4 5.66 4 6.32 4 7 C2.68 7 1.36 7 0 7 C-0.38133299 5.0085944 -0.71325582 3.00720923 -1 1 C-0.67 0.67 -0.34 0.34 0 0 Z " fill="#914F38" transform="translate(451,492)"/>
</svg>
