<?xml version="1.0" encoding="UTF-8"?>
<svg version="1.1" xmlns="http://www.w3.org/2000/svg" width="1024" height="1024">
<path d="M0 0 C337.92 0 675.84 0 1024 0 C1024 337.92 1024 675.84 1024 1024 C686.08 1024 348.16 1024 0 1024 C0 686.08 0 348.16 0 0 Z " fill="#ABDBD0" transform="translate(0,0)"/>
<path d="M0 0 C1.22319443 -0.00392761 1.22319443 -0.00392761 2.47109985 -0.00793457 C25.2272687 -0.01570393 48.11944649 2.31014398 70.125 8.3125 C71.05747559 8.56402832 71.98995117 8.81555664 72.95068359 9.07470703 C106.9596342 18.35677985 138.75857577 33.34053244 167.125 54.3125 C167.73005371 54.75770996 168.33510742 55.20291992 168.95849609 55.66162109 C175.85739465 60.76467733 182.37353147 66.1818224 188.65625 72.03125 C190.70544082 73.92480608 192.7924028 75.7184786 194.9375 77.5 C205.97334541 87.1337503 215.36841575 98.62164198 224.125 110.3125 C224.85460937 111.28058594 225.58421875 112.24867188 226.3359375 113.24609375 C242.63430023 135.2582503 259.35148313 162.18055488 266.38671875 188.93359375 C267.12764347 191.49572921 267.12764347 191.49572921 268.58203125 194.5234375 C270.42098228 198.7252235 271.26227401 203.01246978 272.125 207.5 C272.46436161 209.19046333 272.80550618 210.88056971 273.1484375 212.5703125 C273.31311523 213.3840332 273.47779297 214.19775391 273.64746094 215.03613281 C274.44732507 218.84898209 275.41558496 222.61405859 276.4140625 226.37890625 C276.76597656 227.83103516 276.76597656 227.83103516 277.125 229.3125 C277.29636475 229.97088867 277.46772949 230.62927734 277.64428711 231.30761719 C279.51327608 239.29064371 279.4785602 247.28654486 279.4375 255.4375 C279.43476578 256.55899948 279.43476578 256.55899948 279.43197632 257.70315552 C279.35282265 277.06073918 277.27109616 295.55103756 271.75146484 314.14794922 C271.15892209 316.19529295 270.62691721 318.24806323 270.11328125 320.31640625 C260.37230969 358.21916419 237.1023533 394.33166383 210.125 422.3125 C209.46048828 423.00424316 208.79597656 423.69598633 208.11132812 424.40869141 C198.66615688 434.18878287 189.12877379 443.31640318 178.125 451.3125 C177.5479834 451.73966309 176.9709668 452.16682617 176.37646484 452.60693359 C164.33980601 461.51744613 151.77437928 469.20634787 138.46826172 476.05004883 C136.62132206 477.00189548 134.78131484 477.96628662 132.94140625 478.93164062 C125.19619064 482.9579213 117.33786727 486.33795234 109.125 489.3125 C107.69605539 489.85530102 106.26758525 490.39935478 104.83984375 490.9453125 C82.28339219 499.24684567 58.9716462 503.62803968 35.125 506.3125 C33.871427 506.45606934 33.871427 506.45606934 32.5925293 506.60253906 C24.63317633 507.42538648 16.6842247 507.55251338 8.6875 507.5625 C7.97577637 507.56417175 7.26405273 507.56584351 6.53076172 507.56756592 C-10.26540357 507.56990548 -27.34970115 506.70105415 -43.73876953 502.8125 C-45.95705612 502.29329418 -48.18087608 501.84852693 -50.41796875 501.41796875 C-59.13317649 499.71019641 -67.33276121 497.69328719 -75.640625 494.515625 C-78.73533486 493.36445273 -81.82127126 492.44996234 -85 491.5625 C-100.76433491 486.80817677 -116.82815246 478.88627954 -130.875 470.3125 C-132.15061412 469.56437469 -133.426703 468.8170586 -134.703125 468.0703125 C-161.85627047 451.99762628 -187.73370157 430.52214485 -206.875 405.3125 C-207.80170476 404.1260063 -208.72881655 402.93983044 -209.65625 401.75390625 C-221.11831109 386.9438397 -231.00043312 371.30929241 -238.875 354.3125 C-239.2045166 353.61334473 -239.5340332 352.91418945 -239.87353516 352.19384766 C-248.21482183 334.43021802 -254.49474871 316.3954387 -258.30761719 297.12695312 C-258.67570842 295.30106858 -259.06326823 293.47896006 -259.47363281 291.66210938 C-262.92771192 276.34205312 -263.27126648 261.19981501 -263.3125 245.5625 C-263.3186734 244.57033478 -263.3248468 243.57816956 -263.33120728 242.55593872 C-263.40326552 224.53188264 -261.47596851 207.09064854 -257.5 189.5 C-257.28722412 188.54335449 -257.07444824 187.58670898 -256.85522461 186.60107422 C-254.97078854 178.34115914 -252.63316821 170.32233193 -249.875 162.3125 C-249.63104492 161.59304199 -249.38708984 160.87358398 -249.13574219 160.13232422 C-246.38230896 152.03121287 -243.5399769 144.05281802 -239.875 136.3125 C-238.95636452 134.29256089 -238.03976025 132.27169702 -237.125 130.25 C-236.37537868 128.60399416 -235.62551581 126.95809818 -234.875 125.3125 C-233.885 125.3125 -232.895 125.3125 -231.875 125.3125 C-231.81441406 124.61511719 -231.75382812 123.91773438 -231.69140625 123.19921875 C-230.61475227 119.3922939 -228.40165524 117.00241194 -225.8125 114.125 C-224.79565252 112.9633085 -223.78003441 111.80053982 -222.765625 110.63671875 C-222.26740234 110.06872559 -221.76917969 109.50073242 -221.25585938 108.91552734 C-219.44644413 106.8149933 -217.75440903 104.63330367 -216.0625 102.4375 C-212.41010337 97.83197273 -208.4870831 93.50242003 -204.5 89.1875 C-203.88020264 88.51090332 -203.26040527 87.83430664 -202.62182617 87.13720703 C-202.03763916 86.51185059 -201.45345215 85.88649414 -200.8515625 85.2421875 C-200.06386475 84.39503174 -200.06386475 84.39503174 -199.26025391 83.53076172 C-197.875 82.3125 -197.875 82.3125 -195.875 82.3125 C-195.875 81.6525 -195.875 80.9925 -195.875 80.3125 C-194.58203125 78.97265625 -194.58203125 78.97265625 -192.6875 77.375 C-191.57955078 76.43720703 -191.57955078 76.43720703 -190.44921875 75.48046875 C-189.59972656 74.76503906 -188.75023437 74.04960937 -187.875 73.3125 C-186.49248047 72.10013672 -186.49248047 72.10013672 -185.08203125 70.86328125 C-167.343408 55.3815682 -147.83915956 42.79323674 -127 31.9375 C-125.85861572 31.34203369 -124.71723145 30.74656738 -123.54125977 30.13305664 C-117.79252828 27.17962225 -112.05594382 24.45566047 -106.02099609 22.14013672 C-104.21626811 21.44411535 -102.43980959 20.67541548 -100.671875 19.890625 C-77.20299285 9.66059945 -51.51960547 5.66575057 -26.38476562 1.84985352 C-24.21282703 1.51732452 -22.04455383 1.15820649 -19.88427734 0.75683594 C-13.32699735 -0.21138162 -6.61971949 0.02022529 0 0 Z " fill="#FACA4A" transform="translate(503.875,263.6875)"/>
<path d="M0 0 C-3.47325181 1.1577506 -6.36067448 1.06866652 -10 1 C-10 1.66 -10 2.32 -10 3 C-8.81639893 2.97643433 -8.81639893 2.97643433 -7.60888672 2.95239258 C11.05207605 2.63752371 29.56332328 3.14130305 48.1875 4.375 C49.16342102 4.43821442 50.13934204 4.50142883 51.14483643 4.56655884 C61.47503467 5.24508742 71.70312083 6.11266374 81.95385742 7.58056641 C86.59384613 8.21946202 91.20178952 8.43589114 95.87890625 8.65625 C101.95838518 9.06755341 107.97709363 10.10811625 114 11 C115.87498169 11.26490234 115.87498169 11.26490234 117.7878418 11.53515625 C145.36525236 15.43346942 145.36525236 15.43346942 158 19 C158.81025635 19.22461914 159.6205127 19.44923828 160.45532227 19.68066406 C165.7447417 21.28116506 170.69180738 23.47321911 175 27 C175.8125 29.5625 175.8125 29.5625 175 32 C167.61340833 40.4054319 152.49349438 41.79589677 142 44 C141.19723633 44.17031738 140.39447266 44.34063477 139.56738281 44.51611328 C124.10536449 47.73006038 108.57200255 49.31257234 92.85888672 50.67456055 C90.15168767 50.91005233 90.15168767 50.91005233 88.18614197 51.49128723 C85.50220121 52.11583722 82.91362692 52.28982945 80.1628418 52.46484375 C78.98187424 52.54162354 77.80090668 52.61840332 76.58415222 52.69750977 C75.30212418 52.77670654 74.02009613 52.85590332 72.69921875 52.9375 C71.34429247 53.02316754 69.98937834 53.10902753 68.63447571 53.19506836 C65.77559135 53.37570426 62.91654889 53.55353239 60.05737305 53.72949219 C56.49421134 53.94904745 52.93157144 54.17601828 49.36901665 54.40518188 C33.46003849 55.42441126 17.56453927 56.24568989 1.62736511 56.65844727 C-4.38459638 56.81940086 -10.3639784 57.07656831 -16.36230469 57.51904297 C-24.42632102 58.0840251 -32.45736547 58.14547958 -40.53515625 58.1328125 C-42.10420242 58.13349044 -43.67324849 58.13446447 -45.24229431 58.13571167 C-48.52408859 58.13717567 -51.80585544 58.135083 -55.08764648 58.13037109 C-59.16662742 58.12478208 -63.24554165 58.12800774 -67.32452011 58.1337862 C-103.78252559 58.17818788 -140.07078216 57.03511947 -176.45556641 54.73010254 C-180.05464241 54.50413165 -183.65418463 54.28612917 -187.25374222 54.06798649 C-233.54651818 51.25674087 -233.54651818 51.25674087 -247.5078125 48.4296875 C-250.29992873 47.94828815 -253.04810805 47.74606441 -255.875 47.5625 C-261.16909395 47.16984342 -266.09290787 46.16139744 -271.23828125 44.8828125 C-274.99107092 44.00209551 -278.74948615 43.27383245 -282.53710938 42.56347656 C-302.2758609 38.83245979 -302.2758609 38.83245979 -309 33 C-309.75 30.125 -309.75 30.125 -309 27 C-301.14344719 19.2327262 -287.13519408 17.36525165 -276.75 15.4375 C-275.76515625 15.24220703 -274.7803125 15.04691406 -273.765625 14.84570312 C-254.35187947 11.15757201 -234.52975899 9.38861895 -214.875 7.5 C-213.77766541 7.3939444 -212.68033081 7.28788879 -211.54974365 7.17861938 C-191.76476719 5.29436112 -171.97347745 4.10897782 -152.125 3.1875 C-151.09993473 3.13980972 -151.09993473 3.13980972 -150.05416107 3.09115601 C-117.8750491 1.6020186 -117.8750491 1.6020186 -112.8125 2.875 C-78.6110081 9.97916746 -39.70897952 7.33137078 -5.91015625 -0.765625 C-3.70174092 -1.03659621 -2.10921791 -0.66060516 0 0 Z " fill="#A4CBAD" transform="translate(582,764)"/>
<path d="M0 0 C1.94951965 3.34145752 2.45215573 6.28474702 2.89453125 10.109375 C3.042854 11.3277002 3.19117676 12.54602539 3.34399414 13.80126953 C3.49860107 15.10435059 3.65320801 16.40743164 3.8125 17.75 C5.49958107 31.3366865 7.9069753 44.6562704 11 58 C11.15887695 58.68835938 11.31775391 59.37671875 11.48144531 60.0859375 C12.74510449 65.49428469 14.21166243 70.74166006 16 76 C16.22679443 76.6801416 16.45358887 77.3602832 16.68725586 78.06103516 C28.94270972 114.71293356 47.92497507 148.04863023 74.4921875 176.28125 C76.26729491 178.20566551 77.94457858 180.12229851 79.59765625 182.14453125 C81.51062811 184.41832382 83.29667817 186.29678066 85.5625 188.1875 C87.94236927 190.20598171 90.25629256 192.24435346 92.515625 194.3984375 C105.33016678 206.60446752 119.91385346 216.79600992 135 226 C135.6408252 226.39638672 136.28165039 226.79277344 136.94189453 227.20117188 C164.5273912 244.20747471 194.72277811 256.19706763 226.70556641 261.58056641 C228.86366075 261.97507652 230.974347 262.46192435 233.10546875 262.98046875 C248.53155053 266.39428803 264.02541378 266.40099355 279.75 266.375 C280.92608826 266.37478851 282.10217651 266.37457703 283.31390381 266.37435913 C300.84879104 266.3428554 317.82260073 265.83410231 335 262 C336.29671631 261.71116943 336.29671631 261.71116943 337.61962891 261.41650391 C342.34860447 260.32182517 347.00891837 259.05901177 351.66210938 257.6796875 C354.18724484 256.9455629 356.72353346 256.26671096 359.265625 255.59375 C369.60613859 252.81937492 379.29297919 249.49000306 388.97705078 244.93408203 C391.13503874 243.93764685 393.31094411 242.99388813 395.49609375 242.05859375 C405.06584711 237.94874723 414.09222211 233.42021834 423 228 C423.64179199 227.61585938 424.28358398 227.23171875 424.94482422 226.8359375 C434.46646331 221.12801752 443.34054437 214.93903398 452 208 C452.85980469 207.33355469 453.71960938 206.66710937 454.60546875 205.98046875 C460.3412774 201.50307281 465.71961427 196.68705103 471.04296875 191.734375 C473.75673948 189.21084252 476.53064407 186.76087092 479.3125 184.3125 C482.85512511 181.12976061 486.04683067 177.84522995 489.10546875 174.19921875 C490.95192509 172.05580655 492.88785082 170.02022251 494.84619141 167.97949219 C509.54737672 152.48572123 519.66029741 133.53246134 528 114 C528.33 114 528.66 114 529 114 C526.51442614 134.31576188 514.86048131 155.87711128 504 173 C503.56075195 173.69254883 503.12150391 174.38509766 502.66894531 175.09863281 C493.01514978 190.17737777 482.43982449 204.09744847 470 217 C469.33548828 217.69174316 468.67097656 218.38348633 467.98632812 219.09619141 C458.54115688 228.87628287 449.00377379 238.00390318 438 246 C437.4229834 246.42716309 436.8459668 246.85432617 436.25146484 247.29443359 C424.21480601 256.20494613 411.64937928 263.89384787 398.34326172 270.73754883 C396.49632206 271.68939548 394.65631484 272.65378662 392.81640625 273.61914062 C385.07119064 277.6454213 377.21286727 281.02545234 369 284 C367.57105539 284.54280102 366.14258525 285.08685478 364.71484375 285.6328125 C342.15839219 293.93434567 318.8466462 298.31553968 295 301 C293.746427 301.14356934 293.746427 301.14356934 292.4675293 301.29003906 C284.50817633 302.11288648 276.5592247 302.24001338 268.5625 302.25 C267.85077637 302.25167175 267.13905273 302.25334351 266.40576172 302.25506592 C249.60959643 302.25740548 232.52529885 301.38855415 216.13623047 297.5 C213.91794388 296.98079418 211.69412392 296.53602693 209.45703125 296.10546875 C200.74182351 294.39769641 192.54223879 292.38078719 184.234375 289.203125 C181.13966514 288.05195273 178.05372874 287.13746234 174.875 286.25 C159.11066509 281.49567677 143.04684754 273.57377954 129 265 C127.72438588 264.25187469 126.448297 263.5045586 125.171875 262.7578125 C98.01872953 246.68512628 72.14129843 225.20964485 53 200 C52.07329524 198.8135063 51.14618345 197.62733044 50.21875 196.44140625 C38.75668891 181.6313397 28.87456688 165.99679241 21 149 C20.6704834 148.30084473 20.3409668 147.60168945 20.00146484 146.88134766 C11.66017817 129.11771802 5.38025129 111.0829387 1.56738281 91.81445312 C1.19929158 89.98856858 0.81173177 88.16646006 0.40136719 86.34960938 C-3.07858058 70.91481648 -3.37179608 55.69085306 -3.375 39.9375 C-3.37690338 38.92398468 -3.37880676 37.91046936 -3.38076782 36.86624146 C-3.3736519 3.3736519 -3.3736519 3.3736519 0 0 Z " fill="#F2AA2E" transform="translate(244,469)"/>
<path d="M0 0 C1.52979744 -0.00855011 1.52979744 -0.00855011 3.09049988 -0.01727295 C5.23927801 -0.02665693 7.38807011 -0.03323039 9.53686523 -0.03710938 C12.74685369 -0.04673669 15.95617887 -0.07779232 19.16601562 -0.109375 C42.98790342 -0.23117129 65.79802435 3.42955482 88.609375 10.20703125 C90.92118855 10.89012795 93.24230817 11.54227009 95.5703125 12.16796875 C102.01847311 13.91128253 108.01546911 15.90891963 114.03515625 18.8046875 C116.82160799 20.12769774 119.6407553 21.34246736 122.48217773 22.54174805 C148.37834395 33.54247742 170.85584318 48.75072237 191.98046875 67.203125 C192.79386719 67.904375 193.60726563 68.605625 194.4453125 69.328125 C206.66275675 80.06158684 218.02810021 91.50381183 227.73779297 104.55908203 C228.94240805 106.15277121 230.19718173 107.70815859 231.453125 109.26171875 C245.51594993 126.75667528 256.65382813 147.40927383 264.98046875 168.203125 C265.71910156 170.03230469 265.71910156 170.03230469 266.47265625 171.8984375 C276.48722165 197.27710453 283.19732254 224.89871611 283.078125 252.234375 C283.07671005 253.46603394 283.0752951 254.69769287 283.07383728 255.9666748 C283.06826487 259.87885016 283.05571742 263.79096711 283.04296875 267.703125 C283.03738357 270.3645825 283.03338791 273.02603944 283.02929688 275.6875 C283.01830447 282.19272807 283.00159389 288.69792236 282.98046875 295.203125 C282.65046875 295.203125 282.32046875 295.203125 281.98046875 295.203125 C281.97112305 294.30819336 281.96177734 293.41326172 281.95214844 292.49121094 C281.72749957 275.33420463 281.29340354 258.90622227 276.98046875 242.203125 C276.629005 240.74539345 276.28002558 239.28706058 275.93359375 237.828125 C274.99888702 233.93917309 273.9983663 230.07113569 272.98046875 226.203125 C272.57828125 224.6253125 272.57828125 224.6253125 272.16796875 223.015625 C270.81582811 217.83241921 269.10763178 213.1314037 266.98046875 208.203125 C266.31205588 206.37534113 265.64392703 204.54740202 264.99145508 202.71386719 C261.68359479 193.48746904 257.57934217 184.8483974 252.98046875 176.203125 C252.54508789 175.38166992 252.10970703 174.56021484 251.66113281 173.71386719 C244.70584766 160.61155618 244.70584766 160.61155618 236.5078125 148.26953125 C234.98818781 146.21356844 233.60932435 144.10538969 232.23046875 141.953125 C225.74796302 132.194885 218.19968004 123.20752714 210.23046875 114.640625 C208.32915796 112.58087164 206.52411366 110.4804989 204.73046875 108.328125 C195.12752475 97.3629029 183.69353321 88.31107289 172.00292969 79.69482422 C170.14545416 78.32481269 168.30055215 76.93946884 166.45703125 75.55078125 C149.6560491 63.049484 130.96951104 53.8788899 111.98046875 45.203125 C110.93028564 44.71803467 110.93028564 44.71803467 109.85888672 44.22314453 C46.67671888 15.45466081 -29.96985022 18.44409935 -94.01953125 42.203125 C-98.07632458 43.75554411 -102.05656115 45.42553947 -106.01953125 47.203125 C-107.14101563 47.70328125 -108.2625 48.2034375 -109.41796875 48.71875 C-138.10226681 61.71159709 -167.85670536 78.63307554 -189.57617188 101.8684082 C-191.01953125 103.203125 -191.01953125 103.203125 -193.01953125 103.203125 C-193.01953125 103.863125 -193.01953125 104.523125 -193.01953125 105.203125 C-194.453125 106.578125 -194.453125 106.578125 -196.45703125 108.203125 C-205.03873111 115.51570023 -211.96675791 124.45569234 -219.01953125 133.203125 C-219.76976562 134.10804688 -220.52 135.01296875 -221.29296875 135.9453125 C-222.00710938 136.81414062 -222.72125 137.68296875 -223.45703125 138.578125 C-224.09511719 139.34898437 -224.73320312 140.11984375 -225.390625 140.9140625 C-227.06558991 143.26785012 -228.06435029 145.48637914 -229.01953125 148.203125 C-229.67953125 148.203125 -230.33953125 148.203125 -231.01953125 148.203125 C-229.69835817 143.7416762 -227.93807419 140.13269605 -225.45703125 136.203125 C-224.9319397 135.36890015 -224.9319397 135.36890015 -224.39624023 134.51782227 C-223.653529 133.34089039 -222.90778038 132.16587041 -222.15917969 130.99267578 C-221.03262229 129.22368141 -219.91964488 127.44673307 -218.80859375 125.66796875 C-204.34070382 102.64869883 -185.97260753 80.59486983 -165.01953125 63.203125 C-164.50293945 62.77273926 -163.98634766 62.34235352 -163.45410156 61.89892578 C-118.0245066 24.23649065 -59.40296505 0.26685883 0 0 Z " fill="#FCE59A" transform="translate(501.01953125,240.796875)"/>
<path d="M0 0 C20.01663077 14.62884941 32.30202556 37.62077815 36.3984375 61.80859375 C37.39801737 68.65441036 37.66007939 75.38969999 37.66796875 82.30078125 C37.69246094 83.43773437 37.71695313 84.5746875 37.7421875 85.74609375 C37.77450223 95.13890722 36.43000205 103.70185792 29.79296875 110.73828125 C25.54451105 114.68741579 22.37318613 115.93959595 16.54296875 115.80078125 C15.558125 115.78273438 14.57328125 115.7646875 13.55859375 115.74609375 C12.8109375 115.72289062 12.06328125 115.6996875 11.29296875 115.67578125 C11.2671875 114.98613281 11.24140625 114.29648437 11.21484375 113.5859375 C10.46747393 101.20337842 5.10034031 91.0351014 -3.83203125 82.42578125 C-15.64473075 72.36087913 -29.93814899 71.59606416 -44.70703125 72.67578125 C-51.79209975 74.13104767 -57.29121015 78.01908152 -62.70703125 82.67578125 C-63.30257812 83.15402344 -63.898125 83.63226562 -64.51171875 84.125 C-73.53514999 92.08567156 -77.65761722 103.98231058 -78.70703125 115.67578125 C-84.38167062 116.08682153 -89.26368715 116.32978222 -94.11328125 113.05859375 C-100.90830764 107.16290908 -104.07567068 99.67319498 -105.00830078 90.81396484 C-105.14521036 87.76103284 -105.17440896 84.73160702 -105.14453125 81.67578125 C-105.13695801 80.58144775 -105.12938477 79.48711426 -105.12158203 78.35961914 C-104.92845814 68.72809393 -103.56798346 59.86174578 -100.70703125 50.67578125 C-100.49272461 49.98693848 -100.27841797 49.2980957 -100.05761719 48.58837891 C-92.94216261 26.5221839 -79.54596378 6.49540814 -58.81640625 -4.81640625 C-38.82892754 -14.50882683 -18.38474748 -11.91775088 0 0 Z " fill="#6C2C01" transform="translate(545.70703125,548.32421875)"/>
<path d="M0 0 C11.73091494 8.28743008 21.28707357 21.65862422 23.78125 35.96484375 C25.24346156 53.13085507 23.42676007 69.58403106 12.70703125 83.6953125 C2.94533467 94.95618761 -9.4607596 103.93611199 -24.7590332 105.16967773 C-27.54022909 105.26844072 -30.31089656 105.2869134 -33.09375 105.27734375 C-34.02316406 105.29345703 -34.95257812 105.30957031 -35.91015625 105.32617188 C-50.40000168 105.33627637 -62.49300989 99.24748719 -72.9296875 89.390625 C-84.27323152 77.36956555 -89.93836912 63.16171572 -89.5 46.61328125 C-88.20099639 29.76231781 -82.22564946 16.44773327 -69.90625 4.7734375 C-49.48983274 -12.46927387 -22.6078783 -14.07042952 0 0 Z " fill="#7C4910" transform="translate(641.21875,407.03515625)"/>
<path d="M0 0 C13.57844955 8.41935526 22.97030424 21.42027141 27.34521484 36.74047852 C30.7574034 52.32708484 27.12560191 69.53075832 18.8125 82.875 C16.03462014 86.45740244 13.03581707 89.69161783 9.8125 92.875 C9.25949219 93.44992187 8.70648438 94.02484375 8.13671875 94.6171875 C-3.7976825 106.04815247 -19.91548147 107.55445165 -35.52734375 107.24609375 C-47.3664233 106.69811461 -56.20317624 101.38071249 -65.1875 93.875 C-65.90679687 93.28074219 -66.62609375 92.68648438 -67.3671875 92.07421875 C-78.86120341 81.63121207 -84.55194796 66.51831338 -85.3828125 51.296875 C-85.63134102 34.8939929 -80.33038617 21.697022 -69.5703125 9.27734375 C-50.67652651 -9.77130934 -23.21848983 -12.41646169 0 0 Z " fill="#7C480F" transform="translate(446.1875,405.125)"/>
<path d="M0 0 C2.19621476 1.64621929 4.2431422 3.36558671 6.27734375 5.20703125 C7.26734375 6.05974609 7.26734375 6.05974609 8.27734375 6.9296875 C17.29216485 15.22261863 24.07954926 26.40522618 27.27734375 38.20703125 C27.50035156 39.00625 27.72335937 39.80546875 27.953125 40.62890625 C32.68106652 61.3417929 28.49024714 82.35838447 17.27734375 100.20703125 C6.30784323 115.90904047 -10.6520508 128.16607568 -29.6953125 131.76953125 C-35.15279659 132.50909685 -40.66518712 132.31192567 -46.16015625 132.26953125 C-47.27326172 132.26501953 -48.38636719 132.26050781 -49.53320312 132.25585938 C-52.26307726 132.24414318 -54.99283799 132.22773824 -57.72265625 132.20703125 C-58.02139648 132.83407959 -58.32013672 133.46112793 -58.62792969 134.10717773 C-61.41535534 139.45388783 -67.30825838 142.97064952 -72.72265625 145.20703125 C-81.01944308 147.18710474 -89.55082307 147.22288894 -97.3984375 143.671875 C-103.51794866 139.81504024 -108.05037719 133.87561888 -110.72265625 127.20703125 C-111.07783704 124.44127347 -111.05422566 121.74058724 -110.97265625 118.95703125 C-110.9675 118.23773437 -110.96234375 117.5184375 -110.95703125 116.77734375 C-110.87824264 111.51820403 -110.87824264 111.51820403 -109.72265625 109.20703125 C-108.68723279 100.92364357 -110.46961 93.76998134 -112.79223633 85.92285156 C-119.00295184 64.85560823 -118.24641589 44.03485365 -107.76953125 24.55859375 C-96.42461668 5.98237868 -79.94485344 -7.65489685 -58.49609375 -12.87109375 C-37.76379257 -17.30656393 -17.3767397 -11.44321883 0 0 Z M-71.72265625 12.20703125 C-72.54894531 12.82707031 -73.37523437 13.44710938 -74.2265625 14.0859375 C-83.90346604 22.30903394 -91.22547147 35.57144985 -92.72265625 48.20703125 C-93.65976089 66.20815752 -90.29640716 81.92498414 -78.28515625 95.76953125 C-71.31829925 102.87954285 -63.90765145 108.30815411 -54.72265625 112.20703125 C-53.8615625 112.57441406 -53.00046875 112.94179688 -52.11328125 113.3203125 C-39.74428724 116.55506093 -24.35368093 115.4328015 -12.72265625 110.20703125 C-11.78679687 109.80613281 -10.8509375 109.40523438 -9.88671875 108.9921875 C4.44721886 102.06612521 13.30830583 89.52482589 18.515625 74.84765625 C22.61927598 60.62166619 21.51834825 44.78462089 14.9921875 31.61328125 C6.64585883 16.54804175 -5.74557322 6.95723746 -21.72265625 1.20703125 C-40.31055485 -3.09761438 -56.85430045 0.50605407 -71.72265625 12.20703125 Z " fill="#F4F3F1" transform="translate(453.72265625,397.79296875)"/>
<path d="M0 0 C20.19234415 -0.6721819 39.22776784 6.63640951 53.94897461 20.33642578 C62.56392726 28.70803355 69.17584805 38.80677964 73.24609375 50.15234375 C73.54386719 50.94769531 73.84164062 51.74304688 74.1484375 52.5625 C79.20698696 68.76384504 77.99257133 91.09762812 71.125 106.69921875 C69.90281681 110.11046784 70.01942679 113.16686216 70.05859375 116.77734375 C70.06503906 118.08960938 70.07148437 119.401875 70.078125 120.75390625 C70.09277938 124.14075138 70.09277938 124.14075138 71.24609375 127.15234375 C71.91819884 136.71691613 71.51914878 143.2528657 65.43359375 150.83984375 C58.76396745 158.14857429 51.58368426 160.1483366 41.99609375 160.65234375 C34.81233857 160.52719122 29.054209 158.3621975 23.24609375 154.15234375 C22.38609666 152.93469384 21.53377629 151.71160063 20.6875 150.484375 C18.67562294 148.03348399 17.65986495 147.2451644 14.52856445 146.54272461 C11.20957906 146.34441801 7.94516377 146.33065552 4.62109375 146.40234375 C-16.61549324 146.5745988 -33.04655866 139.48639984 -48.50390625 124.83984375 C-53.07962535 120.08436426 -56.4983551 114.87199627 -59.75390625 109.15234375 C-60.21667969 108.36214844 -60.67945313 107.57195312 -61.15625 106.7578125 C-69.91762343 90.69973292 -71.78482834 71.82961667 -67.75390625 54.15234375 C-62.12750436 35.64675629 -50.69441016 19.25674689 -33.69140625 9.52734375 C-22.60254638 3.77617236 -12.36224909 0.6838691 0 0 Z M-46.75390625 33.15234375 C-57.66823887 47.48846714 -62.02373062 62.1085491 -60.75390625 80.15234375 C-58.74706989 94.61980953 -50.88574137 107.78898983 -39.75390625 117.15234375 C-29.17223145 124.90657562 -18.01542619 128.73613455 -4.94140625 128.58984375 C-3.49628662 128.57739624 -3.49628662 128.57739624 -2.02197266 128.56469727 C12.97947215 128.21040192 25.72317828 122.71648374 36.62109375 112.33984375 C49.58074353 98.59098453 52.87884324 82.83505585 52.5859375 64.50390625 C51.97217767 50.04362283 44.10203529 37.010269 33.75 27.21875 C20.33005805 16.1436341 5.56388832 12.86733961 -11.42871094 13.92480469 C-25.29551816 15.2817833 -37.50562798 23.02327707 -46.75390625 33.15234375 Z " fill="#F4F4F2" transform="translate(612.75390625,383.84765625)"/>
<path d="M0 0 C2.97261373 1.74031193 5.47945888 3.65643304 8 6 C8.68835938 6.63550781 9.37671875 7.27101563 10.0859375 7.92578125 C17.64335218 15.60962108 21.24002968 24.48205973 21.4375 35.25 C20.84458489 48.99346811 16.07647963 59.39518537 6 69 C-3.67767794 76.90686878 -15.89841156 78.17452712 -28 77 C-31.64630075 76.11951537 -34.72325727 74.81038626 -38 73 C-39.16982422 72.36384766 -39.16982422 72.36384766 -40.36328125 71.71484375 C-49.90213091 65.9594706 -56.44949291 56.48849616 -59.25 45.75 C-60.97290673 36.74742431 -60.58856753 28.45876633 -57 20 C-56.01 20.33 -55.02 20.66 -54 21 C-53.690625 21.969375 -53.38125 22.93875 -53.0625 23.9375 C-52.32642136 27.05514627 -52.32642136 27.05514627 -50.125 28.25 C-49.42375 28.4975 -48.7225 28.745 -48 29 C-47.39671875 29.33902344 -46.7934375 29.67804688 -46.171875 30.02734375 C-41.24226371 32.23502938 -35.59339589 31.5606393 -30.625 29.8125 C-26.22454008 26.7740872 -23.44069972 23.16250734 -22 18 C-21.31856485 12.06177944 -22.10114824 8.6391921 -25.48828125 3.69921875 C-27.64051064 1.28004618 -29.99583744 0.11782793 -33 -1 C-33 -1.66 -33 -2.32 -33 -3 C-21.56517542 -7.29452688 -10.68951634 -5.43827345 0 0 Z " fill="#2C2B29" transform="translate(437,419)"/>
<path d="M0 0 C9.90260124 5.18205365 17.70126141 13.30321167 21.93359375 23.78515625 C24.97536376 34.80663458 23.63138205 47.24981181 18.4921875 57.375 C12.51531649 67.48437116 5.218587 74.08533966 -6.06640625 77.53515625 C-6.65550781 77.7259375 -7.24460937 77.91671875 -7.8515625 78.11328125 C-19.1397634 80.26341475 -29.99012668 79.09185143 -39.64453125 72.875 C-48.67208388 66.29353573 -54.46509205 57.38316689 -57.06640625 46.53515625 C-57.45377841 43.12541519 -57.48812396 39.77621675 -57.44140625 36.34765625 C-57.45300781 35.48462891 -57.46460938 34.62160156 -57.4765625 33.73242188 C-57.45285735 28.56864956 -56.85570128 25.04377864 -54.06640625 20.53515625 C-52.0331461 23.07673144 -50.00981918 25.61119513 -48.06640625 28.22265625 C-45.45926837 31.23715942 -43.47731587 32.34933967 -39.515625 32.87109375 C-33.0985145 32.9618591 -29.15221315 32.58304338 -24.06640625 28.53515625 C-20.09399285 23.54417531 -19.42823452 19.45553678 -19.6796875 13.1171875 C-20.57465428 7.14170221 -24.84880313 3.51844809 -29.06640625 -0.46484375 C-25.09230953 -8.41303719 -5.97271327 -2.62448478 0 0 Z " fill="#2C2A2A" transform="translate(626.06640625,417.46484375)"/>
<path d="M0 0 C2.90371735 2.62717284 4.49468086 5.162614 6.50390625 8.4921875 C17.06142544 25.78594282 33.1822602 37.17507404 52.75 42.1875 C60.44801994 44.04915247 68.05111264 44.51981697 75.95605469 44.5847168 C81.90304323 44.687388 85.40821755 45.49758936 89.8125 49.75 C91.52868326 53.00171564 91.38162088 55.37460162 91 59 C89.17401308 63.22860128 87.15541473 65.08958855 83 67 C79.6813205 67.44344587 76.40628294 67.42649319 73.0625 67.375 C72.12390137 67.36557373 71.18530273 67.35614746 70.21826172 67.34643555 C62.52040815 67.18075545 55.40624172 66.1597895 48 64 C46.81535156 63.67128906 45.63070312 63.34257812 44.41015625 63.00390625 C20.81797319 55.84950866 -1.71303494 40.8673609 -14 19 C-15.94969623 14.56887221 -16.60351438 10.82811504 -16 6 C-11.86026492 -0.86364999 -7.46822131 -2.04626657 0 0 Z " fill="#994902" transform="translate(603,317)"/>
<path d="M0 0 C4.01415698 1.19510803 5.15319364 3.04558327 7.23046875 6.6640625 C8.48556891 12.48316323 6.19898653 16.64421287 3.31640625 21.5703125 C-12.35457018 44.81265957 -36.29171141 60.67925005 -63.64453125 66.6015625 C-69.85978823 67.586528 -76.04259189 68.05201587 -82.33203125 68.2265625 C-83.16524902 68.26579834 -83.9984668 68.30503418 -84.85693359 68.34545898 C-90.40026569 68.36842086 -93.48359822 67.17476645 -97.46313477 63.26586914 C-99.7436792 60.46963441 -99.91368477 58.27191752 -100.04296875 54.78125 C-99.6129846 51.45194412 -98.23146982 49.85984555 -95.76953125 47.6640625 C-91.84263249 44.94321373 -87.49127149 45.33788344 -82.89453125 45.2265625 C-63.58124753 44.42534842 -45.77621096 39.15718558 -30.76953125 26.6640625 C-29.68091797 25.81714844 -29.68091797 25.81714844 -28.5703125 24.953125 C-23.17452405 20.57482809 -19.59182929 15.41545462 -15.76953125 9.6640625 C-14.69953783 8.1545178 -13.61712759 6.65365754 -12.51953125 5.1640625 C-12.060625 4.535 -11.60171875 3.9059375 -11.12890625 3.2578125 C-7.66732613 -0.80059178 -4.87907621 -0.68450335 0 0 Z " fill="#984801" transform="translate(427.76953125,316.3359375)"/>
<path d="M0 0 C12.02445949 6.95269026 20.39051808 16.39811675 24.796875 29.6171875 C24.86490467 31.34514102 24.88183145 33.07554115 24.859375 34.8046875 C24.85035156 35.70574219 24.84132813 36.60679687 24.83203125 37.53515625 C24.82042969 38.22222656 24.80882812 38.90929687 24.796875 39.6171875 C20.42293968 38.23420341 16.29402096 36.55490513 12.109375 34.6796875 C-6.42995824 26.56488581 -26.19969509 24.8674522 -45.46484375 31.7890625 C-50.00759424 33.63580172 -54.40496982 35.68978812 -58.765625 37.9296875 C-62.203125 39.6171875 -62.203125 39.6171875 -65.203125 39.6171875 C-66.1416528 29.85649836 -61.97745894 20.96428613 -55.84765625 13.484375 C-55.30496094 12.86820313 -54.76226562 12.25203125 -54.203125 11.6171875 C-53.62949219 10.93914063 -53.05585938 10.26109375 -52.46484375 9.5625 C-39.48823095 -4.67684737 -17.33587393 -7.94935152 0 0 Z " fill="#E86637" transform="translate(532.203125,623.3828125)"/>
<path d="M0 0 C4.49652778 -0.36458333 4.49652778 -0.36458333 6.8125 1.3125 C8 3 8 3 8 6 C8.680625 6.165 9.36125 6.33 10.0625 6.5 C13.05350587 8.02732215 14.1097848 9.14205271 16.1875 11.6875 C20.62424146 17.0174148 26.17820377 21.59540822 32.7421875 24.0078125 C33.48726563 24.33523438 34.23234375 24.66265625 35 25 C35.495 26.485 35.495 26.485 36 28 C39.05550604 29.00088222 39.05550604 29.00088222 42.6875 29.75 C48.13885375 31.21703098 51.83402312 32.38143189 55.15625 37.05078125 C56.64179526 40.48266591 56.38807622 43.31327592 56 47 C54.68 47 53.36 47 52 47 C51.73703125 47.59683594 51.4740625 48.19367187 51.203125 48.80859375 C48.25467792 54.1789795 42.53354075 57.71440708 37 60 C28.70321317 61.98007349 20.17183318 62.01585769 12.32421875 58.46484375 C6.20470759 54.60800899 1.67227906 48.66858763 -1 42 C-1.35518079 39.23424222 -1.33156941 36.53355599 -1.25 33.75 C-1.24484375 33.03070312 -1.2396875 32.31140625 -1.234375 31.5703125 C-1.15558639 26.31117278 -1.15558639 26.31117278 0 24 C0.30267598 18.29366765 0.155373 12.60589978 -0.5625 6.9375 C-1 3 -1 3 0 0 Z " fill="#97D5EA" transform="translate(344,483)"/>
<path d="M0 0 C0.66 0.33 1.32 0.66 2 1 C2.125 8.75 2.125 8.75 1 11 C0.90186801 13.49082076 0.86094452 15.94733789 0.875 18.4375 C0.87113281 19.11876953 0.86726562 19.80003906 0.86328125 20.50195312 C0.8693626 23.60648046 1.01109688 26.03329065 2 29 C2.67210509 38.56457238 2.27305503 45.10052195 -3.8125 52.6875 C-10.4821263 59.99623054 -17.66240949 61.99599285 -27.25 62.5 C-35.20053486 62.36148894 -42.22286347 59.67263077 -47.9765625 54.078125 C-49.5625 52.1875 -49.5625 52.1875 -50.81640625 50.41796875 C-52.0456941 48.69273323 -52.0456941 48.69273323 -55 48 C-55.49163895 43.32942998 -55.67271631 40.1950415 -52.75 36.375 C-48.07121003 31.50637846 -41.1004046 27.79342194 -34.4765625 26.51171875 C-24.00234349 24.34748738 -16.40728392 15.81888388 -9.36328125 8.39648438 C-6.43017587 5.39194233 -3.21997422 2.68962553 0 0 Z " fill="#97D6E9" transform="translate(682,482)"/>
<path d="M0 0 C1.14380127 0.00902344 2.28760254 0.01804687 3.46606445 0.02734375 C25.7374725 0.48202338 43.4436316 10.11266168 58.8125 25.9375 C67.01043788 35.38871976 74.00690695 47.32308891 77.25 59.4375 C77.54519531 60.49195313 77.84039063 61.54640625 78.14453125 62.6328125 C83.87598441 86.44843977 80.37850097 110.29356299 68.25 131.4375 C67.26 132.0975 66.27 132.7575 65.25 133.4375 C61.81850898 127.93338841 62.57549693 120.69521767 63.25 114.4375 C64.03528819 111.1296587 65.00389686 108.01582407 66.1796875 104.828125 C72.35788916 85.2563037 70.80221758 64.45701059 61.9375 46.125 C58.90597357 40.35801979 55.59776885 35.28553514 51.25 30.4375 C50.57195312 29.67824219 49.89390625 28.91898437 49.1953125 28.13671875 C36.36026064 14.54800726 18.85483611 7.3997285 0.3359375 6.2578125 C-20.52893933 5.76234049 -38.00414692 12.3869486 -53.3059082 26.49658203 C-61.96335741 34.79167651 -67.15593298 44.42011739 -71.75 55.4375 C-73.02149235 51.57108202 -72.20090667 49.59626709 -70.40087891 45.95532227 C-69.86213135 44.92556274 -69.86213135 44.92556274 -69.3125 43.875 C-68.94560059 43.16335693 -68.57870117 42.45171387 -68.20068359 41.71850586 C-57.88850554 22.18091841 -42.27592898 9.60709883 -21.37402344 2.64624023 C-14.18455725 0.45913031 -7.4907103 -0.07093371 0 0 Z " fill="#E3AE3B" transform="translate(618.75,378.5625)"/>
<path d="M0 0 C1.38701594 1.19452133 2.76185254 2.40331124 4.125 3.625 C4.93195313 4.26824219 5.73890625 4.91148437 6.5703125 5.57421875 C19.62069754 16.36972075 28.3505104 33.00008213 31.125 49.625 C31.32722449 52.97928887 31.32531851 56.27151978 31.125 59.625 C30.795 59.625 30.465 59.625 30.125 59.625 C29.88265625 58.36945313 29.6403125 57.11390625 29.390625 55.8203125 C25.42956776 35.79285482 18.35119196 18.90579473 1.1953125 6.5078125 C-16.32732612 -4.84548636 -36.05708858 -10.44667889 -56.91015625 -6.7578125 C-77.93269904 -1.76191905 -94.14772499 11.10909951 -105.5625 29.25 C-116.07587435 47.82282608 -116.67838618 68.24332607 -111.875 88.625 C-111.16835669 91.06912469 -110.44042686 93.50723429 -109.6875 95.9375 C-107.79761969 102.17699033 -105.79997275 110.47494549 -108.875 116.625 C-109.61838555 125.81112145 -110.1435089 134.21676221 -103.875 141.625 C-98.87258274 147.11308884 -93.42931436 150.17703465 -86.015625 150.90625 C-76.70898919 151.18970084 -69.31435391 149.37359166 -61.875 143.625 C-60.9675 142.7175 -60.06 141.81 -59.125 140.875 C-58.3825 140.1325 -57.64 139.39 -56.875 138.625 C-56.215 138.625 -55.555 138.625 -54.875 138.625 C-55.32359798 143.32697138 -57.00325364 145.17582117 -60.5 148.25 C-61.33789062 149.00539063 -62.17578125 149.76078125 -63.0390625 150.5390625 C-69.04849765 154.95922554 -74.42393728 156.18581194 -81.6875 156.125 C-82.87617676 156.11641968 -82.87617676 156.11641968 -84.08886719 156.10766602 C-91.5538946 155.88059585 -97.13553932 154.13584736 -102.6640625 148.9453125 C-104.21129723 147.23039716 -105.55542574 145.52045782 -106.875 143.625 C-107.55916992 142.74577881 -108.24333984 141.86655762 -108.94824219 140.96069336 C-111.24000912 136.99307912 -111.26740099 134.85193346 -111.0546875 130.3125 C-111.01378475 128.89194248 -110.97343882 127.47136883 -110.93359375 126.05078125 C-110.84747136 123.85003789 -110.75126084 121.65040514 -110.64208984 119.45068359 C-110.193089 109.67662093 -110.98635569 102.54083975 -115.38989258 93.71850586 C-122.97251807 77.92375859 -121.76987661 59.39977606 -118.875 42.625 C-119.865 43.12 -119.865 43.12 -120.875 43.625 C-117.7961372 31.92532137 -110.3498113 19.28761875 -101.875 10.625 C-101.215 10.625 -100.555 10.625 -99.875 10.625 C-99.875 9.965 -99.875 9.305 -99.875 8.625 C-89.97847162 -1.10995241 -77.17233665 -8.51185938 -63.875 -12.375 C-63.11445313 -12.59929687 -62.35390625 -12.82359375 -61.5703125 -13.0546875 C-41.3001517 -18.03691557 -16.63639277 -12.60155586 0 0 Z " fill="#E0A536" transform="translate(452.875,392.375)"/>
<path d="M0 0 C4.90510461 2.37240354 7.86767194 6.39567134 9.91796875 11.3671875 C11.07817747 16.61865854 9.75425854 20.91292518 7.1953125 25.5390625 C4.52722393 29.35761127 1.37542388 31.88136912 -3.08203125 33.3671875 C-9.3302569 34.14405392 -14.20209152 33.71285257 -19.38671875 29.9765625 C-23.57964577 25.99618017 -25.27400899 21.4598507 -25.58203125 15.7421875 C-25.28808264 10.38681121 -23.12833095 7.46163543 -19.421875 3.66796875 C-13.57662857 -1.48112923 -7.42580454 -2.25699875 0 0 Z " fill="#F5F4F3" transform="translate(406.08203125,417.6328125)"/>
<path d="M0 0 C5.00230198 2.45567552 8.49851535 5.9970307 11 11 C11.80736616 16.97859748 11.63753064 21.81232073 8.375 27 C5.61458277 30.58021632 3.45306662 32.73969813 -1 34 C-6.25953175 34.61321895 -10.52119107 34.68463376 -15.375 32.4375 C-20.3997424 27.77166777 -23.28234569 24.54762325 -23.5625 17.4375 C-23.27467306 11.75097323 -21.65976139 8.49013375 -17.46875 4.56640625 C-11.75153623 -0.38010468 -7.41306564 -0.75493738 0 0 Z " fill="#F5F4F4" transform="translate(596,417)"/>
<path d="M0 0 C0.66 0 1.32 0 2 0 C2.51046875 1.17755859 2.51046875 1.17755859 3.03125 2.37890625 C8.05320028 13.26425062 13.78827324 18.82155554 25 23 C24.76171875 24.91015625 24.76171875 24.91015625 24 27 C22.14453125 27.87109375 22.14453125 27.87109375 19.8125 28.4375 C12.68008916 30.5625289 8.7387064 34.72030299 5.03515625 40.99609375 C3.69959956 43.58152991 2.77070237 46.19744592 2 49 C-1 48 -1 48 -1.921875 46.21484375 C-2.19515625 45.46332031 -2.4684375 44.71179688 -2.75 43.9375 C-5.94797666 36.33019188 -10.6384273 31.06526142 -18.203125 27.69140625 C-19.78547434 27.08254574 -21.39155775 26.53614742 -23 26 C-23 25.01 -23 24.02 -23 23 C-22.20335937 22.64808594 -21.40671875 22.29617188 -20.5859375 21.93359375 C-9.34848618 16.69765232 -5.06100182 11.12972524 0 0 Z " fill="#DCEFD7" transform="translate(967,943)"/>
<path d="M0 0 C3 1 3 1 4.6875 3.625 C6.60784672 8.56303444 6.67083088 12.13658088 4.875 17.125 C2.40975862 20.90503678 -0.46593993 24.19651754 -4.921875 25.609375 C-9.5604321 26.48128423 -13.97627777 27.26667286 -18.140625 24.66015625 C-19.85802556 23.17662935 -21.45903053 21.66484162 -23 20 C-22.44369726 17.25254567 -22.2332666 16.21771549 -20.125 14.25 C-18 13 -18 13 -15 13 C-15 12.34 -15 11.68 -15 11 C-13.11005567 9.61990112 -11.16126272 8.31980793 -9.1875 7.0625 C-4.24862915 3.95063134 -4.24862915 3.95063134 0 0 Z " fill="#D0ECF4" transform="translate(673,501)"/>
<path d="M0 0 C4.47810369 0.88213357 7.35533465 3.41771267 10.8125 6.25 C12.00523803 7.21511627 13.19924782 8.17866298 14.39453125 9.140625 C14.98290771 9.61636963 15.57128418 10.09211426 16.17749023 10.58227539 C18.03912926 12.03043853 19.95342426 13.36581375 21.8984375 14.69921875 C25 17 25 17 25.8125 19.5625 C24.86283037 22.41150888 23.64195903 23.75705472 21.04296875 25.26953125 C16.76705622 26.79839481 12.44562138 26.6615508 8 26 C2.85146319 23.4257316 -0.182008 20.45397599 -2 15 C-2.27690465 9.46190705 -1.74960184 5.24880553 0 0 Z " fill="#D2ECF4" transform="translate(350,501)"/>
<path d="M0 0 C0.33 0 0.66 0 1 0 C1.27733344 9.52178148 1.002431 16.21306249 -5 24 C-12.49046371 31.65816066 -20.52205155 34.07226274 -31.125 34.4375 C-38.63151992 34.4879964 -44.12746198 32.72878675 -50 28 C-57 20.7915937 -57 20.7915937 -57 16 C-55.3125 16.125 -55.3125 16.125 -53 17 C-51.82099196 18.47376006 -50.64401718 19.94932612 -49.48828125 21.44140625 C-46.84462835 24.20995614 -43.45827184 25.48743578 -40 27 C-39.38640625 27.35964844 -38.7728125 27.71929688 -38.140625 28.08984375 C-31.60637618 30.86809188 -22.54097712 29.57957836 -16.0625 27.04296875 C-10.09882912 24.02724882 -4.85266818 20.14420839 -2 14 C-1.09586572 9.35462043 -0.4899102 4.70571639 0 0 Z " fill="#D49D36" transform="translate(684,514)"/>
<path d="M0 0 C0.33 0 0.66 0 1 0 C1.01417969 0.68964844 1.02835937 1.37929688 1.04296875 2.08984375 C1.48886427 10.87519061 3.79130019 17.30147981 10.3125 23.375 C17.59833203 29.00353976 24.93579106 29.88373052 34 29 C41.10532854 27.50299948 46.5964364 24.4035636 51.75 19.25 C52.4925 18.5075 53.235 17.765 54 17 C54.66 17 55.32 17 56 17 C55.55140202 21.70197138 53.87174636 23.55082117 50.375 26.625 C49.53710938 27.38039063 48.69921875 28.13578125 47.8359375 28.9140625 C41.82650235 33.33422554 36.45106272 34.56081194 29.1875 34.5 C28.39504883 34.49427979 27.60259766 34.48855957 26.78613281 34.48266602 C19.3211054 34.25559585 13.73946068 32.51084736 8.2109375 27.3203125 C6.66370277 25.60539716 5.31957426 23.89545782 4 22 C3.29101562 21.10925781 2.58203125 20.21851563 1.8515625 19.30078125 C-0.47594568 15.15153144 -0.4684562 12.27139523 -0.25 7.625 C-0.23195313 6.88894531 -0.21390625 6.15289063 -0.1953125 5.39453125 C-0.14859176 3.59578264 -0.07686183 1.79771289 0 0 Z " fill="#D6A035" transform="translate(342,514)"/>
<path d="M0 0 C4.10703441 0.85563217 5.55401113 2.24378009 8 5.625 C8.625 9.125 8.625 9.125 8 12.625 C5.55401113 16.00621991 4.10703441 17.39436783 0 18.25 C-4.10703441 17.39436783 -5.55401113 16.00621991 -8 12.625 C-8.625 9.125 -8.625 9.125 -8 5.625 C-5.55401113 2.24378009 -4.10703441 0.85563217 0 0 Z " fill="#F0EFF0" transform="translate(439,465.375)"/>
<path d="M0 0 C3.81287661 0.79434929 5.46528234 1.64297922 8 4.625 C8.7975483 9.64955429 8.82360163 11.46226829 5.875 15.625 C3 17.625 3 17.625 -0.0625 18.1875 C-3.74345769 17.48263576 -4.87000351 16.7016616 -7 13.625 C-8.03339347 10.34245605 -8.67797525 8.04626005 -7.1484375 4.83984375 C-5.056523 1.98539267 -3.46254662 0.72136388 0 0 Z " fill="#EEEEEF" transform="translate(630,465.375)"/>
<path d="M0 0 C4.8358027 8.91592924 5.48428136 18.80539592 5.375 28.75 C5.38660156 29.82121094 5.39820313 30.89242188 5.41015625 31.99609375 C5.38661799 38.37496128 4.65371165 43.18710781 2 49 C1.34 49 0.68 49 0 49 C0.00523682 48.0934668 0.01047363 47.18693359 0.01586914 46.25292969 C0.0330963 42.83104798 0.04553905 39.40921357 0.05493164 35.98730469 C0.05990456 34.51724512 0.06668527 33.04719035 0.07543945 31.57714844 C0.12220264 23.51187344 0.04047444 15.55193719 -0.88110352 7.52441406 C-1.00742702 4.84230921 -0.63151938 2.60095893 0 0 Z " fill="#E09E2C" transform="translate(688,429)"/>
<path d="M0 0 C0.33 0 0.66 0 1 0 C1.49155247 8.06510168 0.04937325 15.21726112 -2 23 C-2.33 23 -2.66 23 -3 23 C-3.33 21.35 -3.66 19.7 -4 18 C-4.42410156 18.37511719 -4.84820313 18.75023437 -5.28515625 19.13671875 C-9.36517338 22.69664579 -13.5513476 25.91317997 -18 29 C-16.96349647 25.68318869 -15.48633868 23.20802135 -13.375 20.5 C-9.76877474 15.85454233 -6.77322132 10.87898796 -3.734375 5.85546875 C-2.53259936 3.87686967 -1.28411825 1.92617738 0 0 Z " fill="#CEE4E5" transform="translate(687,465)"/>
<path d="M0 0 C0.33 0 0.66 0 1 0 C1.17015625 1.06476563 1.3403125 2.12953125 1.515625 3.2265625 C2.70361788 10.41029801 3.99667731 17.35020584 6.1875 24.3125 C8.81501198 33.07087325 9.1421909 41.35897502 6 50 C5.67 50 5.34 50 5 50 C5.06960938 48.93523438 5.13921875 47.87046875 5.2109375 46.7734375 C5.63646585 37.2596819 4.70097926 30.87416529 0.46875 22.25 C-1.61989208 17.62832391 -2.40713913 13.0086522 -3 8 C-2.01 8.495 -2.01 8.495 -1 9 C-0.67 9.99 -0.34 10.98 0 12 C0 8.04 0 4.08 0 0 Z " fill="#E6AB36" transform="translate(337,464)"/>
<path d="M0 0 C3 1 3 1 4.4296875 3.51171875 C4.90664063 4.55972656 5.38359375 5.60773438 5.875 6.6875 C8.14463484 11.44805909 10.38985558 15.17749415 14 19 C13.67 19.66 13.34 20.32 13 21 C12.34 20.34 11.68 19.68 11 19 C8.42938689 18.35232207 8.42938689 18.35232207 6 18 C5.67 19.32 5.34 20.64 5 22 C2.29071931 19.29071931 2.15457952 16.98253223 1.375 13.25 C1.11460937 12.03828125 0.85421875 10.8265625 0.5859375 9.578125 C0.04936115 6.30143211 -0.11171455 3.31081291 0 0 Z " fill="#CAE4E7" transform="translate(338,465)"/>
<path d="M0 0 C0.66 0 1.32 0 2 0 C2.04939115 4.09338652 2.08571501 8.18665798 2.10986328 12.28027344 C2.11992877 13.67320781 2.13358234 15.06612102 2.15087891 16.45898438 C2.1751022 18.4595436 2.18540814 20.46025615 2.1953125 22.4609375 C2.20578613 23.66540527 2.21625977 24.86987305 2.22705078 26.11083984 C2 29 2 29 0 31 C-0.309375 30.030625 -0.61875 29.06125 -0.9375 28.0625 C-1.69523342 25.15934208 -1.69523342 25.15934208 -3 24 C-3.12712692 21.54911118 -3.18520683 19.13889455 -3.1875 16.6875 C-3.19974609 16.01009766 -3.21199219 15.33269531 -3.22460938 14.63476562 C-3.23566765 10.86389391 -2.96217276 8.23049736 -1 5 C-0.62331656 3.34259285 -0.27942455 1.67654729 0 0 Z " fill="#EBA127" transform="translate(336,447)"/>
<path d="M0 0 C0.33 0 0.66 0 1 0 C1.32881236 11.28922444 0.22584504 18.27645543 -7.625 26.875 C-10 29 -10 29 -12 29 C-12 28.34 -12 27.68 -12 27 C-12.66 26.67 -13.32 26.34 -14 26 C-13.46890625 25.63648438 -12.9378125 25.27296875 -12.390625 24.8984375 C-6.70199981 20.84996337 -2.71771924 17.68759193 -1.3203125 10.5078125 C-0.80643353 7.00921187 -0.36613895 3.51686098 0 0 Z " fill="#D2A243" transform="translate(684,514)"/>
<path d="M0 0 C0.33 0.99 0.66 1.98 1 3 C0.07543945 4.578125 0.07543945 4.578125 -1.38671875 6.25 C-1.91330078 6.8584375 -2.43988281 7.466875 -2.98242188 8.09375 C-3.82643555 9.03734375 -3.82643555 9.03734375 -4.6875 10 C-5.23083984 10.6290625 -5.77417969 11.258125 -6.33398438 11.90625 C-9.01449137 14.96598229 -11.58225006 17.73813143 -15 20 C-12.74747886 12.79193234 -7.38852657 7.08916398 -2 2 C-1.34 1.34 -0.68 0.68 0 0 Z " fill="#D0E8EF" transform="translate(684,474)"/>
<path d="M0 0 C3.92765396 7.33162072 4.30041828 16.27195361 2 24.25 C1.67 25.1575 1.34 26.065 1 27 C0.67 27 0.34 27 0 27 C0.03480469 25.22882812 0.03480469 25.22882812 0.0703125 23.421875 C0.08907497 21.86458967 0.10727466 20.30729748 0.125 18.75 C0.14175781 17.97269531 0.15851563 17.19539063 0.17578125 16.39453125 C0.21086694 12.28950541 0.05997898 9.63525703 -2 6 C-1.33333333 4 -0.66666667 2 0 0 Z " fill="#E0B43D" transform="translate(342,487)"/>
<path d="M0 0 C7.04722844 1.32966574 12.97360581 4.1024375 19 8 C19.33 8.66 19.66 9.32 20 10 C15.38 9.01 10.76 8.02 6 7 C6 5.68 6 4.36 6 3 C5.195625 2.87625 4.39125 2.7525 3.5625 2.625 C2.716875 2.41875 1.87125 2.2125 1 2 C0.67 1.34 0.34 0.68 0 0 Z " fill="#C6E3EE" transform="translate(373,505)"/>
<path d="M0 0 C0.33 0 0.66 0 1 0 C1.01417969 0.68964844 1.02835937 1.37929688 1.04296875 2.08984375 C1.50390103 11.17145537 4.56176735 16.89213452 10 24 C7.8125 24.5 7.8125 24.5 5 24 C1.8718338 21.36219499 0.23403009 18.12329116 -0.21484375 14.05078125 C-0.42859583 9.35678554 -0.25607893 4.6890898 0 0 Z " fill="#C99C42" transform="translate(342,514)"/>
<path d="M0 0 C0.33 0 0.66 0 1 0 C1.18451025 9.41002278 1.18451025 9.41002278 0 14 C-0.33 14 -0.66 14 -1 14 C-1.33 12.35 -1.66 10.7 -2 9 C-3.98 10.32 -5.96 11.64 -8 13 C-6.80465088 10.17462936 -5.43875959 8.32924926 -3.4375 5.9375 C-0.86462201 3.19794312 -0.86462201 3.19794312 0 0 Z " fill="#B7E1EA" transform="translate(685,474)"/>
<path d="M0 0 C0.33 0 0.66 0 1 0 C1.40368295 6.45892714 0.5915262 11.06108578 -2 17 C-2.66 17 -3.32 17 -4 17 C-3.6732039 14.66574212 -3.33859959 12.33257494 -3 10 C-2.855625 8.948125 -2.71125 7.89625 -2.5625 6.8125 C-2.03933362 4.19666812 -1.32490314 2.29649878 0 0 Z " fill="#E2A028" transform="translate(692,461)"/>
<path d="M0 0 C0.33 0 0.66 0 1 0 C0.76553236 5.74445718 -0.65840726 8.20380555 -4.56640625 12.35546875 C-6.33892838 14.38879795 -7.22141536 16.43067067 -8 19 C-8.66 19 -9.32 19 -10 19 C-8.62309544 14.25652774 -6.56160559 10.27474838 -3.9375 6.125 C-3.57333984 5.53203125 -3.20917969 4.9390625 -2.83398438 4.328125 C-1.9218371 2.86464287 -0.96486632 1.4292745 0 0 Z " fill="#F2E8A3" transform="translate(280,370)"/>
<path d="M0 0 C0.33 0 0.66 0 1 0 C0.39891424 5.65020618 -1.07528683 10.66164461 -3 16 C-5 13 -5 13 -4.609375 10.87890625 C-4.32578125 10.11449219 -4.0421875 9.35007812 -3.75 8.5625 C-3.47671875 7.80066406 -3.2034375 7.03882813 -2.921875 6.25390625 C-2.04421126 4.10809278 -1.06816156 2.05667949 0 0 Z " fill="#EEB03C" transform="translate(772,583)"/>
<path d="M0 0 C1.0625 1.8125 1.0625 1.8125 2 4 C1.67 4.99 1.34 5.98 1 7 C0.85164052 8.77166975 0.75229982 10.54767612 0.68359375 12.32421875 C0.64169922 13.35224609 0.59980469 14.38027344 0.55664062 15.43945312 C0.51732422 16.51130859 0.47800781 17.58316406 0.4375 18.6875 C0.39431641 19.77095703 0.35113281 20.85441406 0.30664062 21.97070312 C0.20053162 24.64700791 0.09847639 27.32340526 0 30 C-0.33 30 -0.66 30 -1 30 C-1.02909769 25.93751511 -1.04683174 21.87505714 -1.0625 17.8125 C-1.07087891 16.66201172 -1.07925781 15.51152344 -1.08789062 14.32617188 C-1.09111328 13.21435547 -1.09433594 12.10253906 -1.09765625 10.95703125 C-1.10289307 9.93585205 -1.10812988 8.91467285 -1.11352539 7.86254883 C-1.00519467 5.13098384 -0.61706868 2.65830626 0 0 Z " fill="#925811" transform="translate(442,612)"/>
<path d="M0 0 C0.66 0.33 1.32 0.66 2 1 C-1.46273075 3.86134241 -5.00686276 6.36574534 -8.8125 8.75 C-9.78832031 9.36359375 -10.76414062 9.9771875 -11.76953125 10.609375 C-12.50558594 11.06828125 -13.24164062 11.5271875 -14 12 C-14.66 11.34 -15.32 10.68 -16 10 C-6.58997722 4.62870159 -6.58997722 4.62870159 -2 3 C-2 2.34 -2 1.68 -2 1 C-1.34 0.67 -0.68 0.34 0 0 Z " fill="#CBE7F0" transform="translate(663,498)"/>
<path d="M0 0 C0.66 0 1.32 0 2 0 C1.01 3.96 0.02 7.92 -1 12 C-2.32 12.33 -3.64 12.66 -5 13 C-4.54554036 11.58208592 -4.08625056 10.16571954 -3.625 8.75 C-3.24214844 7.56664062 -3.24214844 7.56664062 -2.8515625 6.359375 C-2.04826333 4.13372042 -1.10288338 2.09068328 0 0 Z " fill="#E7B640" transform="translate(337,423)"/>
<path d="M0 0 C0.99 0 1.98 0 3 0 C2.125 5.875 2.125 5.875 1 7 C0.76924918 8.34747084 0.58846937 9.70377565 0.4375 11.0625 C0.293125 12.361875 0.14875 13.66125 0 15 C-0.33 15 -0.66 15 -1 15 C-1.02693575 12.87506859 -1.04636628 10.75004088 -1.0625 8.625 C-1.07410156 7.44164062 -1.08570313 6.25828125 -1.09765625 5.0390625 C-1 2 -1 2 0 0 Z " fill="#81D8F5" transform="translate(345,505)"/>
<path d="M0 0 C2 1 2 1 3.125 3.6875 C3.98889074 6.9579435 4.16013991 9.63706182 4 13 C3.67 12.01 3.34 11.02 3 10 C2.01 10 1.02 10 0 10 C0 6.7 0 3.4 0 0 Z " fill="#9DDAF1" transform="translate(345,495)"/>
<path d="M0 0 C3.24208567 0.35049575 4.61527704 0.56221181 6.8125 3.0625 C7.204375 3.701875 7.59625 4.34125 8 5 C7.01 5.66 6.02 6.32 5 7 C3.29115995 5.37660195 1.62553283 3.70680947 0 2 C0 1.34 0 0.68 0 0 Z " fill="#E4AA3F" transform="translate(459,401)"/>
<path d="M0 0 C0 3 0 3 -1.96875 5.26171875 C-2.8040625 6.06222656 -3.639375 6.86273438 -4.5 7.6875 C-5.3353125 8.49574219 -6.170625 9.30398438 -7.03125 10.13671875 C-7.6809375 10.75160156 -8.330625 11.36648438 -9 12 C-9.66 11.67 -10.32 11.34 -11 11 C-9.92173635 9.72486237 -8.83714481 8.45507431 -7.75 7.1875 C-7.14671875 6.47980469 -6.5434375 5.77210938 -5.921875 5.04296875 C-4.07629602 3.08110329 -2.20054668 1.54330375 0 0 Z " fill="#7E5125" transform="translate(383,409)"/>
<path d="M0 0 C-0.1875 2.375 -0.1875 2.375 -1 5 C-3.88909849 6.59660706 -5.69058796 7 -9 7 C-7.88121617 5.82737096 -6.75476949 4.66204862 -5.625 3.5 C-4.68527344 2.52546875 -4.68527344 2.52546875 -3.7265625 1.53125 C-2 0 -2 0 0 0 Z " fill="#CCA44A" transform="translate(398,531)"/>
<path d="M0 0 C1.32 0 2.64 0 4 0 C3.67 1.32 3.34 2.64 3 4 C1.35 4.33 -0.3 4.66 -2 5 C-1.125 1.125 -1.125 1.125 0 0 Z " fill="#EEE7DD" transform="translate(639,489)"/>
<path d="M0 0 C0.99 0 1.98 0 3 0 C2.49396008 2.16874252 2.00016187 3.99967627 1 6 C0.01 6 -0.98 6 -2 6 C-1.125 1.125 -1.125 1.125 0 0 Z " fill="#EDE4D9" transform="translate(448,489)"/>
<path d="M0 0 C0.33 0.99 0.66 1.98 1 3 C1.66 3 2.32 3 3 3 C2.75 5.375 2.75 5.375 2 8 C0.02 8.99 0.02 8.99 -2 10 C-1.34 6.7 -0.68 3.4 0 0 Z " fill="#E0AB45" transform="translate(687,475)"/>
<path d="M0 0 C0.66 0.33 1.32 0.66 2 1 C-0.12121657 3.33333823 -2.01594365 4.9148886 -5 6 C-7.12890625 5.546875 -7.12890625 5.546875 -9 5 C-7.54735962 4.1361871 -6.0876837 3.28419546 -4.625 2.4375 C-3.40683594 1.72400391 -3.40683594 1.72400391 -2.1640625 0.99609375 C-1.44992187 0.66738281 -0.73578125 0.33867187 0 0 Z " fill="#B5DFEF" transform="translate(645,509)"/>
<path d="M0 0 C0.33 0.66 0.66 1.32 1 2 C-0.98 4.31 -2.96 6.62 -5 9 C-5.66 8.67 -6.32 8.34 -7 8 C-4.69 5.36 -2.38 2.72 0 0 Z " fill="#855526" transform="translate(571,412)"/>
<path d="M0 0 C0.33 0 0.66 0 1 0 C0.44687265 4.02992782 -0.1558062 8.02022924 -1 12 C-1.33 12 -1.66 12 -2 12 C-2.28571429 3.42857143 -2.28571429 3.42857143 0 0 Z " fill="#E3C054" transform="translate(344,502)"/>
<path d="M0 0 C0.66 0.99 1.32 1.98 2 3 C0.68 5.31 -0.64 7.62 -2 10 C-2.6875 8.375 -2.6875 8.375 -3 6 C-1.5625 2.75 -1.5625 2.75 0 0 Z " fill="#3D2E20" transform="translate(572,438)"/>
<path d="M0 0 C0.33 0 0.66 0 1 0 C1 1.98 1 3.96 1 6 C-0.65 6.66 -2.3 7.32 -4 8 C-2.87548273 5.0280615 -1.77706209 2.66559313 0 0 Z " fill="#DAECF1" transform="translate(687,465)"/>
</svg>
