<?xml version="1.0" encoding="UTF-8"?>
<svg version="1.1" xmlns="http://www.w3.org/2000/svg" width="1024" height="1024">
<path d="M0 0 C337.92 0 675.84 0 1024 0 C1024 337.92 1024 675.84 1024 1024 C686.08 1024 348.16 1024 0 1024 C0 686.08 0 348.16 0 0 Z " fill="#AFDBD2" transform="translate(0,0)"/>
<path d="M0 0 C3.47444802 0.87320379 6.96093112 1.63952592 10.46875 2.3671875 C11.48042236 2.57819092 12.49209473 2.78919434 13.53442383 3.0065918 C15.50425959 3.4144001 17.47539111 3.81601931 19.44799805 4.21020508 C25.04841425 5.3831623 30.14666208 7.00011616 35.41870117 9.22216797 C38.16960264 10.3544476 40.96079042 11.16370064 43.828125 11.94921875 C51.47151797 14.26270207 58.52737599 17.56032204 65.640625 21.13671875 C66.46191895 21.54873535 67.28321289 21.96075195 68.12939453 22.38525391 C83.96766571 30.38494294 98.64967104 39.39657534 112.95117188 49.89697266 C114.56613077 51.08205377 116.18913557 52.25614696 117.8125 53.4296875 C127.45195173 60.58734009 136.02464916 68.79426596 144.640625 77.13671875 C145.55328125 78.008125 146.4659375 78.87953125 147.40625 79.77734375 C152.96888109 85.18437677 157.86172974 91.0317426 162.640625 97.13671875 C163.70216797 98.49023438 163.70216797 98.49023438 164.78515625 99.87109375 C175.2771068 113.5578905 184.41173942 127.99692105 192.640625 143.13671875 C193.59750281 144.82504451 194.55556356 146.51270132 195.515625 148.19921875 C197.48110663 151.75324034 199.13072653 155.36197258 200.640625 159.13671875 C200.92035156 159.83152344 201.20007813 160.52632812 201.48828125 161.2421875 C202.69827913 164.33190303 203.640625 166.78970902 203.640625 170.13671875 C204.300625 170.13671875 204.960625 170.13671875 205.640625 170.13671875 C205.91326172 170.97203125 205.91326172 170.97203125 206.19140625 171.82421875 C208.09507918 177.60357453 210.09097167 183.33926099 212.390625 188.97460938 C214.31563887 193.80218321 215.37152274 198.44706469 216.140625 203.57421875 C217.01353679 208.95514208 218.06465811 213.97472774 219.94921875 219.10546875 C231.84073644 254.04100094 221.63530787 303.83428061 206.06640625 336.12890625 C204.9643154 338.45386504 203.93273418 340.77550363 202.93359375 343.14453125 C192.70824414 367.22676271 178.45942058 389.61226032 160.72265625 408.87109375 C158.8162206 410.94563911 156.9729689 413.05937806 155.140625 415.19921875 C138.34969232 434.43317396 117.47710911 450.17252094 95.53564453 463.02246094 C93.74971263 464.07257601 91.97388638 465.13802846 90.19921875 466.20703125 C80.99969847 471.64359596 71.47365967 475.98372802 61.640625 480.13671875 C60.72667969 480.52601563 59.81273437 480.9153125 58.87109375 481.31640625 C56.47645146 482.30363527 54.06588226 483.22724728 51.640625 484.13671875 C49.908125 484.80960938 49.908125 484.80960938 48.140625 485.49609375 C36.32349987 489.95778047 24.20519561 492.81077473 11.89282227 495.56762695 C9.6255936 496.05487347 9.6255936 496.05487347 7.640625 497.13671875 C-10.41281103 501.10048054 -29.03246926 501.46593547 -47.42578125 501.39746094 C-50.88298723 501.38664488 -54.33968368 501.39747468 -57.796875 501.41015625 C-60.03645946 501.40883588 -62.2760436 501.40627604 -64.515625 501.40234375 C-65.52838501 501.40639221 -66.54114502 501.41044067 -67.58459473 501.41461182 C-73.78959473 501.37451592 -79.6606543 500.73956889 -85.76318359 499.60951233 C-89.11325179 498.99942991 -92.47245663 498.66515854 -95.859375 498.32421875 C-111.07648449 496.51711813 -125.55418825 491.8849445 -140.046875 487.07421875 C-140.69199036 486.86079834 -141.33710571 486.64737793 -142.00177002 486.42749023 C-153.66960659 482.54899737 -164.43661535 477.68842211 -175.421875 472.19921875 C-176.97745117 471.43061523 -176.97745117 471.43061523 -178.56445312 470.64648438 C-184.36922688 467.74961884 -189.94159512 464.70395413 -195.359375 461.13671875 C-195.9567749 460.75217529 -196.5541748 460.36763184 -197.16967773 459.97143555 C-209.84579745 451.78789953 -221.64293044 442.98503694 -232.65234375 432.66015625 C-234.8898807 430.57437144 -237.15866848 428.55969165 -239.484375 426.57421875 C-247.07643976 419.95670475 -253.87309761 412.77794828 -260.1484375 404.90625 C-261.59714304 403.09152874 -263.07051488 401.29616649 -264.5703125 399.5234375 C-291.77650159 367.305582 -310.1173235 325.56297764 -317.359375 284.13671875 C-317.56240234 283.04786377 -317.56240234 283.04786377 -317.76953125 281.93701172 C-324.64238044 243.9273694 -322.50441972 199.19677498 -308.359375 163.13671875 C-307.88522332 161.87246833 -307.41124179 160.60815407 -306.9375 159.34375 C-303.27537965 149.98380122 -299.01231434 141.04242096 -294.359375 132.13671875 C-293.78574219 131.03199219 -293.21210938 129.92726563 -292.62109375 128.7890625 C-290.46674698 124.73162032 -288.62000919 121.37055321 -285.359375 118.13671875 C-284.864375 117.04359375 -284.369375 115.95046875 -283.859375 114.82421875 C-278.79647977 104.33266779 -269.88412903 95.3657748 -261.96875 86.93359375 C-259.58459771 84.37812513 -257.28195394 81.76971067 -254.984375 79.13671875 C-245.51065988 68.61971707 -234.67173551 59.60023831 -223.359375 51.13671875 C-222.14689087 50.2240625 -222.14689087 50.2240625 -220.90991211 49.29296875 C-214.22172768 44.33404188 -207.32634672 39.89027837 -200.171875 35.63671875 C-199.08052246 34.98525879 -197.98916992 34.33379883 -196.86474609 33.66259766 C-188.54067316 28.73896568 -180.1254835 24.21468802 -171.359375 20.13671875 C-170.37195313 19.67136719 -169.38453125 19.20601563 -168.3671875 18.7265625 C-165.71137133 17.49646067 -163.04114898 16.30899121 -160.359375 15.13671875 C-159.03679687 14.54117187 -159.03679687 14.54117187 -157.6875 13.93359375 C-140.07810001 6.24772303 -121.29177523 1.4968657 -102.328125 -1.37109375 C-100.59256524 -1.65883129 -98.86009713 -1.97060677 -97.14013672 -2.34033203 C-91.22454053 -3.6110044 -85.52710357 -4.2759526 -79.484375 -4.48828125 C-78.52893799 -4.52477783 -77.57350098 -4.56127441 -76.58911133 -4.59887695 C-24.92341159 -6.31423764 -24.92341159 -6.31423764 0 0 Z " fill="#FCC64E" transform="translate(560.359375,269.86328125)"/>
<path d="M0 0 C1.258125 0.26554688 2.51625 0.53109375 3.8125 0.8046875 C13.35695313 2.78589452 22.8314981 4.51314046 32.51953125 5.60546875 C34.68950216 5.8514475 36.85516928 6.14618397 39.0078125 6.51416016 C44.10451249 7.24458281 49.21629615 7.16246213 54.35546875 7.16796875 C55.45232498 7.17129715 56.54918121 7.17462555 57.67927551 7.17805481 C60.00159285 7.18310711 62.32391741 7.18546366 64.64624023 7.18530273 C68.13082551 7.18746483 71.61508105 7.20557094 75.09960938 7.22460938 C93.52374395 7.27077053 113.17194542 7.18230346 131 1.875 C134 1 134 1 138 1 C138 1.66 138 2.32 138 3 C139.26263672 2.96845825 139.26263672 2.96845825 140.55078125 2.9362793 C154.08424628 2.75797625 167.51119019 3.80709514 181 4.8125 C182.244328 4.90370117 183.48865601 4.99490234 184.77069092 5.08886719 C301.65617303 13.65617303 301.65617303 13.65617303 317 29 C316.68470349 31.94276744 316.07919527 32.92620109 313.87890625 34.9765625 C310.70120049 37.21001106 307.79819361 38.37916847 304.125 39.625 C302.36542969 40.23214844 302.36542969 40.23214844 300.5703125 40.8515625 C290.35623939 44.1370521 290.35623939 44.1370521 285.1875 44.5625 C281.97333324 44.83155766 281.97333324 44.83155766 279 46 C275.59219544 46.47004201 272.18392717 46.86753262 268.765625 47.25 C264.75664159 47.65544511 264.75664159 47.65544511 261 49 C259.31164978 49.25663951 257.61579052 49.46461275 255.91796875 49.6484375 C254.3242041 49.82366943 254.3242041 49.82366943 252.69824219 50.00244141 C250.9604248 50.18685791 250.9604248 50.18685791 249.1875 50.375 C247.98641602 50.50438965 246.78533203 50.6337793 245.54785156 50.76708984 C242.99546348 51.04110302 240.44288528 51.31335006 237.89013672 51.58398438 C234.11426914 51.98777993 230.3403098 52.40641514 226.56640625 52.828125 C214.15326666 54.19222442 201.80385112 55.33379283 189.31738281 55.70947266 C188.45209961 55.7357373 187.58681641 55.76200195 186.6953125 55.7890625 C185.95297363 55.80662598 185.21063477 55.82418945 184.44580078 55.84228516 C181.9097836 55.96574263 181.9097836 55.96574263 179.07299805 56.47973633 C173.14029218 57.36149648 167.12228801 57.35687893 161.13671875 57.53515625 C159.76005434 57.57850545 158.38339633 57.62205858 157.00674438 57.665802 C152.5671905 57.80488034 148.12737546 57.93416826 143.6875 58.0625 C142.54998606 58.09582617 142.54998606 58.09582617 141.38949203 58.12982559 C117.20241406 58.83836758 93.0392916 59.34896004 68.84075928 59.03643799 C65.73322407 58.99657811 62.62565224 58.96097833 59.51806641 58.92529297 C29.20266973 58.5627969 -1.07685596 57.84718226 -31.34863281 56.14782715 C-34.02649018 55.99852304 -36.70461128 55.85490482 -39.3828125 55.71191406 C-150.48161756 49.68878636 -150.48161756 49.68878636 -168 34 C-169 31.1875 -169 31.1875 -169 29 C-144.43600015 6.52655333 -90.77780797 9.77991781 -59.00183105 7.16534424 C-57.11205261 7.00925515 -55.22252145 6.85018057 -53.33300781 6.69091797 C-35.56355978 5.20468194 -17.8204839 4.46024557 0 4 C0 2.68 0 1.36 0 0 Z " fill="#ACCCB4" transform="translate(441,763)"/>
<path d="M0 0 C0.99 0 1.98 0 3 0 C3.09498779 0.86874756 3.18997559 1.73749512 3.2878418 2.63256836 C7.43905486 40.04275851 14.15779256 76.02845543 31 110 C31.3501416 110.71494629 31.7002832 111.42989258 32.06103516 112.16650391 C42.27525368 132.867857 55.23081305 152.73198572 70.90625 169.72265625 C72.69994142 171.67363032 74.41737756 173.66187644 76.125 175.6875 C85.15127391 186.01523665 95.0734447 195.70899573 106 204 C106.66451172 204.50853516 107.32902344 205.01707031 108.01367188 205.54101562 C130.17922393 222.49509648 130.17922393 222.49509648 155 235 C155 235.66 155 236.32 155 237 C155.50917969 237.10570312 156.01835937 237.21140625 156.54296875 237.3203125 C159.90202577 238.249527 163.08853687 239.56496543 166.3125 240.875 C166.95123047 241.13152344 167.58996094 241.38804687 168.24804688 241.65234375 C171.40502194 242.92536916 174.54075675 244.23265786 177.66796875 245.578125 C182.37889112 247.58841309 187.17019131 249.29927789 192 251 C193.63582031 251.58974609 193.63582031 251.58974609 195.3046875 252.19140625 C206.01259183 255.92862888 216.92682648 258.57703344 228 261 C228.78673096 261.1753125 229.57346191 261.350625 230.3840332 261.53125 C256.29151875 267.04359288 282.82359073 267.03865823 309.0625 264.625 C309.75203766 264.5620575 310.44157532 264.49911499 311.15200806 264.43426514 C318.28367424 263.76746294 325.10759334 262.95937982 332 261 C345.00248911 258.02026291 345.00248911 258.02026291 350.375 257.5 C353.91119549 257.0122489 356.67847154 256.13055583 359.9609375 254.8125 C361.97703725 254.00914991 364.00152218 253.30427359 366.0625 252.625 C366.81273437 252.37492188 367.56296875 252.12484375 368.3359375 251.8671875 C370.35649488 251.20946941 372.38382196 250.57250351 374.4140625 249.9453125 C382.34548789 247.4328734 389.54366308 244.40713711 396.91796875 240.55859375 C399.36100714 239.32314088 401.66752575 238.31212555 404.25 237.4375 C408.29863747 236.0330476 411.78554467 233.85926913 415.41015625 231.59765625 C417.9793085 230.01276444 420.59314399 228.52089226 423.21704102 227.02905273 C439.32911417 217.72980744 454.05241987 206.25859781 468 194 C468.96035156 193.16339844 469.92070313 192.32679688 470.91015625 191.46484375 C477.02282112 186.0103393 482.74277945 180.25780101 488.375 174.3125 C489.04120361 173.6117334 489.70740723 172.9109668 490.39379883 172.18896484 C494.61085217 167.68193938 498.38226853 162.99672081 502 158 C502.66644531 157.12214844 503.33289063 156.24429688 504.01953125 155.33984375 C515.88462553 139.4421684 523.68982702 122.36663029 531 104 C531.33 104 531.66 104 532 104 C530.71317111 114.14021163 527.90122201 123.71837619 523.4609375 132.921875 C522.3449452 135.27321706 521.29962061 137.61931814 520.2890625 140.015625 C510.06762597 164.09527877 495.8158807 186.4787066 478.08203125 205.734375 C476.1755956 207.80892036 474.3323439 209.92265931 472.5 212.0625 C455.70906732 231.29645521 434.83648411 247.03580219 412.89501953 259.88574219 C411.10908763 260.93585726 409.33326138 262.00130971 407.55859375 263.0703125 C398.35907347 268.50687721 388.83303467 272.84700927 379 277 C378.08605469 277.38929688 377.17210937 277.77859375 376.23046875 278.1796875 C373.83582646 279.16691652 371.42525726 280.09052853 369 281 C367.2675 281.67289063 367.2675 281.67289063 365.5 282.359375 C353.68287487 286.82106172 341.56457061 289.67405598 329.25219727 292.4309082 C326.9849686 292.91815472 326.9849686 292.91815472 325 294 C306.94656397 297.96376179 288.32690574 298.32921672 269.93359375 298.26074219 C266.47638777 298.24992613 263.01969132 298.26075593 259.5625 298.2734375 C257.32291554 298.27211713 255.0833314 298.26955729 252.84375 298.265625 C251.83098999 298.26967346 250.81822998 298.27372192 249.77478027 298.27789307 C243.56978027 298.23779717 237.6987207 297.60285014 231.59619141 296.47279358 C228.24612321 295.86271116 224.88691837 295.52843979 221.5 295.1875 C206.28289051 293.38039938 191.80518675 288.74822575 177.3125 283.9375 C176.66738464 283.72407959 176.02226929 283.51065918 175.35760498 283.29077148 C163.68976841 279.41227862 152.92275965 274.55170336 141.9375 269.0625 C140.38192383 268.29389648 140.38192383 268.29389648 138.79492188 267.50976562 C132.99014812 264.61290009 127.41777988 261.56723538 122 258 C121.4026001 257.61545654 120.8052002 257.23091309 120.18969727 256.8347168 C107.51357755 248.65118078 95.71644456 239.84831819 84.70703125 229.5234375 C82.4694943 227.43765269 80.20070652 225.4229729 77.875 223.4375 C70.28293524 216.819986 63.48627739 209.64122953 57.2109375 201.76953125 C55.76223196 199.95480999 54.28886012 198.15944774 52.7890625 196.38671875 C25.58287341 164.16886325 7.2420515 122.42625889 0 81 C-0.13535156 80.27409668 -0.27070313 79.54819336 -0.41015625 78.80029297 C-2.87738967 65.15549194 -3.27150666 51.63740058 -3.25 37.8125 C-3.24922455 36.97042999 -3.2484491 36.12835999 -3.24765015 35.26077271 C-3.22239698 25.79683191 -3.00728706 16.42047655 -2 7 C-1.34 7 -0.68 7 0 7 C0 4.69 0 2.38 0 0 Z " fill="#F8A134" transform="translate(243,473)"/>
<path d="M0 0 C3.37142465 0.01608807 6.74164818 0.00003621 10.11303711 -0.01904297 C30.18823934 -0.03783494 50.35353861 1.77945189 69.93920898 6.39111328 C70.26920898 6.72111328 70.59920898 7.05111328 70.93920898 7.39111328 C72.59947712 7.71723738 74.26803201 8.00151026 75.93920898 8.26611328 C81.18266682 9.19261415 85.95442669 10.54711863 90.93920898 12.39111328 C92.05424805 12.79072266 93.16928711 13.19033203 94.31811523 13.60205078 C98.54989931 15.13564757 102.74908966 16.74735832 106.93920898 18.39111328 C108.13151123 18.85880127 108.13151123 18.85880127 109.34790039 19.3359375 C136.71295892 30.22068382 162.03687772 45.65978259 184.27441406 64.94726562 C185.4393677 65.95760964 186.60886827 66.96272387 187.78173828 67.96386719 C200.20207936 78.65491106 211.92212497 90.41571286 221.93920898 103.39111328 C222.87161847 104.51535983 223.80811434 105.63622484 224.74780273 106.75439453 C234.74437581 118.74320158 242.57831461 131.78085184 249.93920898 145.51611328 C250.30103271 146.19013184 250.66285645 146.86415039 251.03564453 147.55859375 C253.39317054 152.0632423 255.19280812 156.61728398 256.93920898 161.39111328 C257.83639648 163.12361328 257.83639648 163.12361328 258.75170898 164.89111328 C260.83402317 168.94318413 262.45627681 173.13462069 264.06420898 177.39111328 C264.4447644 178.38788086 264.4447644 178.38788086 264.83300781 179.40478516 C266.27162373 183.271511 267.45502197 187.12163001 268.40380859 191.14379883 C268.79998629 192.80673349 269.22136014 194.46371039 269.65625 196.11694336 C271.55712392 203.39101775 272.90607627 210.64364065 274.00170898 218.07861328 C274.16219727 219.12210938 274.32268555 220.16560547 274.48803711 221.24072266 C274.99784021 224.62098338 275.47330738 228.00452732 275.93920898 231.39111328 C276.21716309 233.33739624 276.21716309 233.33739624 276.50073242 235.32299805 C277.97927297 246.22962433 278.17929804 256.96043687 278.06420898 267.95361328 C278.05413998 269.65868604 278.04502118 271.36376468 278.03686523 273.06884766 C278.01520607 277.17641963 277.98090212 281.28369784 277.93920898 285.39111328 C277.60920898 285.39111328 277.27920898 285.39111328 276.93920898 285.39111328 C276.89957031 284.72281494 276.85993164 284.0545166 276.8190918 283.3659668 C275.96639463 269.63683575 274.59763032 256.65465626 270.93920898 243.39111328 C270.39225509 241.22577528 269.85011305 239.05921246 269.31420898 236.89111328 C269.0731543 235.94107422 268.83209961 234.99103516 268.58374023 234.01220703 C268.00688434 231.66632641 267.49348915 229.31843441 267.00170898 226.95361328 C265.39005145 219.58028008 263.27286934 212.16415919 260.18920898 205.26611328 C258.93920898 202.39111328 258.93920898 202.39111328 258.93920898 199.39111328 C258.27920898 199.39111328 257.61920898 199.39111328 256.93920898 199.39111328 C256.67108398 198.63830078 256.40295898 197.88548828 256.12670898 197.10986328 C249.25747355 178.49061987 239.6685427 160.39907188 227.93920898 144.39111328 C227.19026367 143.31474609 226.44131836 142.23837891 225.66967773 141.12939453 C219.87046578 132.79911166 213.60582646 125.03963565 206.93920898 117.39111328 C206.32432617 116.66408203 205.70944336 115.93705078 205.07592773 115.18798828 C197.75640689 106.59322872 189.6177361 98.60620249 180.93920898 91.39111328 C180.24053711 90.80330078 179.54186523 90.21548828 178.82202148 89.60986328 C155.68143966 70.59874555 126.75383013 50.76729926 97.75170898 42.45361328 C93.18639295 41.10776867 88.76041768 39.58762465 84.31420898 37.89111328 C77.24229866 35.32450432 70.10691737 33.81364889 62.73608398 32.36376953 C58.9488756 31.61621414 55.21382232 30.73869365 51.47241211 29.79077148 C26.19431916 23.46241387 -0.32354247 24.77820548 -26.18579102 25.76611328 C-27.49616333 25.81215698 -27.49616333 25.81215698 -28.83300781 25.85913086 C-34.73363226 26.13906423 -40.29592756 27.14405085 -46.06079102 28.39111328 C-48.032636 28.77808286 -50.00533746 29.16070714 -51.97875977 29.53955078 C-81.12340274 34.75727223 -81.12340274 34.75727223 -108.06079102 46.39111328 C-109.53031409 46.99833131 -111.0109116 47.57905076 -112.49829102 48.14111328 C-135.00635707 56.97636906 -156.24097682 70.32387323 -175.06079102 85.39111328 C-176.45491211 86.47005859 -176.45491211 86.47005859 -177.87719727 87.57080078 C-183.7893047 92.24057267 -189.3094186 97.31324812 -194.81079102 102.45361328 C-195.52033936 103.11458008 -196.2298877 103.77554688 -196.9609375 104.45654297 C-201.62961712 108.86873779 -205.90230498 113.49881401 -210.06079102 118.39111328 C-210.98426875 119.44797874 -211.90867938 120.50403012 -212.83422852 121.55908203 C-220.39199389 130.33108298 -227.15881421 139.40315254 -233.06079102 149.39111328 C-233.50938477 150.12330078 -233.95797852 150.85548828 -234.42016602 151.60986328 C-239.95362269 160.68721917 -245.3093689 169.86236014 -249.08422852 179.82470703 C-250.26097014 182.91718402 -251.53288621 185.96413394 -252.81079102 189.01611328 C-253.23875977 190.03962891 -253.66672852 191.06314453 -254.10766602 192.11767578 C-254.42219727 192.86791016 -254.73672852 193.61814453 -255.06079102 194.39111328 C-256.75419829 190.30393892 -255.2529925 186.80494733 -253.93579102 182.82861328 C-253.59173218 181.76006104 -253.59173218 181.76006104 -253.24072266 180.66992188 C-251.55872992 175.57628049 -249.55504437 170.71768278 -247.23266602 165.87939453 C-246.11995695 163.51674229 -245.17155305 161.14539839 -244.24829102 158.70361328 C-238.72404857 144.78339918 -231.12800752 131.96207649 -223.06079102 119.39111328 C-222.68341797 118.80233398 -222.30604492 118.21355469 -221.91723633 117.60693359 C-212.32179176 102.81432234 -200.7568702 89.57632192 -188.06079102 77.39111328 C-185.70897292 75.06054656 -183.37518782 72.72238626 -181.09594727 70.32080078 C-174.63614322 63.59237122 -167.49134163 57.98720891 -160.06079102 52.39111328 C-159.51326172 51.97216797 -158.96573242 51.55322266 -158.40161133 51.12158203 C-138.08301322 35.6337214 -111.83458651 20.05630289 -86.75610352 14.12939453 C-83.89880296 13.39967051 -83.89880296 13.39967051 -80.61938477 12.02783203 C-74.57684545 9.72156791 -68.28445647 8.36378018 -61.99829102 6.89111328 C-60.19521484 6.44832031 -60.19521484 6.44832031 -58.35571289 5.99658203 C-39.03596684 1.44958115 -19.82008184 -0.11195354 0 0 Z " fill="#FBE4A3" transform="translate(507.060791015625,240.60888671875)"/>
<path d="M0 0 C2.875 2.0625 2.875 2.0625 5 5 C5.41952976 10.39395401 4.4918138 15.13035418 3.1875 20.3125 C3.00082764 21.06595703 2.81415527 21.81941406 2.62182617 22.59570312 C2.25058511 24.08002813 1.8751748 25.5633181 1.49511719 27.04541016 C1.10097886 28.60136255 0.73669604 30.16487005 0.3828125 31.73046875 C-3.0890969 45.54676573 -12.21024996 61.7869157 -24 70 C-24.37769531 69.50371094 -24.75539063 69.00742187 -25.14453125 68.49609375 C-32.51037097 59.40523302 -41.87331911 54.27437889 -53 51 C-54.2065625 50.64164063 -55.413125 50.28328125 -56.65625 49.9140625 C-61.68870178 48.68659191 -66.65428175 48.65695442 -71.8125 48.6875 C-72.78864258 48.69241455 -73.76478516 48.6973291 -74.77050781 48.70239258 C-81.56622655 48.8131553 -87.67768316 49.33176798 -94 52 C-94.84304688 52.35191406 -95.68609375 52.70382812 -96.5546875 53.06640625 C-103.41598653 56.2259406 -109.16823764 60.58655231 -114.7890625 65.59375 C-116.13988697 66.79152539 -117.56394443 67.90586242 -119 69 C-126.78645287 66.40451571 -132.38730955 55.04709229 -136 48 C-140.13668306 39.41841044 -143.34142136 30.73703114 -145.4375 21.4375 C-145.60137207 20.71240234 -145.76524414 19.98730469 -145.93408203 19.24023438 C-148.39221362 7.32035604 -148.39221362 7.32035604 -145.5 2.5 C-141.60260021 0.16156013 -137.35547197 0.51611728 -133.00341797 1.41015625 C-130.88610348 1.98736971 -128.78815296 2.61490818 -126.6875 3.25 C-94.53603885 12.11574871 -59.57324493 13.30998646 -27 6 C-25.64759417 5.72171949 -24.294767 5.4454737 -22.94140625 5.171875 C-18.32777816 4.18735504 -13.94606836 3.05939689 -9.5625 1.3125 C-5.95440448 -0.01679835 -3.7815336 -0.67227264 0 0 Z " fill="#732D17" transform="translate(583,540)"/>
<path d="M0 0 C9.47817343 7.01706692 16.84121085 15.42516211 20 27 C20.40786793 30.46981291 20.42052521 33.88473379 20.375 37.375 C20.38660156 38.25671875 20.39820313 39.1384375 20.41015625 40.046875 C20.36355121 50.64175389 17.30755567 58.60073563 11 67 C10.278125 68.03125 9.55625 69.0625 8.8125 70.125 C1.23841249 78.86807851 -10.87196816 83.38788896 -22.1640625 84.23828125 C-36.37395588 84.54300808 -46.63998605 79.91840024 -57.125 70.5 C-65.20077013 62.08504752 -69.76938624 50.30161194 -70.3125 38.75 C-69.87626636 24.83899384 -64.4311304 13.41122205 -54.3828125 3.85546875 C-38.92344275 -8.18256507 -16.87392269 -10.88033876 0 0 Z " fill="#743715" transform="translate(628,427)"/>
<path d="M0 0 C3.71519409 2.11641568 7.00963133 4.43158438 10.21484375 7.26171875 C10.82070313 7.78636719 11.4265625 8.31101562 12.05078125 8.8515625 C19.94612208 16.17802506 25.52990917 25.88810209 26.53125 36.66796875 C26.96679974 50.26836073 24.06868924 61.79124754 15.21484375 72.26171875 C14.67988281 72.90753906 14.14492188 73.55335938 13.59375 74.21875 C6.17490852 82.38481293 -4.09162575 86.87175115 -15.01171875 87.66796875 C-28.09984526 88.12971172 -38.05418081 85.67135093 -48.28515625 76.88671875 C-58.26394118 67.08787912 -63.75931451 56.69891828 -64.07739258 42.57250977 C-64.22145023 24.81176385 -64.22145023 24.81176385 -57.34765625 17.76171875 C-54.87776633 16.31592953 -52.44094144 15.31005501 -49.78515625 14.26171875 C-47.88853882 13.11525327 -47.88853882 13.11525327 -46.78515625 11.26171875 C-46.73743115 9.26228825 -46.73382182 7.26105984 -46.78515625 5.26171875 C-44.51554025 4.11341898 -42.24454847 2.96799897 -39.97265625 1.82421875 C-39.33005859 1.49873047 -38.68746094 1.17324219 -38.02539062 0.83789062 C-27.06257645 -4.67191753 -11.32329135 -5.09816435 0 0 Z " fill="#31251B" transform="translate(438.78515625,423.73828125)"/>
<path d="M0 0 C12.70421608 8.87155059 22.82661067 20.49595849 26.53125 35.84375 C28.00345338 45.75658612 28.02841136 55.71854022 24 65 C23.63648438 66.0725 23.27296875 67.145 22.8984375 68.25 C20.54023335 75.0659707 18.88169622 78.88281264 13 83 C11.84749426 84.28841444 10.72427486 85.60338005 9.625 86.9375 C0.64268526 97.34526903 -12.26652616 103.90269373 -26 105 C-44.39154469 106.2282102 -60.90850802 103.06647202 -75.25 90.6875 C-82.63227467 83.69130308 -87.88966013 76.29829694 -92 67 C-92.35449219 66.20078125 -92.70898438 65.4015625 -93.07421875 64.578125 C-97.1614892 53.19585287 -96.19473622 38.32680335 -91.40234375 27.3359375 C-83.72870859 11.62231299 -71.98868453 0.00453576 -55.4375 -6 C-37.1819236 -11.96777072 -16.48548288 -10.38281669 0 0 Z M-50 9 C-51.39025391 9.73476563 -51.39025391 9.73476563 -52.80859375 10.484375 C-53.89333984 11.23460937 -53.89333984 11.23460937 -55 12 C-55.04254356 13.99954746 -55.04080783 16.00041636 -55 18 C-56.94531059 20.59374745 -58.41223452 21.77393635 -61.4375 22.9375 C-66.23450698 24.92650289 -68.51731072 27.93135378 -70.625 32.59765625 C-72.26654468 37.19817701 -72.46040751 41.46341519 -72.375 46.3125 C-72.36484863 47.14773193 -72.35469727 47.98296387 -72.34423828 48.84350586 C-71.98369859 63.24413196 -66.81153308 74.08376383 -56.359375 84.02734375 C-52.84279854 86.96752771 -49.18878701 89.15774054 -45 91 C-44.42451416 91.25894043 -43.84902832 91.51788086 -43.25610352 91.78466797 C-38.10770299 93.93466141 -33.61306832 94.47732825 -28.0625 94.375 C-26.87237305 94.3608606 -26.87237305 94.3608606 -25.65820312 94.34643555 C-19.95365404 94.19912672 -15.17841542 93.49818088 -10 91 C-9.195625 90.67128906 -8.39125 90.34257812 -7.5625 90.00390625 C4.37731915 84.74383348 11.3406361 75.28702201 16.03125 63.3828125 C19.63641286 52.13336912 19.25748045 40.756279 14.55078125 29.9375 C12.19153695 25.46860399 9.39321317 21.7296093 6 18 C5.443125 17.36320312 4.88625 16.72640625 4.3125 16.0703125 C-2.70523081 8.50026029 -11.48970825 4.18023376 -21.85546875 3.62890625 C-32.19817933 3.39463344 -40.82348406 3.64200138 -50 9 Z " fill="#F8F6F4" transform="translate(447,417)"/>
<path d="M0 0 C0.99128906 0.44601562 1.98257813 0.89203125 3.00390625 1.3515625 C17.16459626 8.40236504 27.46925726 20.29278149 33 35 C37.27478203 47.86918645 35.88548512 63.33452958 30.37109375 75.6328125 C26.23590242 83.671063 20.8578711 90.10519413 14 96 C13.2884375 96.64582031 12.576875 97.29164063 11.84375 97.95703125 C-0.25467585 107.73375214 -17.70090254 110.55912487 -32.83398438 109.26855469 C-38.45589835 108.57151846 -43.69440961 106.97143841 -49 105 C-49.79277344 104.74605469 -50.58554687 104.49210938 -51.40234375 104.23046875 C-64.68755185 99.35362021 -75.44327291 86.7108912 -81.3125 74.3125 C-82.24343832 72.22362744 -83.14103679 70.11948506 -84 68 C-84.37898437 67.06800781 -84.75796875 66.13601563 -85.1484375 65.17578125 C-86.26192258 61.02319699 -86.34150704 57.15652475 -86.3125 52.875 C-86.30831055 52.03477295 -86.30412109 51.1945459 -86.29980469 50.32885742 C-86.01028192 34.28344388 -80.21942269 22.38603876 -69.0546875 11.01953125 C-50.35850817 -6.12494089 -23.09828938 -10.58321622 0 0 Z M-53 12 C-54.15822266 12.67095703 -54.15822266 12.67095703 -55.33984375 13.35546875 C-66.17656506 20.0810878 -73.74966101 29.04653965 -76.875 41.5625 C-79.39267712 54.39066437 -77.55083968 65.94857522 -70.83984375 77.3359375 C-63.82659443 87.4910034 -54.63638961 93.79411941 -42.9921875 97.66796875 C-27.15950864 100.30674856 -14.50199142 95.70728806 -1.8125 86.75 C7.54446456 77.60096799 12.02838124 67.55933777 12.29272461 54.60058594 C12.39987011 39.49439278 9.33969381 31.05405005 -0.9609375 19.87109375 C-10.12062774 10.89868342 -20.18631017 7.44783938 -32.75 7.375 C-40.1357028 7.50940413 -46.57641314 8.06296289 -53 12 Z " fill="#F8F6F4" transform="translate(636,413)"/>
<path d="M0 0 C9.82468064 7.80275051 9.82468064 7.80275051 12 13 C-4.73771318 27.84797137 -23.41092465 33.47446201 -45.45166016 32.22753906 C-59.83202573 30.94352865 -72.52618407 23.65310647 -83 14 C-84.03671627 12.69501067 -85.0503673 11.36966255 -86 10 C-85.10474609 9.84917969 -85.10474609 9.84917969 -84.19140625 9.6953125 C-81.59426076 8.87126277 -80.7192457 7.90737489 -78.9375 5.875 C-59.13048434 -14.69219963 -22.98256531 -15.84404123 0 0 Z " fill="#F06A3C" transform="translate(548,598)"/>
<path d="M0 0 C8.43610935 4.46187617 13.80866345 10.19776398 17.03125 19.2265625 C19.01469558 27.6089813 18.37037763 36.19500246 14.6875 44 C14.0275 44.99 13.3675 45.98 12.6875 47 C12.0275 47 11.3675 47 10.6875 47 C10.378125 46.195625 10.06875 45.39125 9.75 44.5625 C8.92414655 42.10919595 8.92414655 42.10919595 7.6875 41 C5.81428052 40.83946185 5.81428052 40.83946185 3.6875 40.875 C2.965625 40.87242187 2.24375 40.86984375 1.5 40.8671875 C-0.33339415 40.80304724 -0.33339415 40.80304724 -1.3125 42 C-1.44818319 45.66344611 -1.47711426 48.50615721 -0.3125 52 C2.6575 52.495 2.6575 52.495 5.6875 53 C4.7284375 53.1546875 4.7284375 53.1546875 3.75 53.3125 C3.069375 53.539375 2.38875 53.76625 1.6875 54 C1.3575 54.99 1.0275 55.98 0.6875 57 C-5.86807931 61.37038621 -15.81751343 60.71892374 -23.3125 60 C-33.24933184 57.00147023 -39.53167505 50.08138086 -44.3671875 41.2109375 C-46.42028823 36.40905728 -46.42337747 31.86388926 -46.375 26.6875 C-46.36597656 25.43324219 -46.35695313 24.17898438 -46.34765625 22.88671875 C-46.33605469 21.93410156 -46.32445312 20.98148437 -46.3125 20 C-44.48046875 19.34765625 -44.48046875 19.34765625 -42.3125 19 C-41.425625 19.804375 -40.53875 20.60875 -39.625 21.4375 C-37.04071005 23.77971722 -35.30552036 24.43334631 -31.8125 24.5625 C-27.38934425 24.30143684 -24.67853622 22.955544 -21.3125 20 C-18.40130123 15.39810503 -18.62573604 10.26252848 -19.3125 5 C-21.08373226 2.29898394 -21.08373226 2.29898394 -23.3125 1 C-22.9825 0.01 -22.6525 -0.98 -22.3125 -2 C-14.54863669 -4.58795444 -7.26463474 -3.59482059 0 0 Z " fill="#31261C" transform="translate(618.3125,437)"/>
<path d="M0 0 C3.71519409 2.11641568 7.00963133 4.43158438 10.21484375 7.26171875 C10.82070313 7.78636719 11.4265625 8.31101562 12.05078125 8.8515625 C19.94612208 16.17802506 25.52990917 25.88810209 26.53125 36.66796875 C26.96744586 50.28853627 24.0434453 61.73698193 15.21484375 72.26171875 C14.55484375 72.92171875 13.89484375 73.58171875 13.21484375 74.26171875 C11.89484375 74.26171875 10.57484375 74.26171875 9.21484375 74.26171875 C7.74757577 70.44682201 8.78147956 67.97160253 10.21484375 64.26171875 C9.55484375 64.42671875 8.89484375 64.59171875 8.21484375 64.76171875 C-1.15250319 66.32294324 -1.15250319 66.32294324 -5.28515625 63.63671875 C-7.21719857 60.57765174 -7.31495503 58.81893915 -6.78515625 55.26171875 C-5.66015625 53.38671875 -5.66015625 53.38671875 -3.78515625 52.26171875 C-0.70304707 51.71378823 1.2651265 51.64149524 3.9375 53.38671875 C5.41631303 54.61731494 6.82170043 55.93491559 8.21484375 57.26171875 C12.88608461 49.95021132 13.13593002 42.83765789 12.21484375 34.26171875 C9.6824312 26.27200387 5.3859867 19.71576775 -1.78515625 15.26171875 C-10.05114062 11.05335285 -18.77415827 9.69013464 -27.78515625 12.26171875 C-27.35203125 12.66261719 -26.91890625 13.06351562 -26.47265625 13.4765625 C-23.29955978 16.71576515 -21.3353411 19.1193202 -21.16015625 23.76171875 C-21.51880076 28.53821151 -22.88933767 31.45143115 -25.78515625 35.26171875 C-30.481774 38.57069944 -34.23214692 38.79057678 -39.78515625 38.26171875 C-44.35400242 36.39264532 -46.59310247 33.64582631 -48.78515625 29.26171875 C-49.938275 22.76232218 -48.39527884 19.67690264 -44.78515625 14.26171875 C-45.43099134 11.07361314 -45.43099134 11.07361314 -46.78515625 8.26171875 C-46.78515625 7.27171875 -46.78515625 6.28171875 -46.78515625 5.26171875 C-44.51554025 4.11341898 -42.24454847 2.96799897 -39.97265625 1.82421875 C-39.33005859 1.49873047 -38.68746094 1.17324219 -38.02539062 0.83789062 C-27.06257645 -4.67191753 -11.32329135 -5.09816435 0 0 Z " fill="#733614" transform="translate(438.78515625,423.73828125)"/>
<path d="M0 0 C0.969375 0.31710937 1.93875 0.63421875 2.9375 0.9609375 C18.88163319 6.81542391 30.99898716 18.80265449 38.33520508 33.91992188 C45.01386208 48.38837527 46.25793777 63.80462352 40.96484375 78.96484375 C38.3798959 85.55604519 35.2939534 91.37379375 31 97 C30.44957031 97.73863281 29.89914062 98.47726562 29.33203125 99.23828125 C23.67213193 106.22566229 16.66841865 110.51998157 9 115 C8.26652344 115.433125 7.53304687 115.86625 6.77734375 116.3125 C0.89572196 119.50930505 -5.60422418 121.13638817 -12 123 C-12.99 123.33 -13.98 123.66 -15 124 C-17.67771286 124.09644305 -20.32315677 124.1392892 -23 124.125 C-23.72445312 124.12886719 -24.44890625 124.13273438 -25.1953125 124.13671875 C-28.39282879 124.13081927 -30.94582607 124.01805798 -34 123 C-33.505 121.515 -33.505 121.515 -33 120 C-32.42894531 120.02320313 -31.85789062 120.04640625 -31.26953125 120.0703125 C-21.5241587 120.28722063 -11.77204381 119.47202234 -3 115 C-2.40316406 114.73574219 -1.80632812 114.47148438 -1.19140625 114.19921875 C13.42425112 107.52365693 24.55937869 96.66129442 31 82 C36.16839052 66.75324796 35.52839383 51.32891067 28.4921875 36.91015625 C20.00405103 21.2564534 6.10704336 12.02104524 -10.67578125 6.84765625 C-26.54324792 3.21507078 -43.80654276 5.18269026 -57.80859375 13.51171875 C-62.08193738 16.41393608 -66.03399031 19.69718067 -70 23 C-71.66416942 24.33644891 -73.33016072 25.67064213 -75 27 C-74.08002302 21.74797949 -70.58345798 18.73101214 -67 15 C-66.44570313 14.40832031 -65.89140625 13.81664062 -65.3203125 13.20703125 C-48.60622139 -3.02420834 -21.62825776 -7.55760143 0 0 Z " fill="#F09E32" transform="translate(636,403)"/>
<path d="M0 0 C1.26710087 1.02079617 2.5158146 2.06464353 3.75 3.125 C4.60722656 3.85074219 5.46445312 4.57648438 6.34765625 5.32421875 C14.52745726 12.44476496 14.52745726 12.44476496 16.75 17.125 C16.255 18.61 16.255 18.61 15.75 20.125 C14.98429687 19.2896875 14.98429687 19.2896875 14.203125 18.4375 C2.40777727 6.05656763 -12.25527954 -2.37929897 -29.65625 -3.11328125 C-39.86186463 -3.33488086 -48.7014212 -2.90662216 -58.25 1.125 C-59.11625 1.475625 -59.9825 1.82625 -60.875 2.1875 C-75.99997827 8.99374022 -85.65925284 21.20256347 -92.12890625 36.140625 C-93.5586074 39.94651934 -94.21446131 43.08069748 -94.25 47.125 C-94.28738281 48.21941406 -94.32476562 49.31382812 -94.36328125 50.44140625 C-94.49695087 57.07564058 -94.34999319 62.82502043 -92.25 69.125 C-92.00507813 69.88941406 -91.76015625 70.65382813 -91.5078125 71.44140625 C-88.98205513 78.58281756 -84.99579011 84.26733907 -80.25 90.125 C-79.72792969 90.7746875 -79.20585937 91.424375 -78.66796875 92.09375 C-71.27997174 100.32341756 -59.90615309 105.76787858 -49.25 108.125 C-49.25 108.785 -49.25 109.445 -49.25 110.125 C-47.93 110.455 -46.61 110.785 -45.25 111.125 C-45.91 111.785 -46.57 112.445 -47.25 113.125 C-49.81087487 112.75828761 -52.1360207 112.28207677 -54.625 111.625 C-55.34381348 111.43776367 -56.06262695 111.25052734 -56.80322266 111.05761719 C-73.64421108 106.42344434 -87.11102694 96.17396544 -96.0390625 81.10546875 C-101.29063481 71.02917606 -103.76116432 61.98715578 -103.625 50.625 C-103.63660156 49.65691406 -103.64820313 48.68882812 -103.66015625 47.69140625 C-103.59889676 32.47863319 -96.95812325 19.20944124 -86.48046875 8.328125 C-85.74441406 7.60109375 -85.00835937 6.8740625 -84.25 6.125 C-83.64800781 5.50109375 -83.04601562 4.8771875 -82.42578125 4.234375 C-60.31109758 -17.06479972 -24.30698408 -17.54415383 0 0 Z " fill="#F29F33" transform="translate(447.25,411.875)"/>
<path d="M0 0 C1.25 1.5625 1.25 1.5625 2 4 C1.00056118 5.63241674 -0.00446229 7.26187192 -1.046875 8.8671875 C-2.59936523 12.34120253 -2.18829406 15.71469782 -1.9453125 19.44921875 C-2.0056018 22.2612839 -2.72741664 23.54193024 -4 26 C-5.13399163 35.08666023 -3.58352954 44.64447864 1.5625 52.3125 C5.78662991 57.47060838 11.72271456 60.90757152 18 63 C20.59622252 63.12294886 23.15389532 63.18513129 25.75 63.1875 C26.78640625 63.20586914 26.78640625 63.20586914 27.84375 63.22460938 C36.03405734 63.24770235 41.83148904 60.74191307 48.5703125 56.2421875 C51.28353197 54.85504314 52.9958641 54.75410987 56 55 C56.09978121 58.49234244 55.77842938 61.59437148 55 65 C56.485 65.495 56.485 65.495 58 66 C47.14471693 75.7419207 35.96868131 78.83045649 21.6171875 78.43359375 C8.86576277 77.58684006 -0.52256203 70.19247982 -8.8046875 60.99609375 C-18.20728001 49.41827461 -19.17403283 35.32569851 -18 21 C-16.88093888 15.81826046 -15.2610144 12.29334811 -11.5625 8.5 C-9 7 -9 7 -6.4375 6.0625 C-3.29664314 4.69340855 -1.9580176 2.75572848 0 0 Z " fill="#743715" transform="translate(393,433)"/>
<path d="M0 0 C1.02540894 0.22719727 1.02540894 0.22719727 2.0715332 0.45898438 C34.62903287 7.39576215 68.03943983 7.5064504 100.58789062 0.45898438 C103 0 103 0 106 0 C106.08078388 3.87762633 105.77244018 5.9919001 103.38671875 9.10546875 C97.3586166 14.97928675 91.05266829 17.05625248 83 19 C82.28972656 19.21269531 81.57945312 19.42539062 80.84765625 19.64453125 C74.70061291 21.45095625 68.37016047 21.75728667 62 22 C61.14277344 22.03399902 60.28554688 22.06799805 59.40234375 22.10302734 C41.55899869 22.7074185 20.16098911 22.97864729 5 12 C2.02816126 9.12976258 0.06297566 6.56314572 -0.109375 2.28515625 C-0.07328125 1.53105469 -0.0371875 0.77695312 0 0 Z " fill="#F6EAE3" transform="translate(459,547)"/>
<path d="M0 0 C11.86323902 5.28146906 20.94470191 13.79588989 30.0625 22.8125 C30.71831055 23.45888428 31.37412109 24.10526855 32.04980469 24.77124023 C32.6637207 25.38942627 33.27763672 26.0076123 33.91015625 26.64453125 C34.45808838 27.19471924 35.00602051 27.74490723 35.57055664 28.31176758 C39.34117485 32.76502547 39.35757092 36.36825804 39 42 C37 45 37 45 34 45.6875 C27.46520899 45.41578312 22.52743685 39.29413499 17.96875 35.15625 C8.59284813 26.70256799 -1.65227071 20.22070396 -14.296875 18.3046875 C-15.05210449 18.18899414 -15.80733398 18.07330078 -16.58544922 17.95410156 C-18.07830721 17.73951716 -19.57506467 17.55009852 -21.07470703 17.38964844 C-25.01327261 16.85061951 -27.39211317 16.0539738 -29.96875 13.0859375 C-32 10 -32 10 -32.625 7 C-31.77167486 2.90403934 -29.93104111 0.93104111 -27 -2 C-18.66359398 -7.05340901 -8.35568617 -3.24325908 0 0 Z " fill="#A0480C" transform="translate(633,335)"/>
<path d="M0 0 C2.80670313 2.66276963 3.84937493 4.19666628 4.5625 8 C3.81714299 11.97523737 2.02318049 13.41923617 -1 16 C-1.495 16.495 -1.495 16.495 -2 17 C-4.28781336 17.30165685 -6.58063986 17.56552159 -8.875 17.8125 C-25.68647024 19.89500194 -37.4016311 28.26376531 -49.8359375 39.23046875 C-57.50463876 45.94962428 -57.50463876 45.94962428 -61.6875 46.375 C-65 46 -65 46 -67 44 C-67.87535963 40.52529002 -67.7812298 37.48851043 -67 34 C-64.50939274 30.14476026 -61.30338371 27.16321184 -58 24 C-57.02264604 22.98758698 -56.05011612 21.97049862 -55.08203125 20.94921875 C-42.15332813 7.42251047 -19.42604181 -11.04618064 0 0 Z " fill="#A0470B" transform="translate(421,334)"/>
<path d="M0 0 C0.99 0.33 1.98 0.66 3 1 C3.6979319 2.92762145 4.39175906 4.85693704 5.0546875 6.796875 C7.26628303 11.95117201 10.9011867 15.73141352 16 18 C16 18.66 16 19.32 16 20 C18.97 20.99 21.94 21.98 25 23 C25 23.99 25 24.98 25 26 C23.60470871 26.62620916 22.20873879 27.25090631 20.8125 27.875 C19.99265625 28.24367188 19.1728125 28.61234375 18.328125 28.9921875 C16 30 16 30 13.0625 31 C10.41329035 32.28446529 10.11973679 33.31263171 9 36 C8.360625 36.928125 7.72125 37.85625 7.0625 38.8125 C4.89950111 42.15531647 3.47399976 45.31500061 2 49 C1.34 49 0.68 49 0 49 C-0.35191406 48.21496094 -0.70382812 47.42992187 -1.06640625 46.62109375 C-5.30501781 37.60159396 -9.00887271 31.40576275 -18.4375 27.5625 C-19.95185163 27.02311097 -21.47069563 26.49540846 -23 26 C-23 25.01 -23 24.02 -23 23 C-22.443125 22.79246094 -21.88625 22.58492187 -21.3125 22.37109375 C-9.88825847 17.75894219 -4.85434544 11.19809232 0 0 Z " fill="#DFEEDC" transform="translate(967,943)"/>
<path d="M0 0 C3.48579191 1.98927391 6.19581306 4.39162612 8 8 C8.80607644 14.48825463 7.96341638 18.78497845 4 24 C-0.69661775 27.30898069 -4.44699067 27.52885803 -10 27 C-14.56884617 25.13092657 -16.80794622 22.38410756 -19 18 C-19.84565744 13.23356714 -19.48651295 9.93827497 -17.25 5.625 C-12.16722574 -0.3049033 -7.68285988 -1.37619634 0 0 Z " fill="#CCE5F3" transform="translate(409,435)"/>
<path d="M0 0 C2.8125 1.25 2.8125 1.25 5 3 C5.763125 3.495 6.52625 3.99 7.3125 4.5 C10.13135365 8.67607948 9.69845048 13.13201177 9 18 C6.86390823 22.43041256 4.59601298 25.16159481 0 27 C-4.05207534 27.75547167 -7.45506161 27.92871533 -11.06640625 25.7578125 C-17.63178414 20.24782939 -17.63178414 20.24782939 -18.3359375 15.94921875 C-18.43078993 10.45726328 -17.77094222 7.28052901 -14 3 C-9.77472873 -0.62166109 -5.32684861 -0.71800874 0 0 Z " fill="#C9E2F1" transform="translate(591,435)"/>
<path d="M0 0 C1.34548033 0.23407926 2.69136951 0.46581723 4.03759766 0.69555664 C4.75522278 0.81818878 5.4728479 0.94082092 6.21221924 1.06716919 C33.20459748 5.5749662 60.55426308 6.17405869 87.41308594 0.46533203 C96.83078457 -1.43226396 96.83078457 -1.43226396 99.703125 0.00390625 C99.373125 0.99390625 99.043125 1.98390625 98.703125 3.00390625 C98.703125 2.34390625 98.703125 1.68390625 98.703125 1.00390625 C97.64351562 1.27654297 97.64351562 1.27654297 96.5625 1.5546875 C80.06711306 5.59564284 63.79120674 7.51356727 46.81152344 7.39501953 C44.07176295 7.37886875 41.33346781 7.39502312 38.59375 7.4140625 C22.79902804 7.43235877 7.94705217 5.21840376 -7.296875 1.00390625 C-7.626875 1.99390625 -7.956875 2.98390625 -8.296875 4.00390625 C-8.296875 2.68390625 -8.296875 1.36390625 -8.296875 0.00390625 C-5.33172823 -1.47866714 -3.24193615 -0.59387956 0 0 Z " fill="#98502F" transform="translate(466.296875,545.99609375)"/>
<path d="M0 0 C0.33 0 0.66 0 1 0 C1.40248222 5.63475113 0.89013712 9.00373361 -1.859375 13.921875 C-3.06971319 16.1270117 -4.03177208 18.36682673 -5 20.6875 C-6.56579177 24.25060095 -8.26440989 27.17322355 -11 30 C-11.66 30 -12.32 30 -13 30 C-13 30.66 -13 31.32 -13 32 C-25.19277108 42 -25.19277108 42 -31 42 C-31.66 43.32 -32.32 44.64 -33 46 C-38.94 46.33 -44.88 46.66 -51 47 C-51 46.67 -51 46.34 -51 46 C-49.83597656 45.79697266 -49.83597656 45.79697266 -48.6484375 45.58984375 C-33.9590474 42.66248319 -21.29575049 36.26314389 -11.9140625 24.3515625 C-10 22 -10 22 -7 20 C-5.60398445 17.14496806 -5.60398445 17.14496806 -4.4375 13.8125 C-4.00953125 12.64976562 -3.5815625 11.48703125 -3.140625 10.2890625 C-1.95783628 6.87841831 -0.89429844 3.4958939 0 0 Z " fill="#FCE980" transform="translate(472,475)"/>
<path d="M0 0 C12.54 0 25.08 0 38 0 C32.33057591 5.66942409 22.14226248 6.22742431 14.46850586 6.32568359 C3.11772307 6.26655923 3.11772307 6.26655923 -2 5 C-2 4.67 -2 4.34 -2 4 C-0.35 4 1.3 4 3 4 C3 3.34 3 2.68 3 2 C2.01 1.34 1.02 0.68 0 0 Z " fill="#FDDB51" transform="translate(398,521)"/>
<path d="M0 0 C0.9075 0.804375 1.815 1.60875 2.75 2.4375 C4.16382269 3.62838458 5.58090341 4.81540489 7 6 C7.84949219 6.73476563 8.69898438 7.46953125 9.57421875 8.2265625 C17.55093088 14.73416667 25.12911525 17.51004709 35 20 C35.64718994 20.17885742 36.29437988 20.35771484 36.96118164 20.54199219 C47.8828755 22.99548251 60.45774145 21.17971173 71 18 C70 20 70 20 68.3125 20.81640625 C53.28352916 25.66528029 33.07368679 25.9521281 18.56640625 19.1953125 C16.62968469 17.71741525 16.04973011 16.16915184 15 14 C12.46229997 12.71745356 12.46229997 12.71745356 10 12 C10 11.34 10 10.68 10 10 C9.443125 9.773125 8.88625 9.54625 8.3125 9.3125 C4.31561114 7.04399551 1.46033351 4.38100054 0 0 Z " fill="#FCDE6B" transform="translate(562,500)"/>
<path d="M0 0 C2.375 1.125 2.375 1.125 4 3 C4.61833806 6.63273611 4.43339202 8.32390845 2.4375 11.4375 C0 13 0 13 -3.625 12.9375 C-7 12 -7 12 -9 9 C-9.32502803 5.87973093 -9.51151479 3.85252465 -7.875 1.125 C-5.10703881 -0.53577671 -3.16909182 -0.38805206 0 0 Z " fill="#E0E8EE" transform="translate(441,476)"/>
<path d="M0 0 C2.51594502 0.08234002 3.86661565 0.21158988 6.125 1.375 C7.66237081 4.55223301 6.9091463 6.98638953 6.0625 10.3125 C2.38253497 12.76581002 0.40836828 12.70757893 -3.9375 12.3125 C-6.38647847 8.63903229 -6.25287716 6.64893601 -5.9375 2.3125 C-3.9375 0.3125 -3.9375 0.3125 0 0 Z " fill="#DDE8F0" transform="translate(621.9375,476.6875)"/>
<path d="M0 0 C1.25683594 0.18369141 2.51367188 0.36738281 3.80859375 0.55664062 C5.14064543 0.75767721 6.47267642 0.95885086 7.8046875 1.16015625 C9.14444631 1.35799796 10.48428926 1.55527073 11.82421875 1.75195312 C15.11024762 2.23658328 18.39529759 2.7270602 21.6796875 3.22265625 C20.6896875 4.70765625 20.6896875 4.70765625 19.6796875 6.22265625 C10.32911527 5.82644556 1.66564445 3.64672243 -7.3203125 1.22265625 C-7.6503125 2.21265625 -7.9803125 3.20265625 -8.3203125 4.22265625 C-8.3203125 2.90265625 -8.3203125 1.58265625 -8.3203125 0.22265625 C-5.38285529 -1.24607236 -3.22898571 -0.47998436 0 0 Z " fill="#A0613F" transform="translate(466.3203125,545.77734375)"/>
<path d="M0 0 C2 2 2 2 2.22705078 4.15478516 C2.21657715 5.02409668 2.20610352 5.8934082 2.1953125 6.7890625 C2.18886719 7.73007812 2.18242187 8.67109375 2.17578125 9.640625 C2.15902344 10.62546875 2.14226562 11.6103125 2.125 12.625 C2.11597656 13.61757813 2.10695312 14.61015625 2.09765625 15.6328125 C2.07404116 18.08878134 2.04110799 20.54427168 2 23 C1.67 23 1.34 23 1 23 C0.67 20.69 0.34 18.38 0 16 C-0.33 16 -0.66 16 -1 16 C-1.33 17.98 -1.66 19.96 -2 22 C-2.33 22 -2.66 22 -3 22 C-3.45755719 14.37404682 -1.74536299 7.3970146 0 0 Z " fill="#F3AD44" transform="translate(245,458)"/>
<path d="M0 0 C0.66 0 1.32 0 2 0 C2.63957492 5.88408928 1.09338048 9.32943195 -1.6875 14.48828125 C-3.468419 17.89640898 -4.72493381 21.37612766 -6 25 C-7.39101829 20.5919635 -6.11491596 17.30606451 -4.6875 13.0625 C-4.46126953 12.35931641 -4.23503906 11.65613281 -4.00195312 10.93164062 C-2.79798014 7.22951043 -1.49865275 3.59535943 0 0 Z " fill="#EDE09C" transform="translate(258,410)"/>
<path d="M0 0 C0.66 0.66 1.32 1.32 2 2 C1.81546099 4.76808508 1.01962606 5.97616836 -0.75 8.125 C-3.1130501 10.09420842 -5.12460845 10.96780816 -8 12 C-8.99 12.66 -9.98 13.32 -11 14 C-9.05580907 7.99068257 -5.23064093 3.48709396 0 0 Z " fill="#9B654B" transform="translate(391,430)"/>
<path d="M0 0 C0.99 1.32 1.98 2.64 3 4 C-1.96284034 6.37113483 -6.45949887 8.43174347 -12 9 C-11.9375 7.1875 -11.9375 7.1875 -11 5 C-7.6875 3.375 -7.6875 3.375 -4 2 C-2.65986503 1.34711373 -1.32258472 0.68774405 0 0 Z " fill="#FDBC48" transform="translate(649,515)"/>
<path d="M0 0 C0.33 0 0.66 0 1 0 C0.3900874 4.98844309 -0.63474435 9.60155346 -2.0625 14.4375 C-2.42472656 15.67371094 -2.78695312 16.90992188 -3.16015625 18.18359375 C-3.43730469 19.11300781 -3.71445312 20.04242187 -4 21 C-5.49176509 18.64029886 -6.07214212 17.47328404 -5.64453125 14.66796875 C-5.36996094 13.84941406 -5.09539063 13.03085937 -4.8125 12.1875 C-4.52375 11.31738281 -4.235 10.44726562 -3.9375 9.55078125 C-2.74332709 6.30163578 -1.4375932 3.14901368 0 0 Z " fill="#EEB045" transform="translate(774,577)"/>
<path d="M0 0 C2.64 0.66 5.28 1.32 8 2 C7.67 2.99 7.34 3.98 7 5 C2.05 5 -2.9 5 -8 5 C-8 4.67 -8 4.34 -8 4 C-5.36 4 -2.72 4 0 4 C0 2.68 0 1.36 0 0 Z " fill="#B0D7BD" transform="translate(441,763)"/>
<path d="M0 0 C0.33 0.66 0.66 1.32 1 2 C-0.24125182 4.61161731 -1.5310524 7.10501786 -2.9375 9.625 C-3.32357422 10.33140625 -3.70964844 11.0378125 -4.10742188 11.765625 C-5.06448696 13.51433651 -6.03134031 15.25768432 -7 17 C-7.93423645 13.98968256 -8.04449911 13.13349732 -7 10 C-6.34 10 -5.68 10 -5 10 C-4.67 7.69 -4.34 5.38 -4 3 C-3.01 3 -2.02 3 -1 3 C-0.67 2.01 -0.34 1.02 0 0 Z " fill="#FCDE88" transform="translate(268,396)"/>
<path d="M0 0 C4.29 0.33 8.58 0.66 13 1 C12.67 1.99 12.34 2.98 12 4 C9.03 4 6.06 4 3 4 C3 3.34 3 2.68 3 2 C2.01 1.34 1.02 0.68 0 0 Z " fill="#FCC743" transform="translate(398,521)"/>
<path d="M0 0 C-2.35358251 2.35358251 -2.92968394 2.27871904 -6.1328125 2.4140625 C-7.34130859 2.47207031 -7.34130859 2.47207031 -8.57421875 2.53125 C-9.83685547 2.57765625 -9.83685547 2.57765625 -11.125 2.625 C-12.39923828 2.68300781 -12.39923828 2.68300781 -13.69921875 2.7421875 C-15.79911684 2.83656494 -17.89952891 2.91937586 -20 3 C-20 2.67 -20 2.34 -20 2 C-17.23062417 1.47007619 -14.45996921 0.9507542 -11.6875 0.4375 C-10.90181641 0.28603516 -10.11613281 0.13457031 -9.30664062 -0.02148438 C-8.54931641 -0.16005859 -7.79199219 -0.29863281 -7.01171875 -0.44140625 C-6.31522217 -0.57232666 -5.61872559 -0.70324707 -4.90112305 -0.83813477 C-3 -1 -3 -1 0 0 Z " fill="#FCE670" transform="translate(441,519)"/>
<path d="M0 0 C-0.33 0.99 -0.66 1.98 -1 3 C-1 2.34 -1 1.68 -1 1 C-2.010625 1.350625 -3.02125 1.70125 -4.0625 2.0625 C-7.92337378 3.1892448 -11.05394586 2.80531717 -15 2 C-15 1.67 -15 1.34 -15 1 C-9.69276568 -0.42705634 -5.46108889 -1.4002792 0 0 Z " fill="#A25E3A" transform="translate(566,546)"/>
<path d="M0 0 C0.33 0 0.66 0 1 0 C1.25 2.29296875 1.25 2.29296875 1 5 C-0.75 6.80078125 -0.75 6.80078125 -3 8.3125 C-3.7425 8.82425781 -4.485 9.33601563 -5.25 9.86328125 C-5.8275 10.23839844 -6.405 10.61351562 -7 11 C-7.66 10.67 -8.32 10.34 -9 10 C-7.52417192 8.33037631 -6.04425109 6.6643694 -4.5625 5 C-3.73878906 4.071875 -2.91507812 3.14375 -2.06640625 2.1875 C-1.04353516 1.1046875 -1.04353516 1.1046875 0 0 Z " fill="#FCEF9B" transform="translate(462,497)"/>
<path d="M0 0 C2.375 -0.1875 2.375 -0.1875 5 0 C5.66 0.99 6.32 1.98 7 3 C6.67 3.99 6.34 4.98 6 6 C4.125 5.8125 4.125 5.8125 2 5 C0.75 2.4375 0.75 2.4375 0 0 Z " fill="#B08877" transform="translate(627,430)"/>
<path d="M0 0 C-0.875 4.75 -0.875 4.75 -2 7 C-3.32 7 -4.64 7 -6 7 C-5.37162381 3.35541809 -4.14650034 0 0 0 Z " fill="#EEE3D9" transform="translate(633,489)"/>
<path d="M0 0 C3.2542015 2.83430453 4.5206753 4.68607774 5 9 C2.69 7.02 0.38 5.04 -2 3 C-1.34 2.67 -0.68 2.34 0 2 C0 1.34 0 0.68 0 0 Z " fill="#F2A93B" transform="translate(459,423)"/>
<path d="M0 0 C3.73487777 0.4979837 5.81237635 0.87491756 9 3 C9 3.66 9 4.32 9 5 C4.68607774 4.5206753 2.83430453 3.2542015 0 0 Z " fill="#FDE059" transform="translate(577,515)"/>
<path d="M0 0 C0.66 0 1.32 0 2 0 C1.67 1.65 1.34 3.3 1 5 C-0.65 5.33 -2.3 5.66 -4 6 C-2.84826645 3.53199953 -1.95216435 1.95216435 0 0 Z " fill="#EFE3D8" transform="translate(447,489)"/>
<path d="M0 0 C1.485 0.99 1.485 0.99 3 2 C2.67 3.65 2.34 5.3 2 7 C1.67 7 1.34 7 1 7 C0.67 8.98 0.34 10.96 0 13 C-0.33 13 -0.66 13 -1 13 C-1.07654536 8.48382401 -1.10228696 4.40914783 0 0 Z " fill="#EAAE55" transform="translate(243,467)"/>
<path d="M0 0 C0.99 0 1.98 0 3 0 C1.84826645 2.46800047 0.95216435 4.04783565 -1 6 C-1.99 6 -2.98 6 -4 6 C-2.84826645 3.53199953 -1.95216435 1.95216435 0 0 Z " fill="#F4EAE2" transform="translate(390,433)"/>
<path d="M0 0 C5.445 1.485 5.445 1.485 11 3 C10.34 3.66 9.68 4.32 9 5 C5.62008426 4.6442194 2.95711562 3.64284201 0 2 C0 1.34 0 0.68 0 0 Z " fill="#B6DBB5" transform="translate(413,754)"/>
<path d="M0 0 C1.65 0 3.3 0 5 0 C3.02 2.31 1.04 4.62 -1 7 C-1.66 6.67 -2.32 6.34 -3 6 C-2 4 -1 2 0 0 Z " fill="#834121" transform="translate(444,488)"/>
<path d="M0 0 C0.66 0 1.32 0 2 0 C1.67 2.31 1.34 4.62 1 7 C0.34 6.34 -0.32 5.68 -1 5 C-1.99 5.495 -1.99 5.495 -3 6 C-1.125 1.125 -1.125 1.125 0 0 Z " fill="#EEEAE0" transform="translate(668,475)"/>
<path d="M0 0 C0.99 0 1.98 0 3 0 C1.60667426 3.36720387 0.0210714 4.9859524 -3 7 C-2.38722388 4.03824877 -1.74627478 2.61941217 0 0 Z " fill="#ED972B" transform="translate(564,423)"/>
<path d="M0 0 C0.66 0 1.32 0 2 0 C1.67 2.64 1.34 5.28 1 8 C0.01 7.34 -0.98 6.68 -2 6 C-1.34 4.02 -0.68 2.04 0 0 Z " fill="#F7A93C" transform="translate(767,594)"/>
</svg>
