<?xml version="1.0" encoding="UTF-8"?>
<svg version="1.1" xmlns="http://www.w3.org/2000/svg" width="1024" height="1024">
<path d="M0 0 C337.92 0 675.84 0 1024 0 C1024 337.92 1024 675.84 1024 1024 C686.08 1024 348.16 1024 0 1024 C0 686.08 0 348.16 0 0 Z " fill="#BAD9D2" transform="translate(0,0)"/>
<path d="M0 0 C0 0.66 0 1.32 0 2 C1.26714844 2.09539062 2.53429687 2.19078125 3.83984375 2.2890625 C9.35968063 2.90465769 14.33983755 4.54460997 19.5625 6.375 C20.45646484 6.67921875 21.35042969 6.9834375 22.27148438 7.296875 C36.11887829 12.03760679 49.52389582 17.61205946 62.19140625 24.984375 C65.39694642 26.78446235 68.70084665 28.37936327 72 30 C72 30.66 72 31.32 72 32 C72.886875 32.2578125 73.77375 32.515625 74.6875 32.78125 C78.00459145 34.00168931 80.20331618 35.36752859 83 37.5 C86.72053765 40.2941997 90.45580539 43.04802492 94.25927734 45.72729492 C119.25277442 63.36757387 140.71090475 84.92438592 157.83349609 110.2890625 C158.97000189 111.95600109 160.13506725 113.60335476 161.30078125 115.25 C172.32137291 130.99662932 181.61480876 148.34980798 188.4375 166.3125 C189.93792331 170.24774197 191.46593519 174.1653733 193.0625 178.0625 C197.13230353 188.25883083 199.96343095 198.50514694 202.1875 209.25 C202.57711914 211.07144531 202.57711914 211.07144531 202.97460938 212.9296875 C205.03592605 222.70895729 206.19572199 231.93626541 206.1875 241.9375 C206.18669434 242.97293945 206.18588867 244.00837891 206.18505859 245.07519531 C206.12564847 252.82646912 205.73635866 260.52347963 205.125 268.25 C205.04660889 269.24765381 204.96821777 270.24530762 204.88745117 271.27319336 C203.97023776 281.82686367 202.2472794 292.02383744 199.25 302.1875 C198.85965576 303.52989746 198.85965576 303.52989746 198.46142578 304.89941406 C195.03867045 316.48950089 191.31480829 328.12318304 186 339 C185.43667969 340.1653125 184.87335937 341.330625 184.29296875 342.53125 C171.15415927 369.42423092 155.12537347 393.8236476 134.41113281 415.52148438 C133.44736978 416.53126793 132.48858843 417.54582367 131.53417969 418.56445312 C123.37445144 427.24636178 114.53256911 434.51191893 104.93945312 441.56005859 C103.25598229 442.80994669 101.60167886 444.098937 99.953125 445.39453125 C87.2406507 455.35981831 73.01748213 463.30921671 58.48046875 470.28125 C56.07297276 471.47013691 53.81834896 472.67254799 51.51953125 474.03515625 C47.99775523 476.07752084 44.32359102 477.55904617 40.5 478.9375 C39.45090454 479.32035156 39.45090454 479.32035156 38.38061523 479.7109375 C36.9411449 480.23278809 35.5003066 480.75088116 34.05810547 481.26513672 C32.20278407 481.9275943 30.35297543 482.60544255 28.50390625 483.28515625 C12.63883482 488.88565252 -3.94110663 492.46370129 -20.5 495.3125 C-21.40484131 495.47177979 -22.30968262 495.63105957 -23.24194336 495.79516602 C-65.08893302 502.59544234 -114.73168081 499.47285744 -153.875 482.5625 C-159.51528216 480.1700924 -165.22249879 478.03577306 -171 476 C-171 475.34 -171 474.68 -171 474 C-172.29808594 473.7628125 -173.59617187 473.525625 -174.93359375 473.28125 C-180.12018804 472.12214395 -184.42465714 470.04383517 -189.0625 467.5 C-189.88177979 467.05857666 -190.70105957 466.61715332 -191.54516602 466.16235352 C-223.29341618 448.8470795 -253.14558537 424.81410944 -274.76025391 395.65429688 C-276.00571943 393.99236809 -277.28301156 392.36095434 -278.57421875 390.734375 C-294.64053771 370.45233237 -307.89686385 346.6178323 -316 322 C-316.89308434 319.56149145 -317.78888569 317.12397613 -318.6875 314.6875 C-337.42208667 261.77576001 -335.26332205 202.85925246 -317.5625 150.0625 C-317.19318359 148.92232422 -316.82386719 147.78214844 -316.44335938 146.60742188 C-314.46685919 140.67107037 -312.27148432 135.26978651 -309.09106445 129.87915039 C-307.74687998 127.56404905 -306.75110284 125.19180715 -305.8125 122.6875 C-303.94348889 117.74853872 -302.37610796 114.32954802 -298.53125 110.65234375 C-296.5989575 108.5672424 -295.01814114 106.31992674 -293.375 104 C-289.00135464 97.88019114 -284.23652618 92.17916351 -279.30664062 86.50634766 C-278.14899272 85.17176478 -277.0032782 83.82685117 -275.859375 82.48046875 C-264.0983832 68.94635033 -250.4805787 57.49526377 -236 47 C-235.41621582 46.57493164 -234.83243164 46.14986328 -234.23095703 45.71191406 C-222.15473733 36.97622683 -209.41009063 29.63810297 -196.25 22.6875 C-195.30398926 22.18371826 -194.35797852 21.67993652 -193.38330078 21.16088867 C-187.9791407 18.34498733 -182.61668482 16.05461153 -176.85791016 14.07250977 C-173.72131302 12.89541501 -170.76955185 11.4818847 -167.7578125 10.015625 C-160.67037658 6.68455107 -153.44903746 4.6684492 -145.875 2.75 C-144.5817654 2.40986337 -143.2887953 2.06871945 -141.99609375 1.7265625 C-135.47700364 0.03173252 -128.98914018 -1.43454891 -122.34887695 -2.56005859 C-119.78316378 -3.00079355 -119.78316378 -3.00079355 -116.48828125 -4.0234375 C-79.16814382 -14.47140431 -37.14874706 -7.1518823 0 0 Z " fill="#FDCF52" transform="translate(576,272)"/>
<path d="M0 0 C-1.32 0.66 -2.64 1.32 -4 2 C1.40514961 3.05283498 6.7720439 3.3539121 12.2578125 3.6484375 C14.33025152 3.76592591 16.40267946 3.88360975 18.47509766 4.00146484 C20.10164276 4.09243439 20.10164276 4.09243439 21.76104736 4.1852417 C112.17424362 9.28538916 112.17424362 9.28538916 148 18 C148.69254883 18.1635498 149.38509766 18.32709961 150.09863281 18.49560547 C169.14966245 23.04318474 169.14966245 23.04318474 176 29 C175.90625 31.25 175.90625 31.25 175 34 C172.79623482 35.67182186 170.95387118 36.80817974 168.5 38 C167.80003906 38.34248779 167.10007812 38.68497559 166.37890625 39.0378418 C149.75081864 46.57910589 130.06348595 47.79134979 112.09674072 49.76629639 C109.72181367 50.03100677 107.34795581 50.30428057 104.97412109 50.57861328 C100.13909898 51.13730971 95.3029924 51.68575698 90.46615601 52.22851562 C88.54453879 52.44488662 86.62315462 52.66334157 84.70205688 52.88427734 C55.86941432 56.18437019 26.93019112 57.37062287 -2.0625 58.125 C-3.22330015 58.15557873 -3.22330015 58.15557873 -4.40755081 58.18677521 C-54.81062685 59.50808496 -105.00290373 59.65692786 -155.375 57.1875 C-156.23250225 57.14590508 -157.0900045 57.10431015 -157.97349167 57.06145477 C-181.04296024 55.93795186 -204.0188349 54.31903271 -227 52 C-227.97120789 51.90214203 -228.94241577 51.80428406 -229.9430542 51.70346069 C-234.46867229 51.24149081 -238.99037669 50.75307051 -243.50927734 50.22949219 C-245.56407203 49.99261372 -247.6198393 49.76574696 -249.67578125 49.5390625 C-294.92877951 44.43351988 -294.92877951 44.43351988 -307.625 35.0625 C-309 33 -309 33 -309.75 30.5625 C-308.74188046 27.11809159 -306.84457222 25.91350449 -303.7890625 24.19140625 C-298.39557588 21.88746589 -292.70150576 20.68142268 -286.99023438 19.43652344 C-285.2441125 19.05354185 -283.50423498 18.64231706 -281.765625 18.2265625 C-269.65072493 15.42386174 -257.29818537 13.77598328 -245 12 C-244.18611816 11.88237305 -243.37223633 11.76474609 -242.53369141 11.64355469 C-234.50543039 10.50569092 -226.52547261 9.79760132 -218.43457031 9.39379883 C-212.01144958 9.05438358 -205.67100942 8.31884574 -199.29296875 7.5 C-188.40109982 6.17185084 -177.49393795 5.74059804 -166.53515625 5.39453125 C-160.83412421 5.19841034 -155.20667085 4.85825283 -149.53662109 4.24072266 C-144.66089208 3.77802113 -139.76760837 3.62735312 -134.875 3.4375 C-133.823125 3.39431641 -132.77125 3.35113281 -131.6875 3.30664062 C-129.12509373 3.20181491 -126.56261201 3.09964645 -124 3 C-125.65 2.34 -127.3 1.68 -129 1 C-125.24084659 -0.8795767 -120.15200372 1.40693422 -116.15039062 2.35351562 C-102.6187004 5.39842074 -89.09901422 6.32040321 -75.27050781 6.20581055 C-73.00053587 6.18750432 -70.73097597 6.18530257 -68.4609375 6.18554688 C-52.02314514 6.15053773 -36.33478161 5.00622865 -20.1875 1.875 C-17.91866074 1.43780219 -15.64943022 1.00392746 -13.37800598 0.58035278 C-11.35223041 0.20240453 -9.32873711 -0.18771802 -7.30541992 -0.57861328 C-4.38718891 -0.95063978 -2.71354715 -1.00565144 0 0 Z " fill="#B8CEB9" transform="translate(582,763)"/>
<path d="M0 0 C2.92505374 2.92505374 2.64293546 6.24355989 3 10.1875 C3.1653891 11.8269523 3.3320762 13.46627413 3.5 15.10546875 C3.5825 15.92837402 3.665 16.7512793 3.75 17.59912109 C5.22634411 32.9306845 5.22634411 32.9306845 8.96875 47.80859375 C10.50636835 52.56705661 11.30076894 57.43454693 12.21875 62.34375 C12.93282983 65.68564358 13.87151312 68.779575 15 72 C15.44261714 73.54020532 15.88030825 75.0818368 16.3125 76.625 C17.7913005 81.59914715 19.71356704 86.31225098 21.7578125 91.078125 C22.83752025 93.61781492 23.83427504 96.1702563 24.8125 98.75 C27.45331109 105.38397302 30.73613489 111.71060791 34.00048828 118.05419922 C34.89372678 119.79311247 35.77392819 121.5387083 36.65234375 123.28515625 C47.86768606 144.97546375 62.99547495 164.58125663 80 182 C81.01634521 183.05501709 81.01634521 183.05501709 82.05322266 184.13134766 C91.16396412 193.57742812 100.42699238 202.22305221 111 210 C111.87269531 210.66773438 112.74539063 211.33546875 113.64453125 212.0234375 C122.37216714 218.59262581 131.69858291 224.28938127 141 230 C141.61746094 230.38188477 142.23492187 230.76376953 142.87109375 231.15722656 C156.55560249 239.55597529 171.68856317 247.0507866 187.24609375 251.18359375 C190 252 190 252 193.328125 253.44921875 C214.3584628 262.33118056 239.32865283 265.76627477 262 266 C263.1947998 266.02433105 264.38959961 266.04866211 265.62060547 266.07373047 C289.65860597 266.54981831 313.53559333 265.81652898 337 260 C339.56979785 259.49028803 342.14257729 259.00357286 344.71875 258.52734375 C347.5560605 257.87145862 350.24550603 256.9468573 353 256 C354.34324072 255.55445125 355.68702904 255.11055131 357.03125 254.66796875 C360.93723101 253.3764539 364.83820122 252.07042283 368.73730469 250.75830078 C370.73110488 250.09011526 372.72856482 249.43287129 374.7265625 248.77734375 C383.94262187 245.6523581 392.40511259 241.5068223 401 237 C402.36707656 236.29405595 403.73426355 235.58832571 405.1015625 234.8828125 C411.38345365 231.61442269 417.29919271 228.21859739 423 224 C424.38721219 223.23417166 425.78393871 222.4854362 427.1875 221.75 C436.9789295 216.41524484 445.4287234 208.91170289 453.8515625 201.67578125 C456.65694724 199.27201846 459.53892751 196.97830729 462.4375 194.6875 C472.18753627 186.73090106 481.01487538 177.64667972 488.79296875 167.76171875 C490.38331726 165.77167203 491.98652158 163.85842215 493.67578125 161.95703125 C506.87703122 147.03906797 516.40782391 129.14204025 522.9921875 110.37890625 C524 108 524 108 526 107 C524.16703686 117.03765528 520.81141771 125.91614002 516.7590332 135.23168945 C516.14720764 136.65705212 515.57161842 138.09793861 515.0078125 139.54296875 C502.98128385 168.86345913 484.20258051 195.6952904 462.41113281 218.52148438 C461.44736978 219.53126793 460.48858843 220.54582367 459.53417969 221.56445312 C451.37445144 230.24636178 442.53256911 237.51191893 432.93945312 244.56005859 C431.25598229 245.80994669 429.60167886 247.098937 427.953125 248.39453125 C415.2406507 258.35981831 401.01748213 266.30921671 386.48046875 273.28125 C384.07297276 274.47013691 381.81834896 275.67254799 379.51953125 277.03515625 C375.99775523 279.07752084 372.32359102 280.55904617 368.5 281.9375 C367.45090454 282.32035156 367.45090454 282.32035156 366.38061523 282.7109375 C364.9411449 283.23278809 363.5003066 283.75088116 362.05810547 284.26513672 C360.20278407 284.9275943 358.35297543 285.60544255 356.50390625 286.28515625 C340.63883482 291.88565252 324.05889337 295.46370129 307.5 298.3125 C306.59515869 298.47177979 305.69031738 298.63105957 304.75805664 298.79516602 C262.91106698 305.59544234 213.26831919 302.47285744 174.125 285.5625 C168.48471784 283.1700924 162.77750121 281.03577306 157 279 C157 278.34 157 277.68 157 277 C155.70191406 276.7628125 154.40382813 276.525625 153.06640625 276.28125 C147.87981196 275.12214395 143.57534286 273.04383517 138.9375 270.5 C138.11822021 270.05857666 137.29894043 269.61715332 136.45483398 269.16235352 C104.70658382 251.8470795 74.85441463 227.81410944 53.23974609 198.65429688 C51.99428057 196.99236809 50.71698844 195.36095434 49.42578125 193.734375 C33.35946229 173.45233237 20.10313615 149.6178323 12 125 C11.10691566 122.56149145 10.21111431 120.12397613 9.3125 117.6875 C0.02814574 91.46587328 -3.37715344 64.41844976 -3.4375 36.75 C-3.44648819 35.38243561 -3.44648819 35.38243561 -3.45565796 33.98724365 C-3.50677984 22.31542195 -2.63286194 11.38198755 0 0 Z " fill="#FBAC33" transform="translate(248,469)"/>
<path d="M0 0 C1.33165695 -0.00300613 1.33165695 -0.00300613 2.69021606 -0.006073 C38.32362031 -0.02568985 38.32362031 -0.02568985 46.875 4.25 C48.76909978 4.47354607 50.6654348 4.67819951 52.5625 4.875 C92.89844093 10.43000111 133.43101672 32.23222924 164.875 57.25 C166.22464844 58.30767578 166.22464844 58.30767578 167.6015625 59.38671875 C181.03717737 70.10746749 193.72658273 82.16468599 204.875 95.25 C206.00228516 96.54357422 206.00228516 96.54357422 207.15234375 97.86328125 C216.71672024 109.02927529 224.70486911 121.12263866 232.3125 133.6875 C232.80862793 134.50347656 233.30475586 135.31945312 233.81591797 136.16015625 C236.92546677 141.37494071 239.51014831 146.66238513 241.875 152.25 C242.70542223 154.08465377 243.53826043 155.91821878 244.375 157.75 C245.21173957 159.58178122 246.04457777 161.41534623 246.875 163.25 C247.18058838 163.91233643 247.48617676 164.57467285 247.80102539 165.25708008 C264.20378385 201.30055436 267.58229848 240.55436241 267.11328125 279.625 C267.10192139 280.7559333 267.10192139 280.7559333 267.09033203 281.90971375 C267.00496743 286.75636357 266.54795431 291.44889263 265.875 296.25 C265.545 296.25 265.215 296.25 264.875 296.25 C264.89071045 295.31430176 264.9064209 294.37860352 264.92260742 293.41455078 C265.54504278 269.66739432 265.54504278 269.66739432 262.328125 246.22900391 C261.84815532 244.132757 261.43611881 242.02994064 261.03125 239.91796875 C257.85568904 223.88761076 253.33601526 204.98642849 244.484375 191.0625 C243.05568392 188.56575831 242.04458077 186.22986814 241.015625 183.5546875 C238.94662925 178.25264051 236.39910086 173.33818395 233.625 168.375 C233.13757324 167.49787354 232.65014648 166.62074707 232.14794922 165.71704102 C228.37068771 158.98968732 224.27933703 152.58415254 219.875 146.25 C218.88540886 144.75432907 217.89866652 143.25677117 216.9140625 141.7578125 C210.27513977 131.72935534 203.24347754 122.86533529 194.875 114.25 C193.61334302 112.8227201 192.36150881 111.38662119 191.125 109.9375 C175.39823209 91.81173359 154.48750087 75.87916021 133.46484375 64.3359375 C132.67787109 63.79839844 132.67787109 63.79839844 131.875 63.25 C131.875 62.59 131.875 61.93 131.875 61.25 C131.05 61.0025 130.225 60.755 129.375 60.5 C124.52481066 58.76778952 119.55659669 56.93159669 115.875 53.25 C114.18206448 52.50147918 112.48672913 51.75746917 110.77490234 51.05322266 C107.84771165 49.8156928 105.03400271 48.34939131 102.1875 46.9375 C93.84042422 42.92353541 85.13108804 40.44671075 76.23901367 37.94458008 C73.06275648 37.01135156 69.93400152 35.9550255 66.80444336 34.87670898 C64.52308182 34.13569227 62.2422147 33.63180882 59.875 33.25 C59.875 32.59 59.875 31.93 59.875 31.25 C58.98035034 31.17543579 58.98035034 31.17543579 58.06762695 31.09936523 C51.64851196 30.51716788 45.3943421 29.49585835 39.0625 28.3125 C7.53541251 22.72586878 -29.88683943 19.72844744 -60.85107422 29.56518555 C-63.92706194 30.49154861 -67.01678701 30.99954925 -70.1875 31.5 C-77.6852122 32.79499984 -84.98354286 34.71925602 -92.3125 36.75 C-93.94360718 37.19520996 -93.94360718 37.19520996 -95.60766602 37.64941406 C-96.63819092 37.94041992 -97.66871582 38.23142578 -98.73046875 38.53125 C-99.64981201 38.78970703 -100.56915527 39.04816406 -101.51635742 39.31445312 C-104.31581765 40.31843362 -106.61148948 41.67258294 -109.125 43.25 C-110.73383408 43.87654264 -112.36054492 44.45862231 -114 45 C-121.28512361 47.58095957 -128.20187864 50.83799818 -135.125 54.25 C-135.78773926 54.57597168 -136.45047852 54.90194336 -137.13330078 55.23779297 C-159.49368329 66.36142339 -180.40276221 80.69056649 -198.56640625 97.84375 C-200.70173366 99.85193578 -202.87573736 101.74831461 -205.125 103.625 C-217.81229943 114.68370199 -228.47685137 128.50595328 -237.78515625 142.45703125 C-239.125 144.25 -239.125 144.25 -241.125 145.25 C-234.5223911 122.62268087 -215.73196201 99.01107262 -198.8828125 82.97265625 C-197.00549977 81.13288977 -195.32266329 79.1934833 -193.625 77.1875 C-190.73405269 73.83321801 -187.64873068 70.941781 -184.26953125 68.0859375 C-181.94935564 66.09963051 -179.73323733 64.02088016 -177.5 61.9375 C-167.36247487 52.80752706 -155.71735517 45.38912345 -144.125 38.25 C-143.43341797 37.82074219 -142.74183594 37.39148438 -142.02929688 36.94921875 C-124.78190862 26.32837807 -106.50179231 18.1542226 -87.125 12.25 C-86.09117187 11.90582031 -85.05734375 11.56164062 -83.9921875 11.20703125 C-70.64773485 6.84249223 -56.86211064 4.24878454 -42.93359375 2.64453125 C-40.17873651 2.40955339 -40.17873651 2.40955339 -38.125 1.25 C-35.49691182 1.01397783 -32.89160461 0.83495518 -30.2578125 0.703125 C-29.45812042 0.66149231 -28.65842834 0.61985962 -27.83450317 0.57696533 C-18.55864876 0.1277981 -9.28556313 0.01031283 0 0 Z " fill="#FBE7A8" transform="translate(516.125,240.75)"/>
<path d="M0 0 C4.69416528 2.97373092 9.22981163 5.99641966 12.92578125 10.1796875 C17.30833327 14.02576894 24.26003006 13.2722346 29.875 13.5625 C30.65875 13.60568359 31.4425 13.64886719 32.25 13.69335938 C34.16650649 13.79853351 36.08323333 13.89967925 38 14 C38 15.32 38 16.64 38 18 C35.87885799 19.63716313 33.93177178 20.93601608 31.625 22.25 C31.02171875 22.61351562 30.4184375 22.97703125 29.796875 23.3515625 C25.31643562 26 25.31643562 26 23 26 C23.495 27.7015625 23.495 27.7015625 24 29.4375 C27.1015027 43.58392241 25.41740359 58.77252243 18.57421875 71.5546875 C10.3284884 84.36319171 -0.71054249 91.80474105 -15.34375 95.609375 C-30.00095148 97.76484581 -43.25861218 96.07053196 -55.93359375 88.171875 C-67.4242671 79.5669872 -74.67715636 67.89419133 -78 54 C-78.2636804 51.20137665 -78.28694463 48.43437049 -78.25 45.625 C-78.24250732 44.87404053 -78.23501465 44.12308105 -78.22729492 43.34936523 C-77.96681871 29.92829229 -73.20179012 18.89727425 -64 9 C-46.32029371 -7.26417425 -21.45720384 -12.1079936 0 0 Z " fill="#8B4307" transform="translate(634,404)"/>
<path d="M0 0 C10.32033169 7.71927249 17.51421558 17.75332818 21.09765625 30.21484375 C23.08862074 47.08699155 20.95745028 62.01719418 10.40234375 75.796875 C1.01011068 86.80780956 -11.48395645 93.09475008 -25.95703125 94.25 C-38.85561255 94.79705424 -50.37787462 91.94635096 -60.59765625 83.796875 C-61.36980469 83.18714844 -62.14195312 82.57742188 -62.9375 81.94921875 C-72.01650926 74.35064694 -78.49623828 64.63537794 -80.59765625 52.796875 C-81.38738082 43.43421361 -81.14055633 34.05427549 -79.59765625 24.796875 C-84.54765625 21.166875 -89.49765625 17.536875 -94.59765625 13.796875 C-94.26765625 13.136875 -93.93765625 12.476875 -93.59765625 11.796875 C-92.68439575 11.82213257 -92.68439575 11.82213257 -91.75268555 11.84790039 C-77.5578156 12.52428642 -77.5578156 12.52428642 -65.28515625 6.609375 C-63.70294408 5.02464739 -62.13874066 3.42162599 -60.59765625 1.796875 C-43.07374948 -12.06486818 -18.64944295 -12.21130462 0 0 Z " fill="#8D4406" transform="translate(445.59765625,406.203125)"/>
<path d="M0 0 C1.5015564 0.01353516 1.5015564 0.01353516 3.03344727 0.02734375 C21.06098795 0.44366415 37.96882399 6.75357907 51.8125 18.4375 C52.67875 19.05625 53.545 19.675 54.4375 20.3125 C57.7578828 23.28336882 60.34624752 26.73388373 62.8125 30.4375 C62.8125 30.7675 62.8125 31.0975 62.8125 31.4375 C60.12472198 31.4919207 57.43806788 31.53137266 54.75 31.5625 C53.99783203 31.57925781 53.24566406 31.59601563 52.47070312 31.61328125 C46.68909922 31.66333843 41.32169982 31.38861159 36.58203125 27.703125 C35.93621094 27.03796875 35.29039062 26.3728125 34.625 25.6875 C29.60158454 20.96411788 24.1164279 18.13918339 17.8125 15.4375 C17.22637939 15.16824707 16.64025879 14.89899414 16.03637695 14.62158203 C10.40912862 12.22467225 5.19811859 11.89598608 -0.875 11.9375 C-1.84671143 11.94322021 -2.81842285 11.94894043 -3.81958008 11.95483398 C-11.88655133 12.15444162 -18.0389668 13.52212082 -25.1875 17.4375 C-26.17105469 17.96859375 -27.15460937 18.4996875 -28.16796875 19.046875 C-39.30625052 25.60057385 -47.65946356 35.8986678 -51.1875 48.4375 C-52.19781542 53.28004632 -52.37064692 57.95166279 -52.375 62.875 C-52.38724609 63.60009766 -52.39949219 64.32519531 -52.41210938 65.07226562 C-52.44596022 77.63092875 -46.06732004 90.51568619 -37.40625 99.4765625 C-25.70719645 109.81621898 -13.13888615 113.37105979 2.171875 112.828125 C8.42764874 112.42403168 14.03099054 110.82154198 19.8125 108.4375 C20.5446875 108.16035156 21.276875 107.88320313 22.03125 107.59765625 C33.04477492 102.85572191 41.26226837 92.78250941 45.87109375 81.94921875 C48.28696502 75.07149911 48.98280615 68.39906427 48.9375 61.125 C48.93556641 60.37677979 48.93363281 59.62855957 48.93164062 58.85766602 C48.89095661 53.65406789 48.56231627 48.59248686 47.8125 43.4375 C50.03437927 42.09054207 52.26367463 40.76008204 54.5 39.4375 C55.12583984 39.0559375 55.75167969 38.674375 56.39648438 38.28125 C60.0081518 36.1634136 62.59681589 34.92162279 66.8125 35.4375 C76.73570853 53.51191554 77.62635912 73.51689762 71.90234375 93.21484375 C71.01436961 95.84057373 70.08400434 98.42424504 69.0625 101 C67.44582711 105.44585045 66.86346207 109.26934221 68.80078125 113.6953125 C71.13976212 120.03494404 70.97262064 128.0585935 68.78515625 134.4296875 C65.41717894 140.5685492 60.91180136 144.1549669 54.8125 147.4375 C54.21953125 147.81003906 53.6265625 148.18257812 53.015625 148.56640625 C46.8506124 151.00399102 38.19734933 150.31836568 31.85546875 148.66796875 C26.71199762 146.37568162 24.30549929 143.77425311 21.125 139.1875 C18.79160965 136.37248459 17.07115127 134.69397793 13.43066406 133.95214844 C8.50249763 133.51756896 3.58424322 133.55785598 -1.359375 133.5546875 C-19.04483487 133.47989538 -33.34979813 125.85456048 -45.8984375 113.79296875 C-53.76808244 105.20592524 -59.95001551 94.59256314 -63.1875 83.4375 C-63.54328125 82.34308594 -63.8990625 81.24867188 -64.265625 80.12109375 C-68.44526563 63.42024156 -64.04437107 44.82945389 -55.40576172 30.30371094 C-45.83222194 15.63835261 -30.95026611 5.43412497 -14.11816406 1.03955078 C-9.40003009 0.07029733 -4.80404304 -0.05257053 0 0 Z " fill="#F6F5F5" transform="translate(609.1875,386.5625)"/>
<path d="M0 0 C9.28325561 7.16836524 16.93587201 18.66552008 20.81640625 29.5703125 C21.29013672 30.73433594 21.29013672 30.73433594 21.7734375 31.921875 C24.03209436 38.41938103 24.09450084 44.88811841 24.12890625 51.6953125 C24.13446533 52.62577393 24.14002441 53.55623535 24.14575195 54.51489258 C23.95297485 73.07916324 15.66852325 88.40525437 3.12890625 101.7578125 C-8.35855651 112.80615206 -23.1336842 119.63570355 -39.18359375 119.7109375 C-40.31796875 119.73027344 -41.45234375 119.74960937 -42.62109375 119.76953125 C-44.99592245 119.80338297 -47.37102522 119.82161451 -49.74609375 119.82421875 C-56.52684688 119.83939388 -56.52684688 119.83939388 -62.3125 122.98046875 C-62.92996094 123.83511719 -63.54742187 124.68976563 -64.18359375 125.5703125 C-72.74184458 131.94347801 -80.76961655 132.31010323 -91.18359375 131.5703125 C-96.87287988 130.27772179 -101.49899271 127.0254853 -104.7890625 122.23046875 C-108.35908838 116.4556763 -110.32919252 112.33630634 -110.30859375 105.5078125 C-110.31117188 104.65058594 -110.31375 103.79335938 -110.31640625 102.91015625 C-110.18359375 100.5703125 -110.18359375 100.5703125 -109.18359375 97.5703125 C-108.3481162 89.91972526 -109.34674226 83.47318418 -111.68359375 76.2578125 C-116.30895308 61.48619304 -117.08370914 41.19011162 -109.90625 27.0546875 C-108.50272615 24.72768564 -107.11095609 22.49767484 -105.18359375 20.5703125 C-101.3939437 19.90521852 -100.12590474 20.60818571 -96.8515625 22.7578125 C-95.68167825 23.68314467 -94.52168941 24.62110315 -93.37109375 25.5703125 C-92.47487305 26.28574219 -92.47487305 26.28574219 -91.56054688 27.015625 C-90.09288457 28.18975485 -88.63703236 29.37862053 -87.18359375 30.5703125 C-87.41949219 31.73046875 -87.41949219 31.73046875 -87.66015625 32.9140625 C-90.0132532 49.35062028 -88.96102576 64.33720419 -79.55859375 78.3828125 C-71.34360495 88.82846305 -60.53268491 96.5531165 -47.18359375 98.5703125 C-32.45137466 99.67562369 -18.37824315 97.86421615 -6.359375 88.51171875 C0.49541409 82.39532705 5.30748445 76.0767896 8.81640625 67.5703125 C9.2959375 66.4875 9.2959375 66.4875 9.78515625 65.3828125 C13.55557298 55.32836788 13.63521123 40.88428333 9.84375 30.8203125 C9.50472656 30.0778125 9.16570312 29.3353125 8.81640625 28.5703125 C8.42582031 27.6834375 8.03523438 26.7965625 7.6328125 25.8828125 C1.39542952 13.16067158 -8.25487136 5.66081617 -21.18359375 0.5703125 C-32.520394 -2.88758563 -46.9090902 -3.58166265 -57.8828125 1.31640625 C-62.86807756 4.03333339 -67.50596003 6.74640823 -71.37890625 10.95703125 C-77.17025571 16.88804348 -80.96011651 18.07218842 -89.16357422 18.18994141 C-93.84701517 18.10652497 -98.51204952 17.91480429 -103.18359375 17.5703125 C-93.22680519 2.0918305 -76.74046624 -8.11842573 -58.96484375 -12.57421875 C-37.16427901 -17.10181599 -18.14186304 -11.87821444 0 0 Z " fill="#F7F5F4" transform="translate(454.18359375,400.4296875)"/>
<path d="M0 0 C10.70905295 -1.02533486 18.00933741 1.56744696 26.61328125 7.93359375 C33.48993911 13.70728521 36.83752327 19.22181057 39 28 C39.85114003 38.22473407 39.16053815 47.95920988 34 57 C33.01 57.495 33.01 57.495 32 58 C31.75765625 58.59554687 31.5153125 59.19109375 31.265625 59.8046875 C29.41753378 63.0103272 26.89837427 64.23453782 23.75 66.125 C22.63109375 66.80820312 21.5121875 67.49140625 20.359375 68.1953125 C11.34302738 73.03897831 2.07031184 73.20117716 -7.8125 70.875 C-17.00074173 68.00784184 -24.65224059 61.06654583 -29.2890625 52.6640625 C-32.16436786 46.43768183 -33.16040357 40.93902562 -33.25 34.0625 C-33.27578125 32.87785156 -33.3015625 31.69320313 -33.328125 30.47265625 C-32.96584552 26.63853174 -32.00311681 24.26773514 -30 21 C-27.8125 19.625 -27.8125 19.625 -26 19 C-25.278125 19.78375 -24.55625 20.5675 -23.8125 21.375 C-20.09969582 24.8402839 -17.69309343 25.80832905 -12.6875 26.375 C-8.08725482 25.90717846 -4.75564859 24.69831509 -1 22 C2.86966416 17.0419928 2.6772804 11.04274853 2 5 C1.05471923 2.24595772 1.05471923 2.24595772 0 0 Z " fill="#342012" transform="translate(413,413)"/>
<path d="M0 0 C10.70905295 -1.02533486 18.00933741 1.56744696 26.61328125 7.93359375 C34.011869 14.1455013 38.43360663 21.07373676 39.37109375 30.8828125 C39.41087359 32.29648866 39.43238468 33.71077351 39.4375 35.125 C39.44136719 35.86548584 39.44523438 36.60597168 39.44921875 37.36889648 C39.30570723 44.28809494 37.28386917 49.91311394 34 56 C32 54 32 54 30.5 50.4375 C29.41004413 46.93797326 29.41004413 46.93797326 27 46 C23.5 45.75 23.5 45.75 20 46 C17.40664095 48.59335905 17.72273437 50.48747032 17.63671875 54.02734375 C18.11503243 56.62463844 18.85478016 57.47850047 21 59 C23.28330101 59.36146457 23.28330101 59.36146457 25.6875 59.1875 C26.49574219 59.16042969 27.30398438 59.13335937 28.13671875 59.10546875 C29.05904297 59.05326172 29.05904297 59.05326172 30 59 C26.77077768 65.85459458 19.95402922 68.58734114 13.23583984 71.27783203 C4.78696213 74.00678817 -4.8772641 73.08259262 -12.828125 69.25390625 C-20.26567093 64.95992739 -24.58959582 60.37408342 -29 53 C-29.66 52.01 -30.32 51.02 -31 50 C-32.90056748 44.61505879 -33.20746197 39.49648313 -33.25 33.8125 C-33.25918457 33.12325439 -33.26836914 32.43400879 -33.27783203 31.72387695 C-33.25345565 27.69641166 -32.77011417 24.61890008 -31 21 C-30.443125 19.8553125 -30.443125 19.8553125 -29.875 18.6875 C-29.58625 18.130625 -29.2975 17.57375 -29 17 C-28.34 17 -27.68 17 -27 17 C-26.401875 17.928125 -25.80375 18.85625 -25.1875 19.8125 C-22.86384695 23.19839445 -21.79030683 24.51683646 -18 26 C-12.19667449 26.68950402 -7.81362061 26.61021545 -3 23 C-2.34 23 -1.68 23 -1 23 C-0.690625 22.21625 -0.38125 21.4325 -0.0625 20.625 C1 18 1 18 2 16 C2.12114921 14.35744209 2.17540767 12.70947522 2.1875 11.0625 C2.20167969 10.18722656 2.21585938 9.31195313 2.23046875 8.41015625 C2.16663349 5.73755665 2.16663349 5.73755665 0 3 C0 2.01 0 1.02 0 0 Z " fill="#332012" transform="translate(605,413)"/>
<path d="M0 0 C0.73476563 0.226875 1.46953125 0.45375 2.2265625 0.6875 C15.05224936 4.90994835 27.20136192 12.86921656 35 24 C34.94028134 27.46368213 34.87461137 29.89111772 32.6875 32.6640625 C30.02900331 34.76870571 27.96634914 34.77628317 24.64453125 34.6796875 C20.03588184 33.49518972 16.82599839 30.34166876 13.18359375 27.390625 C-2.95729824 15.27010242 -23.81537368 12.91462625 -43.34179688 15.28417969 C-55.67196393 17.44340612 -65.71146194 23.8192528 -75.2578125 31.6171875 C-78.45509869 34.1549438 -80.98466405 34.17699679 -85.02734375 34.328125 C-87.62864143 33.8954339 -88.45299543 33.11298185 -90 31 C-90.93329548 27.26681807 -90.81755103 23.58525138 -89.0390625 20.13671875 C-78.71511934 7.15719484 -60.02985128 -1.57028136 -43.83203125 -3.5859375 C-28.8880326 -5.05540195 -14.23092153 -5.07980401 0 0 Z " fill="#964704" transform="translate(539,556)"/>
<path d="M0 0 C4.15142206 2.07571103 5.59807864 5.00949857 7.625 9 C16.0775194 25.1916548 32.52934626 37.08068276 49.43359375 43.25390625 C52.60637836 44.24792316 55.78647366 45.14822193 59 46 C59.70511719 46.21398437 60.41023437 46.42796875 61.13671875 46.6484375 C65.31451603 47.85710841 69.27938317 48.15428583 73.625 48.375 C80.35270548 48.80376454 83.26336312 50.26336312 88 55 C88.55952381 63.67261905 88.55952381 63.67261905 86 67 C79.08176133 71.48223914 68.10937626 69.39940138 60.37768555 67.92089844 C32.0197591 61.8356384 7.22961353 46.12785152 -9.08984375 22.078125 C-12.49903719 16.5843736 -14.84039557 12.60310809 -14 6 C-10.22718629 0.21501897 -6.78434309 -0.86608635 0 0 Z " fill="#9A4803" transform="translate(606,328)"/>
<path d="M0 0 C4.76718246 0.49315681 7.28283288 2.03283288 10.625 5.375 C11.72046684 15.96451282 5.78123122 23.12548042 -0.55078125 31.00390625 C-16.72252945 50.570766 -37.71498481 62.53186387 -62.375 68.375 C-63.13167969 68.56320312 -63.88835937 68.75140625 -64.66796875 68.9453125 C-68.73363773 69.59065678 -72.76386784 69.72121146 -76.875 69.8125 C-77.71675781 69.85826172 -78.55851562 69.90402344 -79.42578125 69.95117188 C-85.43315356 70.05996681 -85.43315356 70.05996681 -88.05786133 68.15112305 C-90.41570908 65.48018611 -92.08468638 62.91408969 -92.0625 59.3125 C-91.32700405 55.1001141 -90.46577917 53.98426773 -87.16040039 51.42114258 C-84.14340459 49.65335549 -81.19375992 49.51490461 -77.75 49.25 C-76.32368903 49.11349918 -74.89789201 48.97152282 -73.47265625 48.82421875 C-72.77543457 48.75380371 -72.07821289 48.68338867 -71.35986328 48.61083984 C-51.57896877 46.26049002 -30.76692748 35.62840982 -17.8671875 20.41796875 C-14.09280091 15.46642198 -10.5726025 10.38198208 -7.4453125 4.99609375 C-5.2119095 1.61338483 -4.14813809 0.46090423 0 0 Z " fill="#994702" transform="translate(420.375,327.625)"/>
<path d="M0 0 C0.33 0 0.66 0 1 0 C1.29838255 8.0894826 0.4069623 14.57599594 -2.625 22.0625 C-4.35126522 26.53151148 -4.98864953 30.74134612 -3.01171875 35.2578125 C-0.67273788 41.59744404 -0.83987936 49.6210935 -3.02734375 55.9921875 C-6.39532106 62.1310492 -10.90069864 65.7174669 -17 69 C-17.59296875 69.37253906 -18.1859375 69.74507812 -18.796875 70.12890625 C-24.95781152 72.56487938 -33.57122476 71.86177773 -39.921875 70.265625 C-47.0782769 67.12045474 -52.64310107 61.3961073 -57 55 C-58.18276104 51.63057342 -57.92168884 50.62530942 -57 47 C-53.31832913 41.59034185 -49.73441801 39.51559989 -43.6875 37.25 C-42.96626953 36.95996094 -42.24503906 36.66992188 -41.50195312 36.37109375 C-37.92231503 34.96492201 -34.38093139 33.7940337 -30.640625 32.89453125 C-20.4426025 30.38879396 -12.70764849 20.78510288 -7.27734375 12.2109375 C-5.35482478 8.8832747 -3.69412761 5.44875978 -2 2 C-1.34 1.34 -0.68 0.68 0 0 Z " fill="#B2D9EC" transform="translate(681,465)"/>
<path d="M0 0 C3.64842556 1.21614185 3.63916777 1.82194029 5.3125 5.125 C8.26509268 10.26058727 11.85680933 14.43958696 15.875 18.75 C16.45161377 19.37535645 17.02822754 20.00071289 17.62231445 20.64501953 C23.00332253 26.31740163 28.66552917 32.04795962 36.5625 33.625 C41.36005663 34.74086624 44.86918114 36.33791673 49 39 C49 39.66 49 40.32 49 41 C49.86625 41.0928125 49.86625 41.0928125 50.75 41.1875 C54.12967335 42.4079376 55.12200796 43.932613 57 47 C57.8989902 50.30303141 58.50050689 53.61527697 59 57 C58.113125 57.226875 57.22625 57.45375 56.3125 57.6875 C52.89948018 58.78629849 52.89948018 58.78629849 50.625 61.375 C44.14148155 67.85851845 36.6070015 69.24673398 27.69970703 69.25097656 C20.36011506 69.13388372 15.27064598 67.27064598 10 62 C5.66066016 55.67575531 2.85166198 50.6740528 2.875 42.9375 C2.87242187 42.08027344 2.86984375 41.22304688 2.8671875 40.33984375 C3 38 3 38 4 35 C4.56487816 27.35241878 3.93081678 20.69240713 1.671875 13.3828125 C0.63307473 9.69869528 0.26871199 6.46257603 2 3 C1.34 3 0.68 3 0 3 C0 2.01 0 1.02 0 0 Z " fill="#B3DAED" transform="translate(341,463)"/>
<path d="M0 0 C0.66 0 1.32 0 2 0 C2.32871094 0.7734375 2.65742187 1.546875 2.99609375 2.34375 C7.1175936 11.36860603 12.03203679 18.3396274 21.5625 22 C22.696875 22.33 23.83125 22.66 25 23 C24.796875 24.87890625 24.796875 24.87890625 24 27 C21.890625 28.08984375 21.890625 28.08984375 19.25 28.9375 C12.07264124 31.57158045 7.87282132 36.55472073 4 43 C2.68868374 46.2582888 2.68868374 46.2582888 2 49 C0.515 48.505 0.515 48.505 -1 48 C-1.391875 46.845 -1.78375 45.69 -2.1875 44.5 C-4.50787497 37.87205714 -8.85995261 32.77660576 -14.96875 29.3203125 C-17.61907279 28.1112735 -20.26488022 27.00053095 -23 26 C-22 23 -22 23 -19.78515625 21.61328125 C-18.88667969 21.18402344 -17.98820313 20.75476563 -17.0625 20.3125 C-16.16660156 19.87550781 -15.27070312 19.43851563 -14.34765625 18.98828125 C-12 18 -12 18 -10 18 C-9.67 17.01 -9.34 16.02 -9 15 C-8.34 15 -7.68 15 -7 15 C-6.34 13.35 -5.68 11.7 -5 10 C-4.34 10 -3.68 10 -3 10 C-2.86722656 9.36191406 -2.73445312 8.72382812 -2.59765625 8.06640625 C-2.42105469 7.24011719 -2.24445312 6.41382813 -2.0625 5.5625 C-1.80146484 4.32693359 -1.80146484 4.32693359 -1.53515625 3.06640625 C-1 1 -1 1 0 0 Z " fill="#E1ECDB" transform="translate(967,943)"/>
<path d="M0 0 C4.35527151 2.03747396 7.82217322 4.71509806 11.0625 8.25 C12.72582022 13.12907264 12.91693816 18.11819436 11.34375 23.0625 C9.44718117 26.85563765 6.8577485 29.45252171 3.05859375 31.33984375 C-2.30421148 33.05960482 -7.21565037 32.80800738 -12.3125 30.5 C-16.97173277 26.16582999 -20.24288533 21.91056897 -20.5625 15.375 C-20.29059808 10.98680516 -18.89367224 8.36291639 -16 5 C-10.75658755 0.38080332 -6.95976884 -1.14377596 0 0 Z " fill="#F7F5F4" transform="translate(596,408)"/>
<path d="M0 0 C4.87540321 2.17969669 9.50352764 5.21509464 12 10 C12.81825894 16.14164466 12.7648932 21.85464596 9 27 C3.64776405 31.12568188 -0.25696296 32.4495358 -7 32 C-12.17080005 30.3348271 -15.02898102 28.57079843 -18 24 C-19.79595488 18.61213537 -19.63509946 13.10376697 -18 7.6875 C-13.62821509 1.81291403 -7.39304148 -1.79094997 0 0 Z " fill="#F8F7F7" transform="translate(404,408)"/>
<path d="M0 0 C2.64440551 1.3380833 5.38387834 2.19016252 8.1953125 3.11083984 C9.4453125 5.11083984 9.4453125 5.11083984 10.1953125 7.11083984 C11.1853125 8.10083984 11.1853125 8.10083984 12.1953125 9.11083984 C12.411875 10.31740234 12.411875 10.31740234 12.6328125 11.54833984 C13.25327507 14.37489155 14.00538375 15.30176827 16.1953125 17.11083984 C15.8653125 17.77083984 15.5353125 18.43083984 15.1953125 19.11083984 C14.6590625 18.62615234 14.1228125 18.14146484 13.5703125 17.64208984 C-5.24458573 1.55040057 -27.51906752 -3.60225368 -51.8046875 -1.88916016 C-67.99986137 0.21028002 -81.68179917 10.42585761 -91.9375 22.65380859 C-99.52824058 32.9883883 -102.72994797 43.62034716 -104.8046875 56.11083984 C-105.09085938 57.81820312 -105.09085938 57.81820312 -105.3828125 59.56005859 C-105.52203125 60.40181641 -105.66125 61.24357422 -105.8046875 62.11083984 C-106.1346875 62.11083984 -106.4646875 62.11083984 -106.8046875 62.11083984 C-108.26689697 47.35877095 -102.89215334 31.07921007 -93.7734375 19.54052734 C-91.53592983 16.96424211 -89.21137367 14.52930425 -86.8046875 12.11083984 C-86.06605469 11.33740234 -85.32742188 10.56396484 -84.56640625 9.76708984 C-79.81012941 5.09874417 -74.82681532 1.74710934 -68.9296875 -1.26416016 C-68.30634521 -1.58594238 -67.68300293 -1.90772461 -67.04077148 -2.23925781 C-45.13078496 -12.79916211 -20.94900026 -11.23406925 0 0 Z " fill="#EBB75C" transform="translate(649.8046875,389.88916015625)"/>
<path d="M0 0 C1.9375 1 1.9375 1 3.1875 3.125 C4.41537282 7.83184583 4.46844284 11.52515877 2.8125 16.125 C0.24428923 20.06292318 -2.80475165 22.87112583 -7.0625 25 C-11.85976677 25.58526655 -15.20534428 25.46753949 -19.5 23.125 C-22.0625 21 -22.0625 21 -24.0625 19 C-23.9375 17.0546875 -23.9375 17.0546875 -23.0625 15 C-21.3125 13.5078125 -21.3125 13.5078125 -19.0625 12.125 C-18.25554688 11.61582031 -17.44859375 11.10664063 -16.6171875 10.58203125 C-15.35261719 9.79892578 -15.35261719 9.79892578 -14.0625 9 C-12.43265662 7.94494464 -10.80742907 6.88271543 -9.1875 5.8125 C-8.46820312 5.34457031 -7.74890625 4.87664062 -7.0078125 4.39453125 C-5.02398799 3.05911857 -5.02398799 3.05911857 -3.43359375 1.32421875 C-2.0625 0 -2.0625 0 0 0 Z " fill="#D8EAF3" transform="translate(670.0625,495)"/>
<path d="M0 0 C3.66126921 0.58024579 5.36591447 2.01322405 8 4.5625 C13.232024 9.39273251 19.00486684 13.18583745 25 17 C24.28864254 20.25479594 23.63727752 21.86989123 21 24 C16.34233522 25.55255493 11.85308693 25.73674997 7 25 C3.51059141 23.02428956 0.80194466 20.60388931 -1 17 C-1.09735819 14.68917466 -1.12977373 12.37537042 -1.125 10.0625 C-1.12757813 8.81597656 -1.13015625 7.56945312 -1.1328125 6.28515625 C-1 3 -1 3 0 0 Z " fill="#D6EAF3" transform="translate(351,491)"/>
<path d="M0 0 C1.01852051 0.00346436 2.03704102 0.00692871 3.08642578 0.01049805 C17.57634578 0.21987658 17.57634578 0.21987658 23.8125 3.3125 C24.3075 4.7975 24.3075 4.7975 24.8125 6.3125 C24.4825 6.9725 24.1525 7.6325 23.8125 8.3125 C9.6225 7.9825 -4.5675 7.6525 -19.1875 7.3125 C-18.8575 5.6625 -18.5275 4.0125 -18.1875 2.3125 C-12.08153031 0.17498481 -6.43879939 -0.03510167 0 0 Z " fill="#F9E7A1" transform="translate(509.1875,569.6875)"/>
<path d="M0 0 C2.51146722 2.21423739 2.96315242 2.72613287 3.43359375 6.22265625 C3.44437052 16.81622417 2.16441727 25.49405109 -5.28515625 33.53125 C-13.32098478 40.41387307 -22.9127904 40.72269615 -33 40 C-40.98861477 38.15809277 -46.43785865 33.79195692 -51.9375 27.9375 C-53.2739997 25.50035349 -53.22808504 23.73702051 -53 21 C-50.3495679 22.98782408 -48.20814108 24.69935178 -46.3125 27.4375 C-41.34066232 32.94683364 -35.52576547 35.19764129 -28.13916016 35.64746094 C-20.01470521 35.80410456 -13.33620154 34.34888246 -7 29 C-3.18009903 24.47523635 0.14005669 19.88804982 0.09765625 13.8671875 C0.09443359 13.06152344 0.09121094 12.25585938 0.08789062 11.42578125 C0.07951172 10.58402344 0.07113281 9.74226563 0.0625 8.875 C0.05798828 8.02550781 0.05347656 7.17601562 0.04882812 6.30078125 C0.03702874 4.20049091 0.01909306 2.1002367 0 0 Z " fill="#E5A64A" transform="translate(678,500)"/>
<path d="M0 0 C0.33 0 0.66 0 1 0 C1.06316406 0.73863281 1.12632812 1.47726562 1.19140625 2.23828125 C2.24961595 11.00471315 5.05648779 18.3954047 11.65234375 24.5390625 C18.45708607 29.35259524 27.06275402 28.5807741 35 28 C41.32476464 26.50031354 45.7691976 24.02407786 50 19 C50.66 18.34 51.32 17.68 52 17 C52.99 17 53.98 17 55 17 C54.11890691 22.48235701 50.135743 25.61494649 46 29 C37.47866426 33.96018051 28.56710606 35.37332263 19 32.875 C11.33183928 30.34250453 5.91846116 26.05486809 1.96875 18.99609375 C-1.24348391 12.37733759 -1.05499104 7.0855479 0 0 Z " fill="#E0A959" transform="translate(343,503)"/>
<path d="M0 0 C16.73660429 6.87251867 31.45956761 17.6900056 40 34 C40.73828125 37.890625 40.73828125 37.890625 41 41 C41.66 41 42.32 41 43 41 C45.89452883 49.44237574 46.35021655 57.11487651 46 66 C45.67 66 45.34 66 45 66 C44.90203125 65.21238281 44.8040625 64.42476563 44.703125 63.61328125 C43.00922782 51.27411646 40.21082402 40.28922684 33 30 C32.41347656 29.15566406 31.82695312 28.31132812 31.22265625 27.44140625 C22.66587933 15.94487775 9.19868998 6.67899811 -5 4 C-4.0409375 3.8453125 -4.0409375 3.8453125 -3.0625 3.6875 C-2.381875 3.460625 -1.70125 3.23375 -1 3 C-0.67 2.01 -0.34 1.02 0 0 Z " fill="#EEB554" transform="translate(433,385)"/>
<path d="M0 0 C2.9375 1.5625 2.9375 1.5625 5 4 C5.07079774 7.96467353 4.57240555 10.17319199 2.3125 13.4375 C-0.75815295 15.5122655 -2.36633823 15.68131158 -6 15 C-8.89648251 12.40841039 -9.87307907 10.7773907 -10.5 6.9375 C-10 4 -10 4 -8.375 1.625 C-5.26965639 -0.49970879 -3.6986604 -0.60386292 0 0 Z " fill="#EEECEB" transform="translate(440,458)"/>
<path d="M0 0 C2.4375 1.0625 2.4375 1.0625 4 3 C4.5625 6.375 4.5625 6.375 4 10 C1.68802361 13.10465401 0.25716828 14.72403623 -3.5625 15.5625 C-6.93473771 14.7842913 -8.0572794 13.87810459 -10 11 C-10.63857688 7.47363655 -10.65841319 4.23936601 -8.9375 1 C-5.85873258 -0.58904125 -3.39844421 -0.35773097 0 0 Z " fill="#F0EDED" transform="translate(632,458)"/>
<path d="M0 0 C1.07314453 0.00322266 2.14628906 0.00644531 3.25195312 0.00976562 C4.37150391 0.01814453 5.49105469 0.02652344 6.64453125 0.03515625 C8.34125977 0.04192383 8.34125977 0.04192383 10.07226562 0.04882812 C12.86724052 0.06062127 15.66210945 0.07707975 18.45703125 0.09765625 C18.12703125 1.74765625 17.79703125 3.39765625 17.45703125 5.09765625 C8.54703125 5.09765625 -0.36296875 5.09765625 -9.54296875 5.09765625 C-9.21296875 3.77765625 -8.88296875 2.45765625 -8.54296875 1.09765625 C-5.42453625 0.05817875 -3.26821289 -0.01729213 0 0 Z " fill="#FCF0BB" transform="translate(499.54296875,570.90234375)"/>
<path d="M0 0 C-0.88109309 5.48235701 -4.864257 8.61494649 -9 12 C-17.42694662 16.90523758 -26.50783777 18.37304056 -36 16 C-31.55931855 13.0395457 -27.45940082 14.00017142 -22.25 14.22265625 C-19.04210059 14.31935451 -19.04210059 14.31935451 -17.25 12.55859375 C-16.8375 12.04425781 -16.425 11.52992188 -16 11 C-15.01 10.67 -14.02 10.34 -13 10 C-10.34925127 7.48876436 -7.8662192 4.85666343 -5.375 2.1875 C-3 0 -3 0 0 0 Z " fill="#ECAD47" transform="translate(398,520)"/>
<path d="M0 0 C1.32 0.99 2.64 1.98 4 3 C1.95589941 10.67138926 -0.41800699 17.16117955 -4.73828125 23.83203125 C-6.29437853 26.50582069 -6.83791706 28.92042408 -7 32 C-7.33 32 -7.66 32 -8 32 C-8.48134268 26.46455915 -7.28410005 22.95734693 -5.0859375 17.90625 C-3.37482383 13.32686664 -2.53628546 8.59893402 -1.61328125 3.80859375 C-1 1 -1 1 0 0 Z " fill="#EFB450" transform="translate(684,466)"/>
<path d="M0 0 C1.81054005 3.62108009 -0.50713171 7.51406415 -1.68359375 11.19921875 C-3.84101232 17.57484876 -6.43309341 23.78075203 -9 30 C-9.66895751 31.6657485 -10.33660258 33.33202935 -11 35 C-12.07318928 31.78043217 -11.870689 31.09578311 -11 28 C-11 27.01 -11 26.02 -11 25 C-10.42240972 23.39698284 -9.78049065 21.81670217 -9.1015625 20.25390625 C-8.70453125 19.33416016 -8.3075 18.41441406 -7.8984375 17.46679688 C-7.26808594 16.02916992 -7.26808594 16.02916992 -6.625 14.5625 C-6.2125 13.60794922 -5.8 12.65339844 -5.375 11.66992188 C-3.66664703 7.73244382 -1.9509946 3.82432398 0 0 Z " fill="#F2B44A" transform="translate(773,576)"/>
<path d="M0 0 C5.06398064 2.21689819 10.07895682 4.47638811 15 7 C14.67 8.32 14.34 9.64 14 11 C11.29319668 9.96504579 8.74771688 8.865449 6.1875 7.5 C2.47223483 5.75163992 -0.99905023 4.8967646 -5 4 C-4.0409375 3.8453125 -4.0409375 3.8453125 -3.0625 3.6875 C-2.381875 3.460625 -1.70125 3.23375 -1 3 C-0.67 2.01 -0.34 1.02 0 0 Z " fill="#F3BE5B" transform="translate(433,385)"/>
<path d="M0 0 C2.51146722 2.21423739 2.96315242 2.72613287 3.43359375 6.22265625 C3.44174059 14.23099547 2.80362234 20.78330583 -1 28 C-1.99 27.67 -2.98 27.34 -4 27 C-3.07718583 24.62704927 -2.18129857 22.32578525 -0.94189453 20.09863281 C0.10743338 17.76062795 0.231714 16.21998026 0.1953125 13.671875 C0.18886719 12.87265625 0.18242188 12.0734375 0.17578125 11.25 C0.15902344 10.425 0.14226563 9.6 0.125 8.75 C0.11146484 7.48929687 0.11146484 7.48929687 0.09765625 6.203125 C0.07415817 4.13529396 0.03828908 2.06761005 0 0 Z " fill="#EAA64D" transform="translate(678,500)"/>
<path d="M0 0 C3.58304256 2.68728192 6.28669253 5.44463159 9 9 C9.66 9.66 10.32 10.32 11 11 C10.01 12.485 10.01 12.485 9 14 C1.84090909 8.27272727 1.84090909 8.27272727 0 5 C-0.1875 2.25 -0.1875 2.25 0 0 Z " fill="#E5B157" transform="translate(625,521)"/>
<path d="M0 0 C0.33 0 0.66 0 1 0 C1.144375 0.78375 1.28875 1.5675 1.4375 2.375 C1.87798925 4.96421018 1.87798925 4.96421018 3 7 C1.8203125 9.171875 1.8203125 9.171875 0.125 11.75 C-2.24192464 15.53050463 -3.76054552 18.4503649 -4 23 C-4.33 23 -4.66 23 -5 23 C-5.49271092 17.33382442 -4.19971878 13.56957881 -1.95703125 8.37890625 C-0.84537302 5.6156415 -0.31136021 2.95792199 0 0 Z " fill="#E4BA6C" transform="translate(681,475)"/>
<path d="M0 0 C1.32 0 2.64 0 4 0 C3.39816251 2.02045442 2.72693904 4.02111039 2 6 C1.01 6.495 1.01 6.495 0 7 C-0.433125 7.9590625 -0.433125 7.9590625 -0.875 8.9375 C-2.22909764 11.42001234 -3.42178493 11.96871397 -6 13 C-6 12.01 -6 11.02 -6 10 C-6.99 9.67 -7.98 9.34 -9 9 C-8.236875 8.7525 -7.47375 8.505 -6.6875 8.25 C-3.71392111 6.86694005 -2.67876071 5.76995517 -1 3 C-0.67 2.01 -0.34 1.02 0 0 Z " fill="#542D10" transform="translate(445,464)"/>
<path d="M0 0 C0.66 0 1.32 0 2 0 C2 1.32 2 2.64 2 4 C11.9 4 21.8 4 32 4 C32 4.33 32 4.66 32 5 C21.77 5 11.54 5 1 5 C0.34 3.68 -0.32 2.36 -1 1 C-0.67 0.67 -0.34 0.34 0 0 Z " fill="#FED869" transform="translate(488,573)"/>
<path d="M0 0 C5.28137429 0.51525603 8.57221156 2.25477117 13 5 C13 5.66 13 6.32 13 7 C13.66 7.33 14.32 7.66 15 8 C10.25779349 7.40722419 6.00706312 5.56522805 2 3 C1.34 2.01 0.68 1.02 0 0 Z " fill="#D2E6F1" transform="translate(377,497)"/>
<path d="M0 0 C-0.58324395 3.22540929 -1.52214798 4.9757611 -3.8125 7.3125 C-4.31394531 7.84488281 -4.81539062 8.37726563 -5.33203125 8.92578125 C-7 10 -7 10 -9.19921875 9.66796875 C-9.79347656 9.44753906 -10.38773438 9.22710937 -11 9 C-9.54782324 7.49403892 -8.08807139 5.99537896 -6.625 4.5 C-5.40683594 3.24703125 -5.40683594 3.24703125 -4.1640625 1.96875 C-2 0 -2 0 0 0 Z " fill="#EBB14C" transform="translate(569,398)"/>
<path d="M0 0 C0.99 0 1.98 0 3 0 C2.82374165 2.37948772 2.30280227 3.70225849 0.59765625 5.37890625 C-0.90649092 6.62115486 -2.45129851 7.81376056 -4 9 C-4.99 8.34 -5.98 7.68 -7 7 C-4.66666667 4.66666667 -2.33333333 2.33333333 0 0 Z " fill="#E4B75B" transform="translate(395,520)"/>
<path d="M0 0 C-4.56327794 3.53286034 -8.49633208 3.32374517 -14 3 C-14 2.34 -14 1.68 -14 1 C-12.41913952 0.63495397 -10.83516093 0.28339494 -9.25 -0.0625 C-8.36828125 -0.25972656 -7.4865625 -0.45695313 -6.578125 -0.66015625 C-4.01320972 -0.99825872 -2.42908361 -0.81158635 0 0 Z " fill="#CBD9BC" transform="translate(582,763)"/>
<path d="M0 0 C0.33 0.99 0.66 1.98 1 3 C-1.97 6.3 -4.94 9.6 -8 13 C-8.66 12.67 -9.32 12.34 -10 12 C-9.44570313 11.38511719 -8.89140625 10.77023437 -8.3203125 10.13671875 C-7.59585938 9.32847656 -6.87140625 8.52023437 -6.125 7.6875 C-5.40570312 6.88699219 -4.68640625 6.08648438 -3.9453125 5.26171875 C-1.88394498 2.95810917 -1.88394498 2.95810917 0 0 Z " fill="#D1D1A9" transform="translate(727,667)"/>
<path d="M0 0 C1.58206057 0.00667536 3.16410534 0.0186375 4.74609375 0.03515625 C5.55240234 0.03966797 6.35871094 0.04417969 7.18945312 0.04882812 C9.18753131 0.06065107 11.18557158 0.07858711 13.18359375 0.09765625 C13.18359375 0.42765625 13.18359375 0.75765625 13.18359375 1.09765625 C12.26835937 1.14664062 11.353125 1.195625 10.41015625 1.24609375 C9.22164063 1.32085937 8.033125 1.395625 6.80859375 1.47265625 C5.03355469 1.57707031 5.03355469 1.57707031 3.22265625 1.68359375 C0.07797056 1.79982971 0.07797056 1.79982971 -1.81640625 4.09765625 C-2.80640625 3.10765625 -3.79640625 2.11765625 -4.81640625 1.09765625 C-3.81640625 0.09765625 -3.81640625 0.09765625 0 0 Z " fill="#A06026" transform="translate(355.81640625,417.90234375)"/>
<path d="M0 0 C0.33 0 0.66 0 1 0 C1.05447047 1.41623216 1.09300508 2.83308191 1.125 4.25 C1.14820313 5.03890625 1.17140625 5.8278125 1.1953125 6.640625 C0.9828378 9.20731941 0.28654105 10.7916067 -1 13 C-1.33 11.35 -1.66 9.7 -2 8 C-2.99 8.495 -2.99 8.495 -4 9 C-3.71125 8.443125 -3.4225 7.88625 -3.125 7.3125 C-1.9586747 4.91505355 -0.9660119 2.48403061 0 0 Z " fill="#E9EADD" transform="translate(683,458)"/>
<path d="M0 0 C0.66 0.33 1.32 0.66 2 1 C1 3 1 3 -1.50390625 3.8515625 C-3.01791016 4.23441406 -3.01791016 4.23441406 -4.5625 4.625 C-5.57441406 4.88539063 -6.58632813 5.14578125 -7.62890625 5.4140625 C-8.41136719 5.60742188 -9.19382812 5.80078125 -10 6 C-7.07865822 2.81957898 -4.06268795 1.47734107 0 0 Z " fill="#ECB949" transform="translate(486,573)"/>
<path d="M0 0 C0.99 0.33 1.98 0.66 3 1 C3 1.66 3 2.32 3 3 C-0.31371 5.20914 -1.3446021 5.22481553 -5.1875 5.125 C-6.08855469 5.10695313 -6.98960937 5.08890625 -7.91796875 5.0703125 C-8.60503906 5.04710937 -9.29210937 5.02390625 -10 5 C-10 4.67 -10 4.34 -10 4 C-7.03 4 -4.06 4 -1 4 C-0.67 2.68 -0.34 1.36 0 0 Z " fill="#FCD86D" transform="translate(534,574)"/>
<path d="M0 0 C0.99 0 1.98 0 3 0 C2.67 1.32 2.34 2.64 2 4 C0.35 4.33 -1.3 4.66 -3 5 C-1.125 1.125 -1.125 1.125 0 0 Z " fill="#E6D3C0" transform="translate(445,478)"/>
<path d="M0 0 C0.99 0 1.98 0 3 0 C2.67 1.32 2.34 2.64 2 4 C0.35 4.33 -1.3 4.66 -3 5 C-1.125 1.125 -1.125 1.125 0 0 Z " fill="#EEE0D0" transform="translate(637,478)"/>
<path d="M0 0 C1.30913891 2.15622879 2 3.57952098 2 6.125 C1 8 1 8 -2.0625 9.25 C-3.031875 9.4975 -4.00125 9.745 -5 10 C-4.360625 9.278125 -3.72125 8.55625 -3.0625 7.8125 C-1.01326465 5.01808816 -0.38667054 3.38336726 0 0 Z " fill="#5B402E" transform="translate(636,463)"/>
<path d="M0 0 C0.66 0 1.32 0 2 0 C2 1.32 2 2.64 2 4 C4.97 4 7.94 4 11 4 C11 4.33 11 4.66 11 5 C7.7 5 4.4 5 1 5 C0.34 3.68 -0.32 2.36 -1 1 C-0.67 0.67 -0.34 0.34 0 0 Z " fill="#FDE07F" transform="translate(488,573)"/>
<path d="M0 0 C3.96 0 7.92 0 12 0 C12 0.33 12 0.66 12 1 C9.02148438 1.29296875 9.02148438 1.29296875 6.04296875 1.5859375 C3.70011858 1.92665391 3.70011858 1.92665391 1 4 C0.67 2.68 0.34 1.36 0 0 Z " fill="#513017" transform="translate(413,413)"/>
<path d="M0 0 C1.0625 1.8125 1.0625 1.8125 2 4 C1.67 4.99 1.34 5.98 1 7 C0.01 7 -0.98 7 -2 7 C-2.33 5.68 -2.66 4.36 -3 3 C-2.34 3 -1.68 3 -1 3 C-0.67 2.01 -0.34 1.02 0 0 Z " fill="#F1B54F" transform="translate(338,458)"/>
<path d="M0 0 C3 3 3 3 3.07421875 5.69921875 C2.94660156 6.68535156 2.81898438 7.67148437 2.6875 8.6875 C2.50767578 10.17830078 2.50767578 10.17830078 2.32421875 11.69921875 C2.21722656 12.45847656 2.11023438 13.21773437 2 14 C1.67 14 1.34 14 1 14 C0.67 9.38 0.34 4.76 0 0 Z " fill="#E7B871" transform="translate(678,500)"/>
<path d="M0 0 C-3.75 3 -3.75 3 -6 3 C-6 2.34 -6 1.68 -6 1 C-6.99 0.67 -7.98 0.34 -9 0 C-5.62182575 -0.84454356 -3.32534757 -1.10844919 0 0 Z " fill="#EBB952" transform="translate(367,395)"/>
</svg>
